<svg width="24" height="25" viewBox="0 0 24 25" fill="none" xmlns="http://www.w3.org/2000/svg">
<path fill-rule="evenodd" clip-rule="evenodd" d="M12.0192 2.16346C15.2212 2.16346 15.6058 2.16346 16.875 2.23077C17.6364 2.24338 18.3904 2.38313 19.1058 2.64423C19.6264 2.83795 20.0965 3.14695 20.4808 3.54808C20.8821 3.93599 21.191 4.40921 21.3846 4.93269C21.6477 5.64753 21.7875 6.40183 21.7981 7.16346C21.8558 8.42308 21.8654 8.80769 21.8654 12.0192C21.8654 15.2308 21.8654 15.6058 21.7981 16.875C21.7855 17.6364 21.6457 18.3904 21.3846 19.1058C21.1801 19.6208 20.8724 20.0887 20.4805 20.4805C20.0887 20.8724 19.6208 21.1801 19.1058 21.3846C18.3904 21.6457 17.6364 21.7855 16.875 21.7981C15.6058 21.8558 15.2212 21.8654 12.0192 21.8654C8.81731 21.8654 8.42308 21.8654 7.21154 21.7981C6.44991 21.7875 5.69561 21.6477 4.98077 21.3846C4.45729 21.191 3.98407 20.8821 3.59615 20.4808C3.19502 20.0965 2.88603 19.6264 2.69231 19.1058C2.4312 18.3904 2.29146 17.6364 2.27885 16.875C2.22115 15.6058 2.21154 15.2212 2.21154 12.0192C2.21154 8.81731 2.21154 8.42308 2.27885 7.21154C2.28945 6.44991 2.42926 5.69561 2.69231 4.98077C2.88594 4.45729 3.19484 3.98407 3.59615 3.59615C3.98407 3.19484 4.45729 2.88594 4.98077 2.69231C5.69561 2.42926 6.44991 2.28945 7.21154 2.27885C8.47115 2.22115 8.85577 2.21154 12.0673 2.21154L12.0192 2.16346ZM12.0192 0C8.75 0 8.34615 0 7.05769 0.0769231C6.07167 0.0996411 5.09651 0.288173 4.17308 0.634615C3.36048 0.928996 2.6244 1.40219 2.01923 2.01923C1.40578 2.61609 0.932812 3.34196 0.634615 4.14423C0.288173 5.06766 0.0996411 6.04283 0.0769231 7.02885C0 8.34615 0 8.75 0 12.0192C0 15.2885 0 15.6923 0.0769231 16.9712C0.0985384 17.9573 0.287105 18.9326 0.634615 19.8558C0.928996 20.6684 1.40219 21.4044 2.01923 22.0096C2.61614 22.6253 3.34179 23.1014 4.14423 23.4038C5.06892 23.7458 6.04333 23.9342 7.02885 23.9615C8.34615 24.0385 8.75 24.0385 12.0192 24.0385C15.2885 24.0385 15.6923 24.0385 16.9712 23.9712C17.9568 23.9449 18.9314 23.7564 19.8558 23.4135C20.6521 23.0992 21.3754 22.6246 21.9808 22.0193C22.5862 21.4139 23.0607 20.6906 23.375 19.8942C23.7225 18.9711 23.9111 17.9958 23.9327 17.0096C23.9904 15.7308 24 15.3173 24 12.0577C24 8.79808 24 8.38462 23.9327 7.09615C23.91 6.11013 23.7214 5.13497 23.375 4.21154C23.0899 3.38769 22.6233 2.63846 22.0096 2.01923C21.4128 1.40578 20.6869 0.932812 19.8846 0.634615C18.9615 0.287105 17.9861 0.0985384 17 0.0769231C15.6923 0 15.2788 0 12.0192 0Z" fill="black"/>
<path fill-rule="evenodd" clip-rule="evenodd" d="M12.0192 5.84595C10.7979 5.84405 9.60347 6.20448 8.58705 6.88163C7.57063 7.55878 6.77791 8.52221 6.30921 9.65003C5.84051 10.7778 5.71689 12.0193 5.95399 13.2174C6.1911 14.4155 6.77827 15.5164 7.6412 16.3806C8.50414 17.2449 9.60406 17.8338 10.8018 18.0728C11.9995 18.3118 13.2412 18.1901 14.3697 17.7231C15.4983 17.2562 16.463 16.465 17.1417 15.4496C17.8204 14.4342 18.1827 13.2404 18.1827 12.019C18.184 11.2088 18.0255 10.4063 17.7163 9.65742C17.4071 8.90853 16.9533 8.22794 16.3809 7.65459C15.8084 7.08124 15.1285 6.62638 14.3801 6.31604C13.6317 6.00569 12.8295 5.84595 12.0192 5.84595ZM12.0192 16.019C11.2254 16.0209 10.4489 15.7871 9.78801 15.3473C9.12716 14.9074 8.61175 14.2813 8.30708 13.5483C8.00241 12.8152 7.92219 12.0082 8.0766 11.2295C8.231 10.4509 8.61308 9.73553 9.17441 9.1742C9.73575 8.61287 10.4511 8.23079 11.2298 8.07639C12.0084 7.92198 12.8154 8.0022 13.5485 8.30687C14.2815 8.61154 14.9077 9.12695 15.3475 9.7878C15.7874 10.4486 16.0211 11.2252 16.0192 12.019C16.0167 13.0791 15.5945 14.0951 14.8449 14.8447C14.0953 15.5942 13.0793 16.0165 12.0192 16.019Z" fill="black"/>
<path fill-rule="evenodd" clip-rule="evenodd" d="M19.875 5.60515C19.875 5.89041 19.7904 6.16927 19.6319 6.40645C19.4734 6.64364 19.2482 6.8285 18.9846 6.93767C18.7211 7.04683 18.4311 7.0754 18.1513 7.01974C17.8715 6.96409 17.6145 6.82673 17.4128 6.62501C17.2111 6.4233 17.0737 6.16631 17.0181 5.88653C16.9624 5.60675 16.991 5.31675 17.1001 5.0532C17.2093 4.78965 17.3942 4.5644 17.6314 4.40591C17.8685 4.24743 18.1474 4.16284 18.4327 4.16284C18.8144 4.16536 19.1798 4.31813 19.4497 4.58807C19.7197 4.85801 19.8725 5.2234 19.875 5.60515Z" fill="black"/>
</svg>
