<svg width="24" height="25" viewBox="0 0 24 25" fill="none" xmlns="http://www.w3.org/2000/svg">
<path fill-rule="evenodd" clip-rule="evenodd" d="M20.304 0.0322266H3.696C2.71576 0.0322266 1.77567 0.421625 1.08253 1.11476C0.389399 1.80789 0 2.74799 0 3.72823L0 20.3362C0 21.3165 0.389399 22.2566 1.08253 22.9497C1.77567 23.6428 2.71576 24.0322 3.696 24.0322H20.304C21.2835 24.0297 22.2221 23.6395 22.9147 22.9469C23.6073 22.2543 23.9975 21.3157 24 20.3362V3.72823C24 2.74799 23.6106 1.80789 22.9175 1.11476C22.2243 0.421625 21.2842 0.0322266 20.304 0.0322266ZM19.44 16.8322H17.2416C16.8472 16.8644 16.4555 16.7442 16.1472 16.4962C15.3312 15.9394 14.5536 14.4706 13.9584 14.6626C13.3632 14.8546 13.3632 16.1794 13.3632 16.1794C13.3628 16.3337 13.316 16.4842 13.2288 16.6114C13.1013 16.7196 12.944 16.7866 12.7776 16.8034H11.8176C11.0488 16.7876 10.2913 16.6151 9.59144 16.2966C8.89157 15.978 8.26403 15.52 7.7472 14.9506C5.6448 12.8098 3.84 8.50903 3.84 8.50903C3.84 8.50903 3.7248 8.23063 3.84 8.09623C3.98157 7.9909 4.15315 7.93371 4.3296 7.93303H6.672C6.80867 7.95913 6.93903 8.01127 7.056 8.08663C7.14265 8.16365 7.21145 8.25867 7.2576 8.36503C7.5092 8.99284 7.80432 9.60232 8.1408 10.189C9.1008 11.8786 9.5712 12.253 9.9072 12.109C10.3968 11.8498 10.2432 9.71863 10.2432 9.71863C10.2541 9.33042 10.1718 8.94525 10.0032 8.59543C9.81431 8.38669 9.55392 8.2565 9.2736 8.23063C9.1392 8.23063 9.36 7.90423 9.6384 7.76983C10.3034 7.56897 11.0008 7.49728 11.6928 7.55863C12.0803 7.54433 12.4678 7.58309 12.8448 7.67383C13.6512 7.87543 13.3728 8.63383 13.3728 10.4386C13.3728 11.0146 13.2672 11.8306 13.6896 12.0994C13.872 12.2146 14.304 12.0994 15.408 10.2466C15.7579 9.62948 16.0627 8.9878 16.32 8.32663C16.3687 8.2192 16.4449 8.12649 16.5408 8.05783C16.6393 8.01035 16.7487 7.99045 16.8576 8.00023H19.296C19.296 8.00023 20.0352 7.90423 20.16 8.24023C20.2848 8.57623 19.8816 9.42103 18.8736 10.765C17.2128 12.973 17.0304 12.7618 18.4128 14.0386C19.0634 14.5771 19.6128 15.2273 20.0352 15.9586C20.5824 16.861 19.44 16.9186 19.44 16.9186" fill="black"/>
</svg>
