<?xml version="1.0" standalone="no"?>
<!DOCTYPE svg PUBLIC "-//W3C//DTD SVG 20010904//EN"
 "http://www.w3.org/TR/2001/REC-SVG-20010904/DTD/svg10.dtd">
<svg version="1.0" xmlns="http://www.w3.org/2000/svg"
 width="512.000000pt" height="512.000000pt" viewBox="0 0 512.000000 512.000000"
 preserveAspectRatio="xMidYMid meet">
<metadata>
Created by potrace 1.11, written by Peter Selinger 2001-2013
</metadata>
<g transform="translate(0.000000,512.000000) scale(0.100000,-0.100000)"
fill="#000000" stroke="none">
<path d="M4061 4981 c-7 -5 -9 -11 -5 -14 5 -3 15 1 22 9 14 16 5 18 -17 5z"/>
<path d="M3781 4958 c-13 -13 -21 -17 -17 -10 4 6 2 12 -3 12 -6 0 -11 -3 -11
-8 0 -4 -13 -7 -30 -7 -16 -1 -30 4 -30 10 0 5 -4 3 -10 -5 -5 -8 -12 -11 -16
-8 -4 4 -20 -2 -35 -13 -20 -14 -29 -16 -29 -7 0 8 -3 9 -8 3 -4 -6 -23 -12
-42 -13 -19 -2 -39 -8 -45 -14 -7 -8 -6 -9 5 -3 13 8 13 6 2 -7 -12 -15 -42
-15 -42 -1 0 3 8 2 18 -2 13 -5 14 -4 5 6 -10 10 -16 9 -30 -3 -20 -17 -53
-20 -53 -5 0 6 -3 7 -6 4 -4 -4 -1 -14 7 -24 13 -17 13 -17 -13 0 -25 16 -27
16 -21 0 4 -11 3 -14 -6 -9 -7 5 -18 0 -27 -10 -9 -11 -13 -13 -9 -6 3 6 1 12
-4 12 -6 0 -11 -5 -11 -11 0 -8 -6 -7 -17 2 -10 7 -15 9 -11 5 12 -14 -25 -35
-54 -32 -18 2 -25 -1 -21 -9 2 -7 -1 -16 -8 -21 -7 -4 -10 -3 -6 3 4 6 0 13
-8 16 -9 4 -12 1 -9 -7 3 -8 0 -17 -7 -22 -8 -5 -10 -3 -4 7 8 12 6 12 -8 0
-14 -11 -17 -11 -18 0 0 8 -5 4 -11 -8 -14 -28 -36 -37 -56 -21 -13 11 -14 11
-7 -1 6 -11 4 -13 -9 -8 -10 4 -15 3 -11 -3 6 -9 -8 -14 -28 -11 -4 1 -10 -6
-13 -14 -5 -12 -10 -13 -20 -4 -10 8 -12 6 -9 -11 4 -19 2 -20 -12 -8 -14 11
-16 11 -8 -1 6 -11 4 -13 -9 -8 -14 6 -17 3 -12 -9 5 -14 4 -15 -9 -4 -14 12
-20 7 -16 -14 1 -5 -6 -3 -15 5 -15 12 -17 12 -9 0 6 -11 4 -13 -9 -8 -9 4
-15 3 -12 -1 3 -4 -3 -13 -13 -19 -15 -9 -17 -7 -17 11 1 13 -4 20 -13 18 -10
-2 -12 1 -5 10 6 7 10 41 9 76 -1 59 3 68 30 62 6 -1 6 2 2 7 -5 4 -14 8 -20
8 -10 0 -13 22 -8 59 0 5 7 3 15 -3 11 -10 14 -9 12 4 -3 19 -16 20 -38 0 -13
-11 -18 -11 -18 -2 0 7 -3 8 -8 2 -4 -6 -20 -16 -35 -23 -20 -9 -27 -17 -23
-29 6 -14 4 -14 -11 -2 -15 12 -16 12 -9 -6 4 -11 4 -16 0 -12 -4 4 -16 -1
-27 -10 -10 -10 -29 -18 -41 -18 -12 -1 -20 -6 -18 -15 3 -11 0 -11 -14 1 -16
13 -17 12 -12 -9 5 -18 4 -21 -7 -12 -9 8 -14 7 -19 -5 -3 -8 -17 -15 -31 -15
-14 0 -28 -6 -31 -14 -3 -8 -14 -13 -24 -11 -13 3 -17 -1 -13 -11 4 -10 0 -12
-13 -7 -12 4 -15 3 -10 -5 4 -7 3 -12 -3 -12 -5 0 -12 6 -14 13 -3 7 -6 6 -6
-5 -1 -9 -6 -20 -13 -24 -6 -4 -8 -3 -4 4 3 6 2 13 -3 16 -5 4 -8 -5 -7 -18 2
-17 -1 -23 -10 -19 -8 3 -11 9 -8 15 3 5 -3 4 -14 -3 -12 -7 -18 -18 -16 -24
3 -5 -2 -1 -11 10 -17 20 -17 20 -10 -3 7 -23 -12 -28 -27 -7 -5 6 -8 3 -8 -7
0 -11 -5 -15 -15 -12 -9 4 -15 0 -15 -7 0 -11 -3 -11 -11 1 -9 12 -10 10 -6
-8 4 -18 2 -22 -9 -18 -12 4 -12 2 -4 -15 6 -11 15 -17 20 -14 6 3 7 -1 4 -9
-3 -9 -10 -13 -15 -10 -5 3 -9 1 -9 -4 0 -5 10 -14 23 -21 14 -7 15 -10 3 -6
-13 4 -17 1 -13 -9 3 -7 0 -19 -6 -26 -9 -10 -8 -12 5 -7 10 3 20 2 23 -4 4
-5 1 -8 -6 -7 -6 2 -14 -3 -16 -10 -3 -6 1 -10 9 -9 7 2 10 2 6 0 -5 -3 -8
-16 -8 -29 0 -14 4 -23 8 -20 7 4 8 -15 3 -43 -1 -3 -6 0 -12 6 -6 6 -18 9
-25 6 -8 -3 -14 1 -14 10 0 11 -7 14 -24 11 -17 -3 -28 3 -41 22 -14 22 -19
23 -33 12 -11 -9 -14 -10 -8 0 5 8 0 12 -16 12 -18 0 -20 2 -8 10 12 8 8 10
-15 11 -16 1 -33 1 -37 0 -4 0 -4 7 -1 17 6 15 5 15 -10 4 -14 -12 -16 -11
-13 5 3 15 -2 18 -29 17 -26 -2 -32 1 -28 13 5 13 3 14 -18 3 -22 -12 -23 -12
-10 3 12 15 10 17 -15 18 -16 1 -33 1 -37 0 -4 -1 -3 7 2 17 7 14 6 19 -4 19
-8 0 -12 -4 -9 -9 3 -4 -2 -8 -11 -8 -9 0 -13 5 -10 11 4 6 1 10 -6 8 -29 -3
-41 2 -36 16 4 8 1 17 -5 21 -7 4 -8 3 -4 -4 13 -21 -26 -13 -45 10 -11 11
-19 16 -19 9 0 -8 -5 -9 -19 -2 -10 6 -22 7 -27 3 -5 -4 -2 2 6 13 8 11 10 17
6 13 -5 -4 -16 -2 -24 5 -13 10 -15 9 -8 -3 4 -8 0 -6 -8 4 -9 11 -16 14 -16
8 0 -7 -5 -12 -11 -12 -5 0 -7 5 -3 12 5 8 2 9 -9 5 -20 -7 -50 20 -40 36 4 8
1 7 -9 -1 -13 -10 -17 -10 -21 0 -4 10 -6 10 -6 -1 -1 -8 -8 -4 -21 10 -10 13
-19 18 -20 12 0 -7 5 -13 12 -13 6 0 8 -3 5 -6 -4 -4 -18 1 -32 10 -14 9 -30
14 -36 11 -5 -4 -9 -3 -8 2 4 20 -2 24 -18 12 -11 -10 -14 -10 -9 -1 7 11 3
13 -31 16 -7 1 -20 10 -28 21 -9 11 -14 14 -10 8 4 -9 -2 -12 -19 -11 -13 1
-22 6 -20 10 3 5 10 5 16 2 6 -4 8 -2 5 3 -4 6 -19 8 -33 5 -16 -3 -24 -1 -21
4 3 6 -4 11 -16 11 -18 2 -19 0 -7 -8 12 -9 11 -9 -5 -3 -11 4 -34 8 -52 8
-17 0 -29 4 -27 8 3 5 10 6 15 3 5 -4 9 -1 9 5 0 7 -6 10 -12 7 -7 -2 -21 0
-32 5 -14 8 -17 7 -10 -4 6 -11 5 -11 -9 1 -14 11 -17 11 -17 0 0 -11 -2 -11
-10 1 -10 17 -32 20 -41 7 -4 -6 -13 -6 -20 -1 -8 5 -23 10 -34 11 -10 2 -23
9 -27 16 -6 9 -8 8 -8 -3 0 -9 -3 -11 -8 -5 -4 6 -14 10 -22 10 -8 -1 -21 3
-27 8 -9 6 -13 5 -13 -2 0 -8 -5 -9 -19 -2 -10 6 -21 7 -25 4 -9 -10 -115 -10
-109 0 7 11 -49 -3 -66 -17 -11 -8 -13 -8 -8 1 9 14 -69 13 -92 -1 -10 -7 -12
-6 -6 4 5 9 4 11 -3 6 -7 -4 -12 -14 -12 -22 0 -8 -5 -14 -11 -14 -6 0 -8 8
-5 18 5 14 4 14 -9 -2 -8 -11 -15 -14 -15 -7 0 7 -5 9 -10 6 -6 -4 -7 -12 -3
-18 5 -9 3 -9 -8 -1 -10 7 -23 5 -49 -8 -19 -10 -29 -18 -21 -18 8 0 11 -3 8
-6 -4 -4 -14 -1 -24 7 -11 9 -14 10 -9 2 5 -9 1 -13 -12 -13 -11 0 -27 -10
-36 -22 -9 -13 -14 -16 -10 -8 5 12 4 12 -6 3 -7 -6 -20 -9 -29 -6 -12 4 -10
1 4 -11 11 -10 14 -15 8 -11 -7 3 -13 1 -13 -4 0 -6 -5 -11 -11 -11 -6 0 -25
-15 -41 -32 -26 -29 -28 -30 -18 -8 11 24 10 24 -5 5 -9 -11 -20 -20 -25 -20
-11 0 -12 -17 -3 -25 4 -3 3 1 -2 9 -6 10 -4 12 4 6 9 -5 7 -12 -8 -26 -12
-11 -21 -24 -21 -29 0 -6 -5 -10 -12 -10 -9 0 -9 3 0 12 7 7 12 17 12 22 0 6
-8 -1 -17 -14 -17 -24 -23 -40 -25 -68 -1 -7 -7 -11 -15 -8 -7 3 -12 2 -11 -2
1 -4 -6 -22 -16 -41 -10 -18 -13 -30 -8 -27 12 7 10 -20 -3 -31 -4 -4 -5 -2
-1 5 4 6 3 12 -2 12 -14 0 -22 -38 -8 -44 6 -2 3 -5 -6 -5 -12 -1 -16 -9 -16
-31 1 -17 5 -27 11 -23 6 3 7 1 3 -6 -6 -9 -11 -9 -22 0 -13 10 -13 8 -4 -16
9 -24 9 -26 -4 -16 -11 9 -14 8 -12 -6 0 -10 6 -21 11 -25 6 -5 5 -8 -3 -8 -8
0 -11 -9 -8 -25 3 -15 0 -25 -7 -25 -8 0 -8 -3 1 -9 11 -7 10 -9 -3 -15 -11
-4 -14 -12 -10 -27 4 -13 3 -19 -2 -16 -5 4 -10 0 -10 -8 0 -10 4 -12 12 -5 8
7 11 -4 11 -40 0 -28 -4 -50 -8 -50 -5 0 -6 13 -3 29 3 17 1 32 -3 35 -12 7
-11 -98 2 -106 8 -6 8 -8 -1 -8 -6 0 -11 -13 -11 -30 1 -17 5 -27 11 -23 6 4
7 1 1 -8 -14 -23 -17 -62 -3 -53 8 5 9 3 4 -7 -5 -7 -9 -44 -10 -81 -1 -61 3
-72 25 -70 3 0 5 -11 5 -24 l0 -24 -18 23 c-15 18 -15 15 3 -20 14 -31 17 -43
8 -43 -10 0 -10 -2 1 -9 11 -7 11 -9 0 -14 -9 -4 -10 -6 -2 -6 7 -1 10 -8 6
-18 -5 -12 -3 -14 8 -8 12 7 12 6 1 -7 -9 -11 -10 -18 -2 -23 5 -3 10 -12 10
-18 0 -7 -4 -6 -10 3 -7 12 -9 10 -7 -7 0 -12 5 -19 9 -17 4 3 8 -4 8 -15 0
-10 -6 -22 -12 -25 -7 -3 -4 -4 8 -1 18 5 20 1 19 -30 0 -19 3 -35 7 -35 4 0
8 -5 8 -11 0 -5 -4 -8 -9 -5 -5 4 -7 -3 -4 -15 4 -12 11 -18 20 -15 8 3 11 1
8 -4 -3 -6 -14 -10 -23 -11 -11 0 -12 -2 -4 -6 6 -2 9 -10 5 -16 -3 -7 3 -3
15 7 12 11 22 14 22 8 0 -7 -4 -12 -9 -12 -5 0 -12 -7 -15 -16 -3 -8 -2 -12 3
-9 5 3 12 1 16 -5 3 -5 1 -10 -6 -10 -7 0 -3 -10 9 -23 15 -16 19 -30 15 -46
-4 -16 -2 -22 4 -18 7 5 9 0 6 -13 -3 -11 -1 -20 5 -20 5 0 13 -7 16 -16 6
-15 4 -15 -10 -3 -16 13 -16 12 -5 -9 7 -13 17 -20 24 -15 7 4 5 -2 -3 -12
-13 -17 -13 -18 1 -13 13 5 16 2 11 -14 -4 -16 -2 -19 9 -13 12 8 12 6 0 -8
-12 -15 -11 -17 3 -17 9 0 17 -4 17 -10 2 -11 5 -25 9 -37 1 -5 2 -12 1 -17
-1 -4 6 -14 15 -21 12 -8 13 -14 6 -19 -6 -4 -9 -13 -6 -21 4 -8 10 -12 15 -9
6 3 8 -6 5 -20 -3 -18 -1 -23 10 -19 9 3 14 -2 14 -17 0 -14 4 -19 13 -14 8 6
8 3 -1 -9 -12 -14 -12 -19 1 -32 9 -8 19 -24 22 -35 4 -12 11 -17 18 -13 7 4
6 -1 -2 -11 -12 -15 -12 -17 0 -14 8 2 14 -4 14 -12 1 -8 6 -25 13 -36 6 -12
8 -25 4 -29 -4 -5 -1 -5 6 -1 7 4 9 12 6 18 -4 7 -2 8 4 4 6 -4 9 -13 5 -21
-3 -8 0 -15 6 -15 6 0 11 -9 11 -21 0 -15 5 -19 15 -15 8 3 15 1 15 -4 0 -6
-5 -10 -11 -10 -5 0 -7 -6 -3 -12 11 -17 12 -48 2 -42 -4 3 -8 -2 -8 -12 0 -9
-8 -23 -17 -31 -10 -8 -12 -11 -4 -7 9 5 12 3 7 -4 -4 -7 -14 -12 -23 -12 -13
0 -13 -3 -3 -15 11 -13 10 -14 -3 -10 -8 4 -18 1 -23 -6 -4 -8 -3 -10 4 -5 7
4 12 3 12 -2 0 -5 -10 -14 -23 -21 -22 -11 -22 -11 3 -6 14 3 19 2 12 -1 -6
-3 -10 -10 -7 -15 4 -5 0 -6 -8 -3 -8 3 -18 0 -23 -7 -4 -7 -3 -10 4 -5 6 3
13 2 16 -3 4 -5 -3 -13 -15 -16 -15 -5 -18 -10 -10 -18 6 -6 11 -16 11 -21 0
-6 -5 -4 -10 4 -8 13 -11 13 -22 1 -10 -10 -10 -12 0 -7 7 5 12 1 12 -9 0 -11
-5 -15 -14 -12 -11 5 -13 0 -6 -22 6 -23 5 -28 -9 -27 -10 1 -15 -5 -13 -16 1
-9 -2 -19 -7 -23 -6 -3 -9 -11 -7 -18 1 -7 1 -9 -1 -4 -11 17 -23 5 -13 -13 8
-16 7 -22 -10 -32 -11 -7 -20 -16 -20 -21 0 -4 6 -5 12 -1 14 9 -10 -26 -27
-38 -6 -5 -5 -8 3 -8 7 0 10 -5 7 -10 -4 -6 -11 -7 -17 -4 -7 4 -8 2 -4 -4 4
-7 1 -12 -6 -12 -9 0 -9 -3 2 -10 13 -9 12 -12 -5 -26 -12 -8 -19 -24 -17 -36
3 -15 0 -18 -10 -12 -11 6 -11 5 0 -8 10 -12 10 -17 1 -20 -7 -2 -13 -15 -14
-29 -1 -13 -8 -23 -14 -21 -7 1 -10 -2 -6 -8 3 -6 10 -8 14 -6 4 3 8 -1 8 -8
0 -8 -7 -12 -14 -9 -16 6 -14 -18 2 -29 6 -4 0 -8 -12 -8 -13 0 -23 -5 -23
-11 0 -5 5 -7 10 -4 6 3 10 1 10 -4 0 -6 -6 -11 -12 -11 -8 0 -9 -3 -3 -8 6
-4 11 -13 13 -21 2 -11 0 -12 -10 -4 -10 9 -13 6 -13 -13 0 -13 4 -24 9 -24 6
0 1 -7 -10 -16 -10 -8 -13 -13 -6 -9 7 4 12 0 12 -10 0 -9 -4 -13 -10 -10 -5
3 -10 1 -10 -4 0 -6 5 -11 10 -11 6 0 10 -5 10 -10 0 -7 -7 -7 -21 1 -21 11
-21 10 -6 -12 15 -21 15 -24 0 -41 -13 -14 -13 -18 -2 -18 11 0 11 -2 -1 -10
-8 -5 -11 -10 -7 -10 4 0 3 -9 -3 -20 -9 -16 -8 -22 5 -27 10 -3 13 -8 6 -12
-5 -4 -11 -26 -12 -49 -2 -24 -7 -46 -13 -49 -5 -4 -6 0 -1 8 5 8 4 11 0 6
-13 -12 -14 -151 -1 -159 7 -5 6 -8 -3 -8 -11 0 -11 -3 0 -17 8 -9 9 -14 2
-10 -15 9 -14 -75 1 -85 7 -5 7 -8 -1 -8 -15 0 -13 -50 2 -50 7 0 6 -3 -1 -8
-5 -4 -10 -23 -10 -43 0 -29 4 -36 16 -31 12 4 13 2 3 -9 -17 -17 -17 -35 0
-21 9 8 12 4 12 -18 1 -16 -3 -26 -7 -24 -5 3 -5 10 -2 16 5 7 2 8 -5 3 -9 -5
-6 -14 11 -33 13 -14 18 -22 12 -19 -7 4 -11 -3 -11 -18 0 -14 3 -23 7 -20 3
2 7 -2 7 -10 0 -8 -3 -12 -7 -10 -4 2 -7 -2 -7 -10 0 -8 4 -12 9 -9 8 5 10 -1
13 -51 1 -18 6 -29 14 -27 9 2 10 -4 5 -20 -6 -20 -5 -21 9 -10 13 11 15 10
10 -7 -3 -12 -10 -18 -17 -14 -6 3 -7 2 -3 -3 5 -5 14 -9 20 -9 5 0 12 -6 15
-14 3 -8 0 -11 -7 -7 -16 10 -14 -3 3 -20 17 -17 30 -19 20 -2 -4 7 -3 8 4 4
14 -9 3 -38 -12 -30 -6 3 -1 -3 12 -14 12 -11 22 -28 23 -39 0 -11 3 -13 6 -5
3 9 13 2 29 -20 14 -18 22 -38 19 -46 -2 -7 -1 -11 4 -7 5 3 17 2 26 -1 12 -5
13 -9 5 -14 -9 -5 -6 -10 9 -15 11 -3 21 -11 21 -16 0 -6 4 -7 10 -4 5 3 10 2
10 -4 0 -5 -6 -12 -12 -15 -7 -3 0 -3 15 -1 25 4 27 2 15 -12 -11 -15 -11 -16
5 -10 9 3 17 2 17 -4 0 -6 5 -7 10 -4 6 3 10 -4 10 -17 0 -18 2 -20 10 -8 9
13 10 13 11 0 1 -8 1 -18 1 -21 -1 -3 5 -6 13 -6 8 0 12 4 9 9 -3 4 0 8 5 8
10 0 15 -14 12 -33 -2 -12 17 -8 22 6 3 8 10 6 23 -7 19 -20 19 -20 -1 -5 -18
13 -19 13 -7 -3 7 -9 21 -16 30 -16 25 1 46 -6 54 -17 5 -6 8 -5 8 3 0 7 5 10
10 7 6 -4 8 -10 5 -14 -2 -5 7 -6 22 -3 19 4 24 2 18 -8 -6 -10 0 -12 24 -8
22 3 31 1 31 -9 0 -12 3 -11 16 1 17 17 28 21 20 7 -3 -5 3 -11 14 -14 11 -3
18 -1 14 4 -3 5 -1 9 4 9 5 0 12 -8 15 -19 4 -18 47 -24 63 -8 4 3 -3 4 -16 2
-18 -3 -20 -2 -10 11 9 10 16 11 25 4 8 -6 16 -5 25 3 10 9 11 9 6 0 -5 -9 1
-13 18 -13 14 0 26 -4 26 -8 0 -4 10 -8 23 -9 22 -2 22 -2 -2 11 -15 9 -20 16
-12 20 6 4 11 2 11 -4 0 -6 20 -10 50 -9 30 1 47 6 43 12 -4 6 -1 7 6 3 7 -5
10 -15 7 -23 -3 -8 -1 -11 4 -8 6 3 10 14 10 23 0 13 2 14 9 3 6 -10 10 -10
16 -1 5 8 11 6 21 -7 8 -10 14 -13 13 -8 -3 22 2 29 11 15 6 -10 10 -11 10 -2
0 6 5 12 11 12 5 0 7 -5 3 -11 -5 -8 -1 -8 13 0 11 6 23 7 27 4 3 -3 6 0 6 8
0 11 2 11 10 -1 6 -10 10 -11 10 -2 0 6 5 12 11 12 5 0 7 -6 4 -13 -4 -6 6 2
20 18 15 17 24 25 21 18 -4 -7 1 -11 14 -10 11 1 20 6 20 12 0 5 5 3 10 -5 8
-12 10 -12 10 -1 0 11 3 11 17 0 14 -12 16 -12 9 0 -6 9 -5 12 5 9 8 -3 20 2
27 11 8 9 11 10 7 4 -4 -9 -1 -11 9 -7 9 3 14 9 11 13 -2 4 2 8 10 8 8 0 12
-4 9 -8 -2 -4 1 -11 7 -15 7 -4 9 -3 6 3 -4 6 1 17 10 24 10 8 14 9 10 2 -5
-8 0 -11 12 -10 19 1 19 2 3 21 -17 19 -17 19 13 0 29 -18 30 -18 15 0 -14 18
-14 19 8 7 15 -8 22 -8 22 -1 0 6 5 8 10 5 6 -3 10 -1 10 4 0 6 5 11 11 11 5
0 7 -5 3 -12 -5 -7 -3 -8 5 -4 7 5 10 14 7 22 -3 8 0 11 9 7 8 -3 12 -10 8
-16 -3 -6 -1 -7 5 -3 7 4 12 15 12 24 0 10 3 13 8 7 10 -14 35 -18 26 -4 -5 9
1 10 20 5 20 -5 26 -4 20 5 -5 9 -2 10 9 6 9 -3 19 -1 23 5 4 6 3 8 -4 4 -6
-3 -13 -2 -16 3 -7 11 13 9 33 -3 10 -6 12 -5 7 2 -5 8 3 12 23 12 16 0 33 5
37 12 5 7 2 8 -7 3 -8 -5 -11 -4 -6 0 13 15 49 17 42 3 -4 -7 0 -4 9 6 8 10
13 23 9 29 -3 6 -1 7 6 3 6 -4 9 -11 6 -16 -3 -5 -1 -12 5 -15 6 -4 10 -3 9 2
-3 19 2 31 17 37 15 6 15 4 3 -10 -13 -16 -12 -16 8 -4 11 8 19 19 16 26 -5
13 14 14 35 0 7 -4 16 -5 19 -2 4 3 1 6 -5 6 -7 0 -12 5 -12 11 0 6 7 8 16 5
10 -4 13 -2 8 6 -5 7 -2 9 9 5 8 -3 21 1 28 9 10 12 9 13 -7 8 -15 -5 -16 -4
-5 4 10 7 21 7 32 1 12 -6 20 -5 24 1 4 6 12 7 18 3 7 -4 6 0 -2 10 -7 9 -12
17 -10 18 31 6 38 6 34 -2 -4 -5 1 -6 10 -3 9 4 13 9 11 12 -3 3 2 11 12 18
12 9 22 9 36 2 13 -7 16 -7 12 1 -4 6 -2 11 4 11 6 0 8 6 4 13 -4 6 -4 9 1 5
4 -4 15 -2 24 5 14 11 14 10 2 -6 -8 -9 -12 -20 -9 -22 3 -3 11 7 18 21 9 17
20 24 32 21 10 -3 21 -1 24 4 3 5 10 7 15 4 5 -3 6 1 3 9 -7 18 4 20 26 6 13
-9 13 -10 0 -10 -10 0 -11 -3 -4 -8 15 -9 14 -93 0 -85 -6 3 -6 0 1 -7 6 -7 9
-19 6 -28 -5 -11 -2 -13 8 -8 8 4 5 0 -5 -8 -11 -9 -15 -16 -10 -16 5 0 10
-10 11 -21 2 -20 1 -21 -12 -3 -12 17 -13 16 -8 -9 3 -15 8 -26 11 -23 2 3 13
1 23 -4 12 -7 19 -6 22 3 5 10 11 -15 9 -34 -1 -9 41 -5 57 5 10 6 12 5 7 -2
-4 -7 -1 -12 8 -12 8 0 19 -6 23 -13 4 -8 16 -16 26 -20 13 -5 16 -3 11 6 -6
8 -3 8 9 -1 9 -8 21 -11 27 -7 9 5 14 -7 11 -27 0 -4 6 -5 14 -2 8 4 15 1 15
-6 0 -6 5 -8 11 -5 5 4 18 0 27 -7 29 -25 46 -33 37 -17 -4 8 5 1 20 -16 25
-27 27 -28 20 -7 -7 23 -6 23 15 5 12 -10 28 -24 35 -31 8 -6 20 -12 27 -12 7
0 19 -9 26 -21 11 -17 16 -19 29 -7 11 8 14 8 10 1 -4 -6 -3 -14 3 -18 5 -3
10 -1 10 5 0 6 5 8 10 5 6 -4 17 -2 24 4 9 8 13 7 13 -4 0 -7 -5 -13 -10 -12
-5 1 -11 -5 -12 -14 -2 -9 3 -16 11 -16 7 0 11 4 8 8 -2 4 0 10 6 14 6 4 8 10
5 15 -3 5 -1 11 5 15 18 11 0 26 -23 20 -13 -4 -17 -3 -11 2 13 9 12 41 -1 62
-5 9 -4 12 2 8 16 -10 23 31 7 44 -15 12 -14 30 1 41 6 5 5 8 -2 8 -7 0 -13 5
-13 11 0 5 5 7 10 4 13 -8 8 17 -5 28 -6 4 -4 11 5 17 13 8 12 10 -5 11 -11 0
-15 3 -8 5 6 3 9 18 6 35 -4 29 -3 30 31 27 19 -1 32 -6 30 -10 -3 -4 5 -9 18
-10 13 0 29 -2 37 -2 8 -1 18 -11 22 -24 7 -19 29 -23 29 -6 0 3 -4 2 -10 -1
-5 -3 -10 -1 -10 4 0 17 12 13 43 -16 17 -16 27 -23 23 -16 -3 6 -2 14 3 17 5
3 12 -1 15 -10 4 -9 13 -14 22 -10 10 4 13 2 8 -6 -5 -7 0 -9 15 -5 12 3 28
-1 36 -10 8 -8 15 -10 15 -5 0 5 7 9 15 9 11 0 12 -4 4 -13 -7 -8 -6 -14 2
-20 8 -4 9 -3 5 4 -4 7 -1 12 9 12 10 0 13 -5 9 -12 -5 -9 -2 -9 9 1 9 7 17 9
17 4 0 -5 14 -10 32 -11 18 -2 35 -6 38 -10 10 -14 44 -37 37 -25 -5 8 0 11
13 10 11 -1 20 -5 20 -9 0 -4 5 -8 11 -8 5 0 7 6 3 13 -5 9 -4 9 6 0 9 -9 19
-9 33 -2 14 8 18 8 13 0 -4 -6 -2 -11 4 -11 6 0 9 -4 6 -8 -2 -4 5 -9 17 -9
15 -2 18 0 9 6 -11 7 -10 10 3 14 9 4 13 3 10 -3 -9 -15 28 -30 48 -19 14 8
16 6 10 -8 -5 -15 -3 -16 8 -5 16 14 33 16 24 2 -7 -11 8 -14 19 -3 10 10 66
11 60 1 -3 -4 0 -8 6 -8 6 0 9 -4 6 -8 -3 -5 1 -9 9 -9 11 0 12 4 4 13 -7 8
-6 14 2 20 8 4 9 3 5 -4 -4 -7 -1 -12 8 -12 9 0 16 -6 16 -12 1 -7 7 -2 14 11
13 23 14 24 20 4 3 -11 13 -20 21 -20 8 0 12 4 9 9 -3 4 -1 8 5 8 5 0 12 -6
14 -12 4 -10 8 -9 16 2 5 8 13 11 17 7 4 -4 13 -2 21 5 10 8 12 8 8 -4 -5 -11
0 -15 17 -14 13 0 26 5 29 10 4 5 18 8 33 8 14 0 23 4 20 9 -3 5 2 6 10 3 8
-3 14 -11 12 -17 -1 -7 -1 -9 1 -4 3 4 10 4 15 1 6 -4 8 -2 4 4 -3 6 -2 13 4
17 10 6 15 -9 10 -30 -1 -5 2 -6 7 -2 4 5 8 13 8 18 0 5 4 8 10 7 5 -2 9 -7 7
-11 -1 -5 2 -6 8 -2 6 3 8 10 5 15 -3 5 22 8 55 7 48 -2 59 1 55 12 -5 12 -3
12 11 0 14 -11 18 -11 28 2 6 9 17 14 25 11 8 -2 11 0 8 5 -3 5 0 10 8 10 8 0
15 -5 15 -11 0 -6 4 -5 9 3 5 8 16 11 24 8 12 -4 15 0 12 14 -4 20 -3 20 20 5
20 -13 23 -14 19 -1 -4 10 0 13 15 10 15 -3 18 0 14 13 -6 15 -5 16 12 2 17
-14 18 -13 12 2 -7 20 9 25 16 6 4 -10 6 -10 6 0 1 6 10 12 21 12 11 0 20 4
20 9 0 6 9 8 19 6 15 -3 18 0 14 12 -5 12 -2 15 9 11 14 -6 88 35 88 49 0 3
-8 -1 -17 -8 -16 -13 -17 -12 -4 4 8 10 18 14 25 9 13 -9 58 32 47 45 -3 4 3
1 13 -7 18 -14 19 -13 13 4 -6 14 -4 17 8 12 13 -5 14 -2 4 17 -11 20 -11 21
5 8 15 -13 20 -12 39 9 l22 24 -23 -19 c-18 -15 -22 -16 -17 -3 4 9 20 22 36
28 16 7 32 17 36 23 4 6 1 7 -8 3 -8 -4 1 6 19 23 18 17 29 31 25 31 -5 0 0 5
10 11 9 5 22 7 29 3 7 -5 8 -3 4 5 -5 7 -15 10 -23 7 -8 -3 -11 -1 -8 4 3 6
13 10 20 10 10 0 12 6 8 18 -6 15 -5 15 10 3 15 -12 17 -12 11 3 -4 11 -1 16
11 16 15 0 16 2 4 17 -10 11 -10 14 -1 9 7 -4 12 -2 12 4 0 6 4 9 9 6 5 -4 7
3 4 14 -3 12 0 20 6 20 7 0 9 -5 5 -12 -4 -7 -3 -8 5 -4 6 4 9 12 6 17 -4 5 0
9 7 9 9 0 9 3 -2 10 -12 7 -12 10 -1 10 7 0 11 6 8 14 -4 11 -1 13 10 9 13 -5
15 -2 10 12 -6 14 -5 16 6 6 12 -9 14 -7 12 13 -2 13 3 36 10 50 9 18 10 26 3
26 -6 0 -8 3 -5 6 4 4 13 2 20 -4 11 -9 13 -8 12 6 0 9 -4 23 -8 29 -4 6 -2
15 4 19 8 4 9 3 5 -4 -4 -7 -3 -12 2 -12 15 0 22 28 9 34 -7 2 -3 5 7 5 15 1
17 4 8 13 -13 13 3 52 18 43 6 -3 7 1 3 10 -5 14 -8 14 -15 3 -8 -10 -9 -10
-5 2 2 8 10 15 18 14 9 -1 14 10 15 28 1 15 -4 28 -10 28 -6 0 -3 5 7 11 10 6
14 15 10 22 -11 18 -11 57 0 64 6 4 7 0 3 -8 -4 -8 -1 -6 7 4 13 15 15 58 15
243 0 204 -2 224 -16 212 -13 -11 -15 -10 -9 5 4 10 2 28 -5 40 -10 21 -10 21
7 7 17 -14 18 -14 5 10 -7 14 -18 28 -24 32 -8 5 -7 8 2 8 6 0 12 7 12 15 0 8
-6 15 -12 15 -9 0 -8 4 2 10 13 9 8 14 -11 12 -4 -1 -5 9 -2 21 3 15 2 18 -5
9 -6 -9 -9 1 -10 30 -4 89 -7 108 -19 104 -17 -7 -24 5 -12 21 6 7 7 13 2 13
-10 0 -11 6 -14 55 -1 14 -6 25 -11 25 -5 0 -6 -4 -3 -10 3 -5 2 -10 -3 -10
-15 0 -21 37 -8 51 8 9 7 10 -9 5 -16 -6 -18 -5 -7 6 10 10 8 16 -10 31 -13
10 -16 16 -8 12 10 -4 9 -2 -2 8 -12 9 -14 17 -7 24 7 7 4 14 -8 24 -16 13
-17 12 -4 -3 12 -16 11 -18 -2 -18 -16 0 -17 16 -3 39 6 10 5 12 -2 7 -7 -4
-12 -1 -12 9 0 9 -5 13 -11 9 -8 -4 -9 0 -4 15 5 17 3 20 -12 14 -16 -6 -17
-5 -3 12 12 15 12 17 1 10 -11 -6 -13 -4 -7 10 6 16 4 16 -11 4 -11 -9 -14
-10 -9 -1 4 7 4 21 1 33 -5 15 -10 17 -20 9 -11 -9 -12 -7 -8 9 3 13 -1 20
-14 23 -10 2 -18 12 -18 23 0 11 -5 19 -10 18 -6 -1 -12 8 -12 20 -2 17 0 19
7 7 7 -11 10 -8 10 13 0 19 -4 26 -12 21 -7 -4 -8 -3 -4 5 6 9 11 9 24 -1 12
-10 14 -10 8 0 -9 16 2 54 15 47 5 -4 9 1 9 9 0 9 5 16 10 16 6 0 10 5 10 11
0 5 -6 7 -12 4 -7 -4 -4 0 6 9 10 8 23 13 29 9 6 -3 7 -1 3 6 -4 6 -11 9 -15
7 -4 -3 -8 1 -8 8 0 8 8 12 21 9 16 -4 17 -2 7 5 -10 8 -8 13 10 27 13 10 17
15 9 12 -10 -3 -16 2 -16 14 0 13 4 15 12 8 8 -7 14 -7 18 0 4 5 2 12 -4 16
-14 9 -1 27 16 21 8 -3 11 0 7 9 -3 8 -10 12 -16 8 -6 -3 -7 -1 -3 6 4 6 12 8
18 5 8 -5 9 -1 5 10 -5 13 -1 19 12 23 20 5 22 18 7 42 -6 10 -5 12 2 7 7 -4
12 -1 12 9 0 9 4 14 8 11 5 -3 8 10 7 29 -2 20 1 38 6 40 4 3 6 -4 4 -16 -2
-12 -1 -19 2 -15 4 4 9 18 11 32 2 18 -1 24 -9 18 -8 -4 -9 -3 -5 5 6 9 11 9
24 -1 13 -12 14 -10 3 9 -10 19 -8 26 8 42 12 12 15 21 9 23 -7 3 -5 13 6 30
12 18 14 28 6 33 -8 5 -5 11 7 21 11 8 13 13 6 14 -7 0 -13 5 -13 11 0 6 7 8
16 5 9 -3 12 -2 9 5 -4 5 -1 16 5 24 9 11 9 15 1 15 -6 0 -11 -5 -11 -11 0 -5
-5 -7 -11 -3 -8 4 -3 12 12 20 14 8 18 13 10 14 -12 0 -12 3 -3 12 16 16 15
31 0 22 -9 -6 -9 -3 0 9 8 9 11 25 7 37 -4 12 -2 20 6 20 9 0 9 3 0 14 -8 10
-9 16 -1 21 6 3 8 10 5 15 -3 5 0 12 6 16 9 5 10 0 7 -14 -4 -12 -3 -20 2 -17
4 2 8 122 8 267 0 144 -3 256 -8 249 -4 -7 -6 -23 -4 -35 4 -20 4 -20 -5 -1
-4 11 -7 23 -4 27 2 4 -2 18 -8 30 -12 22 -11 22 6 8 17 -14 17 -14 1 18 -9
18 -14 37 -10 43 4 6 0 15 -7 20 -11 7 -12 12 -2 28 10 16 9 22 -5 33 -15 12
-16 11 -3 -4 7 -10 9 -18 3 -18 -14 0 -23 28 -12 35 6 4 10 12 10 18 0 7 -4 6
-10 -3 -7 -11 -10 -5 -10 23 0 20 -4 37 -10 37 -5 0 -10 5 -10 11 0 5 4 8 8 5
5 -3 9 1 9 9 0 8 -2 13 -5 10 -11 -11 -32 26 -28 50 3 15 1 23 -5 20 -5 -4 -6
-11 -3 -17 4 -7 2 -8 -5 -4 -6 4 -9 12 -6 17 4 5 1 9 -4 9 -6 0 -11 4 -11 10
0 5 8 7 18 3 9 -3 1 8 -18 25 -27 25 -32 34 -21 41 11 7 9 10 -7 15 -11 4 -22
17 -24 29 -2 13 -10 22 -19 21 -9 -1 -16 5 -16 12 0 7 4 11 9 8 4 -3 8 0 8 5
0 6 -8 11 -17 11 -15 0 -16 2 -3 10 13 8 12 10 -5 11 -11 1 -24 1 -30 0 -5 -1
-1 6 10 15 20 16 20 16 -2 9 -19 -5 -22 -3 -16 11 5 14 3 16 -11 11 -14 -6
-17 -3 -12 9 5 12 2 15 -10 10 -14 -5 -15 -4 -4 9 10 12 8 16 -15 25 -18 7
-25 15 -21 26 3 8 2 13 -3 10 -10 -7 -33 18 -25 27 3 3 -6 4 -20 3 -14 -2 -23
1 -19 6 3 6 -4 8 -18 4 -13 -3 -18 -3 -11 0 15 7 16 34 1 34 -5 0 -7 -4 -4
-10 3 -6 -1 -7 -9 -4 -9 3 -14 10 -11 14 3 4 -2 11 -11 14 -10 4 -13 2 -9 -7
4 -6 -3 -2 -14 11 -11 13 -29 24 -39 25 -13 1 -18 6 -14 17 5 13 3 13 -11 1
-15 -11 -18 -10 -27 13 -7 18 -14 24 -26 19 -12 -5 -15 -3 -9 6 6 10 3 11 -13
2 -15 -8 -23 -8 -28 1 -5 7 -3 8 6 3 8 -5 11 -4 6 3 -4 6 -13 9 -21 5 -10 -3
-15 1 -16 13 0 11 -3 14 -5 8 -7 -17 -61 -8 -85 15 -12 11 -25 18 -29 16 -4
-2 -22 0 -39 5 -30 8 -32 8 -19 -8 11 -14 9 -14 -16 2 -16 10 -25 13 -22 7 5
-8 0 -8 -16 -2 -13 4 -28 6 -35 4 -6 -2 -13 4 -16 14 -4 17 -5 17 -6 1 0 -10
-6 -18 -12 -18 -6 0 -9 7 -5 15 3 8 1 15 -4 15 -6 0 -10 -4 -10 -10 0 -5 -6
-7 -14 -4 -8 3 -17 0 -21 -6 -5 -8 -11 -7 -22 2 -16 13 -175 19 -167 7 2 -4
-3 -10 -12 -13 -21 -8 -24 -8 -24 5 0 5 5 7 12 3 7 -5 8 -3 4 5 -6 9 -13 8
-29 -6 -14 -13 -18 -14 -13 -3 4 9 2 8 -7 -2 -19 -24 -30 -23 -17 2 14 26 10
25 -19 -2z m-123 -34 c-1 -5 -9 -9 -16 -10 -10 -2 -11 1 -1 12 12 14 24 13 17
-2z m659 1 c0 -8 -4 -12 -9 -9 -5 3 -6 10 -3 15 9 13 12 11 12 -6z m-1539 -79
c-7 -8 -17 -12 -22 -9 -4 3 -2 9 5 14 22 13 31 11 17 -5z m1962 -131 c7 -9 8
-15 2 -15 -5 0 -12 7 -16 15 -3 8 -4 15 -2 15 2 0 9 -7 16 -15z m-1319 -135
c6 0 7 4 4 10 -4 6 1 7 10 3 10 -3 21 0 26 8 5 8 9 9 9 3 0 -7 7 -14 14 -17
10 -4 13 -1 10 7 -6 15 37 16 48 1 5 -6 8 -5 8 4 0 11 3 11 15 1 12 -10 18
-10 30 0 12 10 15 10 16 -1 0 -10 2 -11 6 -1 3 9 9 7 21 -6 10 -10 13 -12 8
-5 -5 8 -6 17 -2 20 4 4 11 1 16 -7 6 -9 10 -10 10 -3 0 6 9 11 19 10 11 0 17
-5 15 -9 -3 -5 -10 -5 -16 -2 -7 4 -8 2 -4 -4 4 -6 14 -8 23 -5 12 5 14 3 8
-7 -5 -9 -4 -11 4 -6 6 4 8 12 5 18 -4 6 -2 8 4 4 5 -3 12 -3 15 1 2 5 2 3 1
-4 -4 -16 13 -26 21 -13 4 7 11 7 18 2 7 -5 27 -9 46 -9 22 1 36 -5 39 -14 3
-11 2 -12 -6 0 -7 9 -12 10 -16 2 -7 -11 5 -15 32 -12 6 1 12 -4 12 -11 0 -9
3 -9 10 2 7 11 10 12 10 2 0 -8 9 -12 23 -10 25 3 61 -24 49 -38 -4 -5 2 -2
12 6 18 14 19 13 13 -4 -6 -15 -5 -17 6 -7 11 9 17 8 26 -2 6 -8 9 -16 6 -18
-2 -3 9 -4 26 -3 17 1 28 0 25 -4 -3 -3 0 -12 6 -21 8 -10 4 -9 -10 3 -12 11
-22 14 -22 9 0 -12 29 -27 46 -24 7 1 14 -8 17 -19 3 -13 10 -18 21 -14 16 6
20 -4 17 -36 -1 -9 1 -11 6 -5 9 12 45 16 38 5 -7 -11 20 -31 30 -22 4 4 2 -3
-4 -15 -10 -20 -9 -22 6 -16 13 5 15 3 10 -11 -5 -14 -3 -17 8 -13 8 4 17 1
21 -5 4 -7 3 -8 -4 -4 -7 4 -12 3 -12 -2 0 -6 6 -12 14 -15 8 -3 20 -16 26
-28 7 -12 8 -19 3 -16 -5 4 -10 0 -10 -8 0 -8 5 -13 11 -12 6 1 10 -4 9 -10
-2 -7 2 -12 9 -10 7 1 13 -5 13 -13 0 -8 6 -14 13 -13 7 2 12 -2 12 -7 0 -6
-5 -10 -12 -10 -6 0 -2 -8 8 -18 35 -32 43 -55 25 -70 -9 -8 -10 -11 -3 -7 6
3 12 1 12 -5 0 -6 4 -8 10 -5 6 4 7 -1 3 -11 -4 -11 -3 -15 5 -10 6 3 13 2 16
-3 4 -5 1 -13 -5 -17 -8 -4 -9 -3 -5 4 10 17 1 15 -14 -4 -8 -8 -9 -14 -4 -13
18 3 37 -1 31 -8 -4 -3 -1 -13 6 -21 10 -13 9 -15 -7 -8 -20 7 -20 7 0 -15 12
-14 13 -19 4 -14 -12 6 -13 5 -2 -6 15 -16 16 -33 0 -23 -7 4 -8 3 -4 -5 6 -9
11 -9 24 1 11 9 14 10 8 1 -4 -7 -2 -21 4 -32 8 -16 6 -22 -7 -30 -10 -6 -13
-11 -5 -11 7 0 11 -11 10 -29 -1 -16 4 -37 12 -47 8 -10 10 -15 3 -11 -8 5
-11 0 -10 -13 1 -11 6 -19 12 -16 6 2 11 -5 11 -15 0 -14 -3 -15 -14 -7 -10 9
-12 8 -10 -3 2 -8 10 -19 18 -26 8 -6 12 -15 7 -19 -4 -4 -7 -2 -7 4 0 7 -4
12 -9 12 -5 0 -8 -13 -7 -30 0 -16 5 -30 9 -30 5 0 7 7 3 15 -8 22 2 18 15 -6
7 -14 7 -19 0 -15 -5 4 -15 -4 -22 -16 -12 -22 -11 -22 6 -8 14 11 17 11 11 1
-5 -8 -3 -17 5 -22 11 -7 11 -9 1 -9 -7 0 -11 -4 -7 -9 3 -6 0 -13 -7 -18 -16
-10 -19 -105 -4 -115 8 -6 8 -8 0 -8 -6 0 -11 -11 -11 -25 0 -14 5 -25 11 -25
8 0 8 -3 0 -8 -12 -8 -28 -46 -16 -38 4 3 8 -6 8 -19 0 -13 -3 -22 -7 -19 -4
2 -10 -3 -13 -12 -3 -8 -2 -12 4 -9 6 3 10 -3 10 -14 0 -11 -4 -23 -10 -26 -6
-4 -7 1 -4 12 5 14 4 15 -4 4 -6 -9 -7 -23 -2 -37 6 -15 5 -26 -2 -30 -6 -4
-8 -3 -4 4 3 6 1 14 -6 18 -7 4 -10 4 -6 -1 4 -4 2 -15 -5 -23 -8 -10 -8 -13
-1 -9 22 13 23 -21 2 -35 -17 -11 -19 -16 -8 -23 9 -6 11 -4 5 5 -5 9 -4 11 4
6 8 -6 9 -12 2 -20 -6 -7 -8 -16 -4 -19 3 -4 2 -7 -4 -7 -5 0 -15 10 -22 23
l-12 22 5 -22 c2 -13 1 -23 -4 -23 -13 0 -32 28 -26 39 7 11 -22 24 -35 16 -5
-4 -6 0 -3 8 3 8 0 18 -7 23 -7 4 -10 3 -5 -4 3 -6 2 -14 -4 -17 -6 -4 -10 -3
-9 2 3 13 -13 43 -20 38 -4 -2 -8 2 -8 10 0 8 5 15 10 15 6 0 7 3 4 6 -4 4
-13 1 -22 -6 -10 -8 -15 -9 -15 -1 0 6 -6 11 -14 11 -8 0 -17 8 -21 18 -5 14
-4 15 6 5 7 -7 18 -13 23 -13 6 0 0 7 -12 16 -12 8 -27 12 -32 9 -6 -3 -10 1
-10 10 0 11 -5 15 -15 12 -8 -4 -17 -2 -20 4 -4 5 -11 6 -17 3 -7 -4 -8 -2 -4
5 6 9 11 9 22 0 18 -15 18 -2 0 17 -10 9 -17 10 -21 4 -9 -15 -25 -2 -18 16 3
8 2 14 -3 13 -25 -4 -44 3 -44 17 0 8 -4 12 -10 9 -5 -3 -10 -1 -10 5 0 6 -4
8 -10 5 -5 -3 -10 2 -10 12 0 15 -2 16 -11 3 -9 -12 -10 -10 -6 8 5 19 3 21
-9 11 -8 -7 -14 -7 -14 -1 0 5 -9 12 -20 15 -11 3 -20 13 -20 24 0 15 -2 16
-10 3 -8 -13 -10 -12 -10 3 0 10 -4 16 -9 12 -5 -3 -12 4 -16 15 -3 11 -11 20
-17 20 -6 0 -6 -6 2 -15 7 -9 10 -18 8 -21 -3 -3 -12 8 -19 25 -9 20 -16 26
-21 18 -5 -8 -8 -6 -8 6 0 14 -5 17 -22 12 -13 -4 -18 -3 -12 2 9 6 8 11 -2
21 -11 10 -14 10 -14 0 -1 -7 -7 1 -15 17 -13 27 -14 27 -10 5 3 -14 2 -19 -1
-12 -3 6 -11 9 -16 6 -6 -4 -8 -2 -5 3 4 6 -2 22 -14 34 -11 13 -18 18 -14 12
3 -7 2 -13 -4 -13 -5 0 -12 6 -14 13 -4 9 -8 9 -15 -1 -7 -11 -10 -11 -15 3
-5 10 -3 14 5 9 7 -5 8 -3 4 5 -5 7 -15 10 -23 6 -13 -4 -14 -3 -4 9 11 13 9
15 -9 11 -12 -2 -23 2 -27 10 -3 8 -12 15 -20 15 -8 0 -21 7 -30 15 -8 8 -19
13 -24 10 -5 -4 -6 1 -3 9 4 10 0 13 -13 10 -13 -4 -23 3 -32 19 -13 24 -35
28 -61 12 -11 -7 -10 -1 4 19 11 17 13 25 5 20 -21 -13 -32 -12 -60 8 -14 9
-29 15 -33 11 -3 -3 -6 -1 -6 5 0 16 12 15 30 0 12 -11 12 -10 0 5 -8 11 -21
16 -32 14 -11 -3 -18 0 -18 10 0 8 -4 11 -10 8 -5 -3 -10 -2 -10 3 0 6 -9 8
-20 5 -11 -3 -20 -1 -20 5 0 5 -13 15 -30 22 -16 7 -30 16 -30 21 0 5 -9 9
-21 9 -13 0 -18 4 -13 12 4 6 3 8 -4 5 -5 -4 -17 -4 -26 -1 -14 5 -14 9 -4 22
11 13 10 14 -9 3 -18 -9 -23 -9 -23 1 0 9 -3 9 -10 -2 -7 -11 -10 -12 -10 -2
0 7 -6 20 -14 28 -17 16 -30 19 -21 4 4 -6 -5 -5 -19 2 -27 12 -35 28 -14 28
6 0 8 3 4 7 -4 5 -14 -1 -22 -11 -14 -19 -14 -19 -15 5 0 13 -3 18 -6 10 -5
-11 -7 -11 -14 0 -8 12 -11 11 -20 -1 -8 -12 -9 -10 -4 8 6 19 3 22 -25 22
-21 0 -29 4 -24 12 5 7 2 9 -9 5 -11 -4 -14 -2 -11 7 3 8 0 17 -7 22 -7 4 -10
3 -6 -3 4 -6 -1 -14 -10 -17 -10 -4 -14 -4 -10 0 4 4 0 18 -8 31 -9 13 -11 23
-7 23 10 0 8 43 -4 61 -4 8 -3 9 4 5 13 -8 12 20 -1 42 -5 6 -4 12 0 12 11 0
10 50 0 68 -5 6 -4 12 0 12 5 0 8 24 7 53 -1 28 2 59 7 67 5 8 9 11 9 6 0 -6
7 -1 16 10 8 10 13 13 9 7 -3 -7 -1 -13 4 -13 10 0 15 14 12 33 -1 5 3 6 9 2
6 -3 7 -11 4 -17 -4 -7 -2 -8 4 -4 7 4 12 15 12 24 0 13 2 14 9 3 6 -10 13
-10 28 -2 11 5 24 7 28 3 5 -4 5 -1 1 6 -4 7 -13 9 -19 6 -7 -4 -8 -3 -4 2 5
5 23 10 40 12 18 1 39 4 48 5 9 1 16 8 15 16 -1 9 5 16 12 17 6 1 15 3 20 4 4
1 15 1 26 0 10 -1 15 3 12 8 -9 15 20 22 34 9 10 -9 11 -9 6 1 -4 6 -5 12 -2
12 2 0 12 3 22 7 13 5 15 3 9 -8 -5 -8 2 -5 15 6 13 11 20 15 17 8 -4 -6 -2
-10 5 -9 20 3 39 17 34 24 -2 4 12 6 32 6 21 -1 43 3 51 9 12 10 13 9 6 -2 -5
-10 -4 -12 4 -7 6 4 20 2 29 -5 15 -12 15 -12 0 7 -22 26 -24 41 -2 20 8 -9
20 -16 25 -16z m-3281 -94 c0 -2 -8 -10 -17 -17 -16 -13 -17 -12 -4 4 13 16
21 21 21 13z m1142 -91 c-3 -5 1 -4 10 3 12 10 18 10 23 1 6 -8 10 -7 16 2 8
12 10 12 18 0 6 -10 10 -10 16 -1 6 9 10 9 16 -1 7 -12 9 -12 9 0 0 11 3 11
17 0 9 -8 14 -9 10 -3 -8 14 47 13 60 0 5 -5 2 -6 -6 -1 -9 5 -12 4 -8 -3 8
-11 25 -11 44 1 6 4 15 2 19 -4 5 -8 3 -9 -7 -4 -8 5 -11 4 -6 0 4 -5 16 -9
27 -10 15 -1 17 2 9 11 -7 8 -6 14 2 20 8 4 9 3 5 -4 -4 -7 -2 -12 3 -12 6 0
11 -8 12 -17 0 -15 2 -15 9 2 5 11 9 15 9 8 1 -7 8 -10 18 -6 11 4 14 3 9 -5
-4 -7 -2 -12 3 -12 6 0 11 4 11 9 0 10 19 9 38 -2 6 -5 18 -5 25 -2 6 4 3 -1
-7 -9 -23 -18 -14 -21 15 -6 15 8 21 7 25 -3 3 -9 16 -13 34 -11 16 2 32 -1
35 -6 3 -5 12 -7 19 -4 9 3 17 -3 21 -15 3 -12 11 -19 16 -15 6 3 20 -2 31
-13 12 -10 18 -12 14 -5 -4 6 -2 12 3 12 6 0 11 -5 11 -10 0 -6 6 -9 13 -8 6
2 11 -2 10 -7 -1 -6 10 -12 25 -13 14 -1 29 -8 34 -15 6 -9 8 -9 8 1 0 10 4 9
16 -3 9 -9 22 -14 29 -11 14 5 15 -11 2 -32 -5 -7 -13 -9 -19 -6 -8 5 -9 1 -4
-11 5 -15 4 -16 -9 -5 -12 10 -15 9 -15 -6 0 -16 -2 -17 -10 -4 -6 9 -10 10
-10 3 0 -6 -9 -15 -20 -18 -11 -4 -17 -11 -14 -17 5 -7 1 -9 -9 -5 -11 4 -23
-3 -37 -20 -11 -14 -20 -22 -20 -17 0 5 -10 -2 -23 -16 -12 -14 -19 -21 -15
-15 5 7 2 12 -6 12 -9 0 -13 -9 -11 -24 2 -19 0 -21 -11 -12 -10 8 -14 8 -14
0 0 -6 -5 -10 -11 -9 -6 2 -14 -3 -17 -11 -3 -9 0 -11 8 -6 8 5 11 4 6 -3 -4
-6 -13 -9 -20 -6 -7 3 -16 -2 -19 -10 -4 -9 -15 -16 -26 -16 -11 0 -23 -5 -26
-10 -4 -6 -11 -7 -17 -4 -7 4 -8 2 -4 -5 4 -6 12 -8 18 -5 7 5 8 2 3 -5 -4 -7
-18 -11 -31 -8 -21 4 -22 2 -12 -17 6 -12 7 -18 3 -13 -5 4 -18 -1 -29 -10
-20 -17 -20 -17 -7 0 12 15 12 17 -3 11 -9 -3 -16 -12 -16 -20 0 -8 -5 -14
-11 -14 -5 0 -7 -4 -4 -10 3 -5 1 -10 -4 -10 -6 0 -11 5 -11 11 0 5 -5 7 -10
4 -6 -4 -8 -11 -5 -16 4 -5 1 -9 -5 -9 -6 0 -8 -5 -4 -12 5 -9 2 -8 -9 1 -15
12 -17 12 -11 -3 5 -12 0 -16 -17 -16 -19 0 -21 -2 -9 -10 13 -8 12 -10 -5
-11 -11 -1 -24 -1 -29 0 -5 1 -4 -4 3 -13 8 -10 9 -16 1 -21 -5 -3 -10 0 -10
7 0 10 -2 10 -9 -1 -5 -7 -14 -11 -20 -7 -7 4 -9 1 -5 -7 3 -9 -4 -22 -16 -30
-13 -9 -19 -20 -15 -27 6 -9 2 -9 -14 -1 -18 10 -23 9 -30 -11 -5 -13 -7 -26
-5 -30 2 -3 -6 -4 -18 0 -14 3 -19 2 -14 -6 4 -7 2 -12 -4 -12 -6 0 -8 -5 -4
-12 6 -10 4 -10 -8 0 -13 10 -18 10 -24 1 -4 -8 -3 -9 4 -5 7 4 12 3 12 -2 0
-6 -7 -13 -16 -16 -9 -3 -12 -11 -8 -18 6 -10 5 -10 -8 0 -13 10 -18 9 -29 -5
-13 -17 -13 -17 6 -3 18 14 19 13 8 -1 -7 -9 -10 -19 -6 -23 4 -4 1 -4 -8 -1
-8 3 -23 -2 -34 -11 -11 -8 -14 -12 -6 -8 9 5 12 3 7 -4 -4 -7 -14 -12 -22
-12 -8 0 -12 -4 -9 -10 6 -9 -8 -14 -28 -11 -5 1 -6 -3 -2 -9 3 -5 1 -10 -5
-10 -6 0 -9 -4 -6 -9 3 -5 -3 -11 -14 -14 -11 -3 -20 -12 -20 -20 0 -8 -10
-17 -22 -21 -19 -5 -21 -8 -8 -16 12 -8 11 -10 -7 -10 -14 0 -23 -6 -23 -16 0
-9 -5 -12 -12 -8 -9 6 -9 3 0 -9 12 -14 11 -16 -6 -12 -16 3 -20 -1 -17 -16 2
-11 0 -17 -6 -14 -5 4 -9 1 -9 -4 0 -6 -4 -11 -10 -11 -5 0 -7 8 -4 18 5 13 4
14 -4 3 -5 -8 -9 -24 -7 -37 1 -13 -1 -23 -4 -22 -20 2 -31 -3 -26 -12 3 -6
-4 -10 -17 -10 -18 0 -20 -2 -8 -10 14 -9 7 -15 -14 -11 -5 1 -6 -5 -3 -13 4
-9 1 -18 -5 -22 -6 -4 -8 -3 -5 3 3 5 0 10 -8 10 -8 0 -12 -4 -9 -8 8 -13 -15
-49 -31 -49 -8 0 -15 -5 -15 -11 0 -5 6 -7 13 -4 6 4 4 0 -5 -8 -10 -8 -14
-18 -10 -22 4 -5 1 -4 -7 0 -11 6 -13 4 -8 -8 4 -11 2 -14 -7 -11 -7 3 -19 -3
-27 -12 -12 -16 -12 -17 1 -10 8 4 6 0 -4 -8 -18 -14 -21 -14 -40 2 -21 17
-21 17 -3 -5 11 -12 16 -26 13 -31 -8 -14 -39 -8 -42 7 -1 6 0 7 3 1 2 -5 9
-8 14 -4 5 3 3 14 -5 26 -8 11 -12 27 -9 34 3 8 -1 22 -8 31 -8 9 -9 14 -4 11
6 -4 11 2 11 12 0 10 -4 17 -7 14 -4 -2 -10 0 -13 5 -3 5 2 12 12 16 16 6 15
8 -4 24 -13 10 -20 25 -17 39 1 13 -1 21 -6 18 -4 -3 -6 11 -4 30 2 20 -2 43
-9 52 -10 12 -10 14 0 8 16 -9 16 6 -1 23 -9 11 -9 13 1 7 6 -4 12 -2 12 3 0
6 -6 11 -12 11 -9 0 -8 4 2 10 10 6 11 10 3 10 -7 0 -13 5 -13 11 0 5 4 8 8 5
4 -2 8 8 7 24 0 15 -3 26 -7 23 -5 -2 -8 4 -9 14 -1 10 -2 34 -3 54 -2 25 2
35 9 33 6 -3 12 2 12 10 0 8 -4 13 -8 11 -12 -8 -20 28 -9 39 8 8 9 6 5 -6 -4
-10 -3 -18 2 -18 13 0 12 33 -1 42 -7 5 -6 8 4 8 13 0 13 1 0 10 -13 9 -13 10
0 10 13 0 13 1 0 10 -13 9 -13 10 0 10 13 0 13 1 0 10 -10 6 -11 10 -2 10 6 0
12 11 12 24 0 35 10 57 23 49 6 -3 7 -1 3 6 -6 9 -11 9 -22 0 -23 -19 -16 -2
9 22 12 12 16 19 10 15 -7 -4 -13 -2 -13 3 0 6 5 11 10 11 6 0 10 5 10 11 0 5
-6 7 -12 4 -7 -4 -4 1 6 9 15 12 16 16 5 16 -12 0 -12 2 1 10 8 5 11 10 5 10
-5 0 -1 8 10 16 19 16 19 16 -5 9 -15 -4 -20 -3 -13 2 7 5 11 19 9 30 -4 17
-1 20 12 16 10 -4 12 -8 4 -11 -7 -2 -9 -8 -6 -14 12 -18 23 14 13 39 -4 12
-5 22 -1 22 19 -3 25 2 12 11 -13 8 -13 10 2 10 10 0 22 10 28 23 11 21 10 21
-4 3 -9 -11 -18 -17 -22 -14 -3 4 4 16 15 27 13 13 18 27 14 38 -5 15 -3 15
10 -2 16 -20 16 -19 10 4 -4 17 -3 22 5 17 7 -4 12 0 12 10 0 21 28 54 46 54
7 0 11 6 8 14 -3 8 0 17 7 22 8 5 10 3 4 -6 -5 -9 -4 -11 4 -6 7 4 9 17 6 29
-5 16 -4 18 3 8 8 -11 13 -10 28 8 10 11 26 21 35 21 9 0 23 8 30 18 11 14 11
15 -1 5 -8 -7 -18 -13 -24 -13 -5 0 -1 6 10 14 15 11 22 12 33 3 12 -10 13 -9
6 2 -6 11 -3 13 12 9 16 -4 19 -1 17 18 -1 13 2 22 7 18 5 -3 6 -11 2 -17 -3
-7 4 -3 17 8 13 11 21 15 17 9 -3 -6 0 -11 7 -11 8 0 11 8 8 19 -5 19 14 26
20 7 2 -5 11 -7 21 -4 9 4 14 12 10 19 -4 6 1 5 10 -3 10 -8 17 -9 17 -3 0 6
13 9 29 7 24 -3 29 0 24 13 -6 15 -4 15 9 4 13 -10 18 -10 24 -1 5 8 3 9 -6 4
-7 -5 -11 -4 -7 1 3 5 19 9 35 9 19 1 28 -3 24 -10z m628 -89 c0 -2 -7 -7 -16
-10 -8 -3 -12 -2 -9 4 6 10 25 14 25 6z m60 -36 c0 -5 -5 -10 -11 -10 -5 0 -7
5 -4 10 3 6 8 10 11 10 2 0 4 -4 4 -10z m-1933 -115 c0 -8 -4 -12 -9 -9 -4 3
-8 9 -8 15 0 5 4 9 8 9 5 0 9 -7 9 -15z m1899 -47 c4 -7 4 -10 -1 -6 -4 4 -15
2 -24 -5 -14 -11 -14 -10 -2 6 16 20 18 21 27 5z m350 -45 c-4 -4 -12 -1 -19
7 -9 10 -9 11 1 6 7 -4 12 -2 13 6 0 11 2 11 6 0 3 -7 2 -16 -1 -19z m-16 -8
c25 -13 28 -19 21 -38 -6 -14 -5 -30 0 -38 5 -8 9 -18 9 -24 0 -5 -5 -3 -10 5
-7 11 -9 7 -7 -15 1 -16 7 -33 12 -37 6 -5 5 -8 -3 -8 -9 0 -10 -5 -4 -16 5
-9 6 -34 2 -56 -7 -34 -5 -38 9 -34 14 5 14 4 -1 -7 -13 -11 -15 -16 -6 -25 9
-9 9 -12 -1 -12 -7 0 -10 -4 -7 -8 10 -16 15 -62 6 -57 -10 6 -6 -48 5 -65 3
-5 3 -10 -2 -10 -7 0 -9 -54 -3 -70 6 -15 4 -36 -5 -42 -6 -5 -5 -8 3 -8 10 0
10 -5 1 -21 -8 -15 -8 -19 0 -15 6 4 11 0 11 -9 0 -10 -5 -13 -12 -9 -7 4 -4
-3 6 -15 17 -19 17 -21 3 -15 -14 5 -16 2 -8 -17 4 -13 5 -36 0 -51 -6 -22 -4
-28 7 -28 8 0 12 -5 9 -10 -4 -6 -12 -7 -18 -3 -7 4 -5 -1 3 -12 15 -18 22
-77 8 -68 -5 2 -8 -13 -8 -34 0 -26 3 -34 9 -24 7 10 9 7 8 -12 -2 -18 -5 -23
-14 -16 -8 7 -10 5 -6 -10 3 -12 10 -18 17 -14 6 3 6 0 -1 -8 -7 -7 -13 -17
-13 -22 0 -4 6 -5 13 -1 9 6 9 4 1 -7 -17 -22 -26 -51 -13 -43 8 4 9 -1 4 -16
-6 -17 -4 -21 6 -15 8 5 6 -1 -4 -12 -14 -16 -15 -23 -6 -29 8 -4 10 -3 5 4
-4 7 -2 12 3 12 13 0 13 -3 5 -24 -3 -9 -10 -13 -15 -10 -5 3 -6 -2 -3 -11 5
-13 9 -13 22 -3 13 12 14 11 2 -9 -8 -12 -17 -20 -21 -17 -4 2 -5 -5 -2 -17 3
-11 15 -25 27 -30 18 -8 16 -9 -9 -5 -28 4 -28 3 -10 -10 19 -14 19 -14 -1
-15 -15 -1 -16 -2 -2 -6 15 -4 22 -43 7 -43 -4 0 -9 -9 -12 -20 -3 -10 -2 -19
2 -18 3 0 13 0 21 -1 12 -1 11 -4 -3 -12 -9 -6 -14 -15 -11 -21 4 -6 0 -15 -7
-20 -10 -7 -7 -8 11 -5 21 5 22 4 8 -6 -15 -10 -15 -12 0 -25 14 -11 14 -13 2
-9 -11 3 -16 -3 -17 -22 -2 -23 -1 -24 7 -6 9 20 9 20 9 0 1 -12 -5 -27 -11
-34 -8 -9 -8 -11 -2 -8 7 4 15 0 18 -9 3 -8 2 -13 -3 -10 -13 9 -19 -14 -15
-62 2 -26 -1 -42 -8 -42 -6 0 -8 -3 -5 -7 4 -3 17 2 29 13 13 11 18 12 11 3
-7 -8 -11 -25 -8 -37 2 -12 -1 -22 -7 -22 -5 0 -7 8 -4 17 4 10 3 14 -1 9 -10
-10 -12 -66 -2 -60 4 2 11 -1 15 -7 4 -7 3 -9 -2 -6 -6 3 -16 2 -24 -4 -12 -7
-12 -9 3 -9 11 0 17 -5 14 -12 -2 -7 -10 -12 -16 -10 -7 1 -10 -2 -6 -8 3 -6
11 -8 16 -5 5 4 5 -4 -1 -19 -5 -14 -7 -26 -4 -26 4 0 0 -8 -7 -17 -12 -14
-12 -15 0 -9 10 7 12 3 6 -14 -4 -13 -3 -20 2 -17 5 4 10 -1 10 -9 0 -8 -5
-13 -12 -10 -7 2 -10 -6 -7 -25 2 -16 7 -27 11 -25 4 3 7 -4 8 -14 1 -11 -2
-22 -8 -25 -5 -3 -6 1 -3 9 3 9 2 16 -2 16 -5 0 -9 -54 -9 -120 0 -66 4 -120
8 -120 5 0 5 5 1 12 -5 7 -3 8 6 3 10 -6 10 -10 -3 -20 -9 -6 -12 -16 -8 -24
5 -7 5 -30 1 -51 -4 -21 -3 -46 3 -55 7 -13 6 -16 -3 -10 -9 6 -9 3 -1 -14 7
-11 8 -21 4 -21 -4 0 -8 -16 -9 -35 0 -18 2 -32 5 -30 3 1 6 -8 6 -21 0 -13
-3 -24 -7 -24 -4 0 -5 -19 -2 -42 3 -24 6 -52 7 -63 2 -11 0 -34 -4 -52 -4
-18 -2 -36 4 -42 8 -8 7 -11 -2 -11 -11 0 -11 -3 -1 -15 8 -10 9 -15 2 -15
-12 0 -10 -59 2 -79 4 -6 2 -11 -3 -11 -6 0 -11 -5 -11 -11 0 -5 4 -7 10 -4 6
4 7 -2 1 -18 -6 -16 -6 -28 2 -36 8 -8 8 -11 -1 -11 -7 0 -12 -5 -12 -11 0 -5
4 -8 8 -5 9 5 8 -41 -1 -51 -4 -3 -1 -13 6 -21 10 -13 9 -15 -7 -9 -14 6 -16
4 -9 -5 6 -7 10 -20 10 -28 0 -19 -37 -21 -37 -3 0 7 -5 13 -11 13 -5 0 -7 6
-3 13 5 8 2 8 -9 -2 -11 -9 -17 -10 -17 -2 0 6 -9 11 -20 11 -18 0 -25 11 -21
33 1 5 -3 6 -9 2 -6 -3 -7 -12 -3 -18 5 -8 2 -8 -9 0 -8 7 -19 9 -23 5 -5 -4
-6 -2 -2 3 3 6 2 17 -4 25 -7 13 -9 12 -9 -2 0 -10 -4 -18 -10 -18 -5 0 -6 8
-3 17 5 13 2 15 -11 10 -11 -5 -15 -3 -10 5 5 8 2 9 -11 4 -16 -6 -16 -4 -4
11 9 11 10 14 2 9 -8 -4 -13 -2 -13 4 0 8 -10 10 -27 6 -20 -5 -24 -4 -13 3
12 9 12 11 -3 17 -9 3 -14 11 -10 17 3 6 1 7 -6 3 -6 -4 -9 -12 -6 -17 4 -5 1
-9 -6 -9 -7 0 -9 9 -6 23 6 22 6 22 -10 2 -15 -19 -15 -19 -11 8 4 22 3 25 -8
16 -11 -9 -14 -8 -14 6 0 14 -3 15 -14 6 -12 -10 -13 -8 -9 8 3 12 1 21 -6 21
-6 0 -10 -3 -9 -7 2 -5 -1 -9 -7 -10 -5 -2 -11 2 -11 7 -1 6 -2 15 -3 20 0 6
-6 10 -12 10 -5 0 -7 -5 -3 -12 4 -7 3 -8 -4 -4 -6 4 -9 13 -5 22 3 9 0 14 -8
12 -8 -2 -13 3 -11 11 3 12 0 12 -13 1 -13 -11 -15 -10 -9 4 5 12 2 15 -11 10
-14 -6 -16 -3 -10 17 7 24 7 24 -10 4 -9 -11 -13 -14 -9 -6 5 10 3 13 -7 9 -9
-3 -26 5 -40 20 -23 24 -23 25 -1 13 12 -6 22 -17 22 -23 0 -6 3 -8 7 -5 9 9
-27 47 -44 47 -8 0 -12 4 -9 9 3 5 -1 12 -10 15 -10 4 -13 2 -8 -6 4 -7 3 -8
-4 -4 -6 4 -19 22 -28 41 -9 19 -20 32 -25 29 -5 -3 -9 0 -9 5 0 6 -5 11 -11
11 -5 0 -7 -6 -3 -13 4 -7 3 -9 -2 -4 -5 5 -9 12 -10 15 -3 28 -18 42 -38 36
-21 -6 -21 -6 -1 10 14 11 15 15 5 14 -8 -2 -14 3 -12 11 2 8 -3 11 -13 8 -9
-4 -15 -1 -15 9 0 12 -6 15 -21 11 -20 -5 -20 -5 -4 13 16 18 16 18 -4 13 -16
-4 -20 -2 -16 10 4 9 -4 23 -19 34 -14 11 -22 24 -18 29 4 5 -1 2 -11 -5 -15
-12 -17 -12 -11 2 5 15 -20 52 -35 52 -3 0 -7 5 -7 10 -1 6 -2 14 -3 19 0 5
-8 3 -16 -4 -13 -11 -14 -10 -9 5 5 13 4 16 -4 11 -8 -5 -10 -1 -5 10 5 13 3
16 -10 11 -11 -4 -14 -2 -10 8 3 8 10 12 16 8 6 -3 7 -1 3 6 -6 9 -11 9 -24
-1 -12 -10 -14 -10 -8 0 5 8 1 12 -11 13 -10 0 -13 3 -5 6 6 2 12 9 12 15 0 6
-7 7 -16 4 -8 -3 -12 -2 -9 4 3 6 0 10 -7 10 -9 0 -9 3 2 10 13 8 12 10 -4 10
-11 0 -16 3 -13 6 4 4 -8 20 -26 37 -17 16 -25 25 -15 18 13 -9 18 -9 24 0 4
7 3 10 -2 6 -15 -9 -47 20 -38 34 5 8 2 11 -8 6 -19 -7 -30 2 -21 17 11 17 12
36 3 33 -5 -1 -16 7 -25 18 -17 21 -10 2 9 -25 6 -9 1 -5 -12 10 -12 14 -29
32 -37 41 -11 12 -12 18 -3 27 9 9 8 12 -5 12 -9 0 -17 5 -17 11 0 5 -6 7 -12
3 -9 -5 -9 -2 1 9 9 11 10 17 2 17 -6 0 -10 3 -10 8 4 21 -2 32 -13 26 -8 -5
-9 -2 -5 9 4 12 1 17 -11 17 -15 0 -15 2 -2 10 12 8 10 10 -8 10 -21 0 -22 1
-8 16 22 21 20 27 -5 14 -19 -11 -20 -10 -10 9 10 17 9 20 -4 15 -9 -4 -15 -3
-14 2 4 25 -2 36 -18 30 -16 -5 -16 -5 0 8 18 14 18 14 -2 21 -12 4 -21 15
-21 27 0 15 -4 18 -17 14 -14 -6 -14 -3 3 15 10 12 13 19 7 15 -8 -4 -13 -2
-13 5 0 8 -5 7 -17 -2 -15 -13 -15 -12 -4 9 11 20 8 26 -11 23 -5 0 -8 3 -8 9
0 5 8 10 18 10 16 1 16 1 -1 11 -15 9 -16 13 -5 27 10 12 10 14 1 8 -7 -4 -13
-2 -13 3 0 6 8 11 18 11 14 0 15 2 2 10 -13 8 -13 11 -1 22 10 10 12 10 7 1
-11 -19 -3 -15 17 8 18 20 18 21 -5 14 -22 -7 -22 -6 -4 7 10 8 16 20 12 26
-4 7 -1 12 9 12 9 0 13 -4 10 -10 -3 -6 1 -7 10 -4 14 6 14 8 -2 20 -16 12
-17 13 -1 14 9 0 20 5 24 12 4 7 3 8 -4 4 -7 -4 -12 -3 -12 3 0 5 9 13 21 16
11 4 18 9 15 12 -3 4 -2 11 2 18 4 6 -1 2 -10 -8 -10 -11 -18 -15 -18 -9 0 5
7 15 15 22 8 7 12 16 9 21 -3 5 1 6 9 3 8 -3 20 2 27 11 7 9 8 15 2 15 -6 0
-13 -6 -15 -12 -4 -10 -6 -10 -6 0 -1 7 8 20 18 29 11 9 17 23 13 31 -4 11 -2
13 8 7 10 -6 12 -4 7 8 -3 10 -2 17 2 17 5 0 11 -6 14 -12 3 -7 4 -3 4 9 -1
12 -5 19 -10 16 -5 -3 -3 4 5 16 7 12 19 21 27 21 11 0 11 3 0 18 -7 9 -9 14
-5 10 5 -4 15 0 23 10 8 9 11 11 7 3 -5 -10 -3 -12 5 -7 9 6 9 11 -1 24 -10
12 -10 14 0 8 6 -4 13 -2 13 3 1 6 2 16 3 22 0 6 9 16 18 23 10 7 14 17 10 22
-4 4 2 2 12 -6 18 -14 19 -14 8 6 -9 17 -9 24 2 33 7 6 16 8 19 4 4 -3 7 1 7
10 0 10 4 17 10 17 5 0 7 7 3 15 -3 9 -2 15 3 14 23 -4 33 2 27 17 -4 10 2 17
16 21 12 3 20 11 17 18 -2 7 4 22 15 34 29 31 36 26 8 -6 l-24 -28 27 24 c15
13 25 31 23 41 -2 13 1 17 10 14 7 -3 16 0 21 7 5 8 3 10 -7 5 -8 -4 -6 -1 3
7 14 11 15 16 5 27 -10 10 -8 10 12 0 15 -8 21 -8 17 -1 -4 6 -1 11 6 11 10 0
9 3 -1 9 -12 8 -9 11 13 17 17 4 23 9 16 14 -8 5 -7 9 5 14 9 3 13 11 10 16
-8 13 17 8 28 -5 4 -5 5 4 1 20 -4 20 -3 26 4 17 7 -11 11 -9 15 8 4 15 10 19
19 14 10 -6 9 -3 -1 10 -12 15 -12 17 0 14 8 -2 18 -7 22 -13 5 -5 5 0 2 13
-5 18 -2 25 14 29 12 3 22 9 22 14 1 5 2 13 3 18 0 5 5 13 10 18 5 5 6 2 2 -7
-4 -8 0 -6 8 4 9 11 16 16 17 10 0 -5 5 2 10 15 5 14 15 21 23 18 10 -4 13 0
11 14 -3 15 -1 18 8 11 8 -6 18 -3 30 10 19 20 9 25 -12 6 -11 -11 -12 -10 -6
0 4 7 18 17 32 23 16 6 22 13 17 21 -5 9 -2 8 9 -1 15 -12 17 -12 11 3 -4 11
-2 16 7 14 8 -2 13 2 12 7 0 6 6 17 15 25 14 13 15 12 9 -2 -4 -12 -2 -15 9
-11 8 3 13 12 10 19 -3 8 1 15 9 15 30 3 34 4 47 19 11 12 11 12 -3 2 -13 -10
-18 -10 -22 1 -4 10 3 13 24 12 25 -2 27 0 16 14 -8 10 -8 13 0 8 16 -10 43 2
43 20 0 9 6 13 15 10 8 -4 17 -1 21 5 4 6 3 8 -3 5 -5 -3 -10 0 -10 8 0 8 4
12 8 10 13 -9 39 7 32 19 -4 6 1 5 10 -3 15 -12 17 -12 11 3 -3 9 -2 16 4 16
6 0 13 -6 15 -12 3 -7 6 -3 6 10 1 12 6 22 12 22 5 0 7 -5 3 -12 -5 -7 -3 -8
5 -4 7 5 10 15 7 23 -3 8 -2 11 3 8 6 -3 14 3 20 12 6 10 11 13 11 8 0 -6 -6
-17 -12 -25 -11 -12 -10 -12 3 -2 9 6 19 8 23 4 4 -4 7 -2 6 3 -5 24 1 34 20
30 11 -2 23 1 26 7 5 7 2 8 -7 3 -12 -8 -12 -6 0 8 13 16 14 16 28 0 8 -10 11
-12 7 -4 -4 8 4 22 22 37 35 28 29 27 64 9z m-369 -208 c-10 -9 -11 -8 -5 6 3
10 9 15 12 12 3 -3 0 -11 -7 -18z m991 -60 c5 3 12 -4 15 -16 3 -11 9 -18 14
-15 5 3 9 -1 9 -8 0 -9 3 -9 10 2 9 13 10 13 11 0 1 -8 1 -19 0 -23 -1 -5 3
-6 8 -3 5 4 13 2 16 -4 5 -8 11 -7 21 1 11 9 14 9 14 0 0 -7 5 -9 13 -5 7 5 6
0 -3 -11 -9 -11 -10 -16 -2 -11 6 4 12 3 12 -3 0 -6 7 -7 17 -4 12 5 14 3 8
-8 -7 -11 -5 -11 10 1 17 14 18 13 12 -3 -5 -13 -3 -17 5 -14 7 2 19 -3 26
-12 8 -9 11 -10 7 -4 -4 9 -1 11 10 7 10 -4 14 -13 10 -22 -3 -9 -3 -13 1 -9
4 4 14 1 22 -6 13 -9 14 -9 8 1 -4 7 -1 12 8 12 9 0 15 -6 14 -12 -2 -7 3 -12
10 -10 8 1 11 -2 7 -8 -5 -9 22 -15 48 -11 4 0 6 -2 5 -6 -3 -9 38 -53 50 -53
4 0 16 -7 27 -16 17 -13 18 -16 5 -25 -12 -8 -10 -9 7 -4 22 6 63 -12 63 -29
0 -4 -6 -3 -14 3 -11 9 -16 9 -22 -1 -4 -7 -3 -10 1 -5 5 4 17 -1 28 -10 11
-10 17 -12 13 -5 -9 15 -4 15 29 0 14 -6 25 -17 25 -24 0 -8 6 -11 16 -7 10 4
17 -1 21 -16 3 -11 11 -21 18 -21 8 0 17 -9 20 -20 3 -11 11 -20 16 -20 16 0
39 -27 31 -36 -4 -5 1 -2 11 5 15 12 17 12 11 -4 -6 -14 -4 -16 6 -10 10 6 12
4 7 -7 -4 -12 0 -14 16 -10 20 5 21 4 8 -11 -12 -15 -12 -17 3 -11 9 3 16 1
16 -6 0 -6 5 -8 10 -5 6 3 10 1 10 -4 0 -6 -5 -11 -12 -11 -6 0 -8 -3 -5 -6 4
-4 14 -1 22 6 9 7 15 9 14 4 -1 -5 -1 -16 0 -24 1 -13 2 -13 11 0 8 12 10 11
10 -7 0 -21 16 -28 51 -25 3 1 6 -6 6 -13 0 -12 -4 -12 -16 -3 -15 11 -15 10
0 -6 9 -9 25 -18 37 -19 11 0 19 -4 16 -8 -2 -4 -1 -9 3 -12 5 -2 2 -2 -4 -1
-7 2 -13 -1 -13 -6 0 -6 9 -10 20 -10 11 0 20 -5 20 -11 0 -5 -5 -7 -12 -3 -7
4 -8 3 -4 -4 4 -6 14 -8 23 -5 12 5 15 2 10 -10 -3 -9 -1 -19 5 -23 7 -4 8 -3
4 4 -4 7 -2 12 3 12 6 0 11 -9 11 -20 0 -14 7 -20 21 -20 16 0 20 -5 16 -20
-3 -13 -1 -18 6 -13 7 4 8 0 3 -12 -5 -15 -4 -16 9 -5 13 11 14 10 10 -3 -4
-8 -1 -18 6 -23 8 -5 10 -3 4 6 -5 9 -4 11 3 6 7 -4 12 -13 12 -21 0 -7 7 -15
15 -19 8 -3 15 -12 15 -21 0 -8 5 -15 11 -15 5 0 7 5 3 12 -4 7 -3 8 4 4 6 -4
9 -12 6 -19 -2 -7 5 -19 17 -27 36 -26 62 -50 54 -50 -5 0 -17 8 -27 17 -17
15 -18 15 -13 1 4 -9 13 -19 21 -22 9 -3 13 -10 9 -15 -3 -6 6 -18 20 -27 14
-9 25 -22 24 -28 -3 -19 13 -46 23 -40 5 3 1 12 -9 20 -10 7 -13 14 -7 14 18
0 30 -22 28 -52 0 -15 3 -25 8 -22 4 3 5 10 2 16 -5 7 -2 8 5 4 7 -5 10 -14 7
-22 -3 -8 -1 -14 4 -14 6 0 10 -8 10 -17 0 -14 2 -15 9 -4 6 9 10 2 13 -23 3
-26 -1 -42 -14 -56 -10 -10 -18 -27 -18 -37 0 -15 -2 -16 -10 -3 -8 13 -10 12
-10 -3 0 -12 -4 -16 -12 -11 -9 5 -8 2 1 -9 12 -16 12 -17 -5 -10 -17 6 -18 5
-4 -12 8 -10 10 -16 5 -13 -6 4 -17 3 -25 -3 -11 -6 -12 -9 -2 -9 7 0 10 -5 7
-11 -4 -6 -13 -8 -21 -5 -18 7 -18 1 1 -17 13 -13 13 -16 -1 -21 -8 -3 -12 -2
-9 3 3 5 2 12 -3 15 -8 5 -10 -1 -14 -43 -1 -11 -6 -18 -10 -15 -4 2 -15 -13
-24 -33 -10 -21 -27 -46 -38 -56 -12 -10 -15 -16 -8 -12 11 6 12 3 3 -14 -7
-11 -14 -21 -17 -21 -3 0 -3 4 0 8 3 5 -1 9 -9 9 -10 0 -11 -6 -5 -23 8 -19 6
-21 -13 -16 -12 3 -18 1 -14 -4 4 -4 -3 -14 -15 -22 -13 -7 -16 -11 -7 -9 9 3
16 -1 16 -8 0 -7 -7 -12 -16 -11 -8 0 -21 -11 -29 -26 -7 -16 -20 -28 -28 -28
-7 0 -14 -5 -14 -11 0 -5 5 -7 12 -3 7 5 8 3 4 -5 -5 -7 -14 -10 -21 -7 -7 2
-16 -1 -19 -9 -3 -10 0 -12 11 -8 11 4 14 2 9 -5 -4 -7 -16 -12 -26 -12 -14 0
-18 -5 -13 -17 4 -11 3 -14 -5 -9 -7 4 -12 1 -12 -8 0 -8 -5 -18 -12 -22 -7
-5 -9 -2 -4 7 4 8 0 5 -8 -5 -9 -11 -16 -23 -16 -28 0 -4 -7 -8 -15 -8 -8 0
-15 -5 -15 -11 0 -5 6 -7 13 -3 7 4 9 3 4 -2 -5 -5 -13 -10 -18 -10 -5 -1 -13
-2 -19 -3 -5 0 -7 -7 -4 -15 3 -9 -1 -13 -13 -13 -12 2 -17 -4 -15 -17 2 -11
-1 -15 -7 -11 -6 3 -11 1 -11 -6 0 -9 -3 -9 -14 0 -12 10 -13 8 -9 -10 4 -13
2 -20 -3 -16 -6 3 -16 2 -24 -4 -13 -7 -13 -9 0 -9 12 -1 11 -3 -3 -11 -9 -6
-15 -14 -12 -18 2 -5 -7 -7 -20 -5 -14 1 -23 -2 -19 -7 3 -5 11 -6 17 -2 7 4
7 1 -1 -9 -8 -9 -19 -15 -27 -12 -7 3 -16 0 -21 -7 -5 -8 -3 -10 7 -5 8 4 3
-2 -10 -13 -12 -12 -27 -18 -32 -15 -5 3 -9 0 -9 -5 0 -6 5 -11 11 -11 5 0 7
-5 4 -10 -4 -6 -11 -8 -16 -5 -5 4 -9 1 -9 -5 0 -6 -4 -8 -10 -5 -14 9 -12 -8
3 -25 6 -8 1 -6 -12 5 -14 11 -21 15 -18 8 4 -6 3 -14 -3 -18 -6 -4 -8 -10 -5
-15 3 -4 -3 -7 -12 -6 -10 2 -24 -4 -31 -13 -11 -12 -12 -13 -6 -1 6 12 5 13
-7 2 -12 -11 -12 -14 1 -22 9 -6 10 -10 3 -10 -6 0 -15 5 -19 12 -5 7 -10 4
-16 -11 -5 -16 -13 -21 -24 -17 -15 6 -15 4 -3 -11 8 -9 9 -14 2 -10 -7 4 -17
0 -23 -10 -9 -15 -10 -14 -4 7 6 24 5 24 -9 5 -8 -10 -12 -26 -10 -35 4 -9 0
-8 -11 5 -9 11 -16 16 -15 10 5 -40 -14 -57 -33 -30 -7 8 -12 -15 -10 -36 1
-4 -8 -4 -20 -1 -17 4 -20 2 -15 -11 4 -12 2 -14 -10 -10 -10 4 -23 -3 -35
-18 -11 -13 -17 -17 -13 -9 4 10 1 9 -8 -2 -8 -10 -25 -18 -38 -18 -20 0 -21
-2 -9 -11 12 -9 10 -10 -8 -6 -20 5 -21 3 -10 -11 11 -13 11 -15 -4 -9 -10 3
-30 0 -45 -8 -15 -8 -21 -15 -13 -15 8 0 4 -6 -10 -14 -18 -9 -29 -10 -39 -2
-12 9 -12 7 -2 -12 12 -22 11 -23 -8 -12 -15 8 -21 8 -21 0 0 -6 -6 -8 -12 -4
-8 5 -7 0 2 -11 8 -10 10 -16 3 -12 -7 4 -17 0 -23 -10 -9 -13 -10 -14 -7 -2
3 9 -1 16 -8 16 -7 0 -11 -7 -8 -16 3 -11 1 -10 -7 2 -15 23 -20 67 -9 67 5 0
9 5 9 11 0 5 -3 8 -7 6 -5 -3 -8 12 -8 33 0 21 3 36 7 34 8 -5 3 50 -6 65 -4
5 0 12 6 15 10 5 10 7 0 12 -10 5 -10 9 -1 20 9 11 9 18 -1 29 -10 12 -10 15
0 15 9 0 7 7 -6 22 -16 18 -16 20 -2 15 14 -5 15 -1 8 24 -6 20 -5 29 3 30 9
0 8 2 0 6 -7 2 -13 9 -13 14 0 6 5 7 11 3 8 -4 8 0 0 15 -9 15 -9 21 -1 21 6
0 4 8 -5 17 -16 16 -16 17 -1 29 11 8 13 14 7 19 -6 3 -11 11 -11 16 0 6 4 8
8 5 5 -3 9 1 9 9 0 8 -7 15 -14 15 -8 0 -11 5 -8 10 4 6 12 8 18 4 7 -3 3 2
-7 10 -19 16 -19 16 -1 16 14 0 16 3 8 11 -7 7 -8 21 -3 40 5 16 5 27 0 24 -4
-3 -11 2 -14 11 -3 8 -2 13 3 10 5 -3 11 5 13 19 3 13 1 22 -3 19 -11 -6 -11
-6 0 34 6 18 6 30 1 27 -4 -3 -11 2 -14 11 -3 8 -2 13 3 10 10 -7 20 23 14 42
-3 6 -10 10 -16 6 -7 -3 -3 2 7 10 18 14 15 20 -6 17 -4 0 -5 6 -2 14 4 8 10
15 16 15 5 0 6 5 3 10 -4 6 -11 8 -16 5 -12 -8 2 28 15 37 7 5 7 8 -1 8 -7 0
-13 5 -13 11 0 5 4 8 8 5 7 -4 8 27 2 44 -1 3 -1 20 0 39 1 25 -2 32 -12 26
-7 -3 -4 1 6 9 18 14 15 20 -6 17 -4 0 -5 6 -2 14 4 8 11 12 18 8 6 -3 0 7
-14 23 -14 16 -18 23 -10 17 22 -20 25 -16 25 36 0 27 -3 44 -7 39 -3 -6 -5
12 -3 40 2 29 7 57 11 64 4 6 3 8 -3 5 -6 -4 -14 0 -17 9 -5 12 -2 15 11 10
14 -6 15 -5 6 5 -10 10 -9 15 5 26 9 7 13 13 7 12 -22 -3 -29 2 -15 11 10 6
11 10 3 10 -7 0 -13 5 -13 11 0 5 4 8 8 5 5 -3 9 1 9 9 0 8 -4 12 -9 9 -4 -3
-8 2 -8 11 0 9 5 13 11 9 7 -4 7 1 -1 16 -9 18 -9 24 0 30 9 6 9 9 0 15 -9 6
-9 10 1 16 11 7 9 9 -6 10 l-20 0 20 9 c13 6 15 9 5 9 -12 1 -12 3 -1 10 10 7
11 13 2 30 -7 11 -8 21 -2 21 5 0 6 14 1 35 -5 23 -4 33 2 29 6 -4 8 -1 6 7
-3 8 -12 13 -19 11 -8 -1 -3 6 10 16 18 14 21 21 11 27 -9 6 -11 4 -5 -5 5 -8
4 -11 -3 -6 -10 6 -8 42 3 74 2 6 -1 12 -8 12 -9 0 -9 2 0 8 7 5 9 13 3 21 -4
8 -7 19 -5 25 9 32 14 76 7 72 -4 -2 -8 4 -8 15 0 10 3 19 6 19 9 0 6 32 -4
48 -4 6 -3 12 1 12 12 0 10 53 -2 62 -5 4 -1 8 10 8 15 0 17 2 6 9 -8 5 -11
16 -8 25 4 9 1 16 -6 17 -9 0 -9 2 1 6 6 2 12 9 12 14 0 6 -4 8 -9 4 -6 -3 -5
10 1 31 7 28 7 39 -4 45 -8 6 -9 9 -1 9 12 0 12 17 0 38 -5 6 -5 12 0 12 4 0
9 11 9 25 1 14 -1 23 -5 20 -4 -2 -8 2 -8 10 0 8 4 12 8 10 4 -3 5 20 3 50 -2
29 1 57 6 60 6 3 10 12 10 18 0 7 -4 6 -10 -3 -7 -12 -9 -11 -8 6 2 19 4 20
27 8 13 -7 29 -11 33 -7z m-2866 -47 c0 -12 -4 -16 -9 -11 -5 5 -6 14 -3 20
10 15 12 14 12 -9z m4478 -279 c3 -5 -1 -11 -9 -14 -9 -4 -12 -1 -8 9 6 16 10
17 17 5z m-3830 -289 c3 -5 -1 -9 -9 -9 -8 0 -12 4 -9 9 3 4 7 8 9 8 2 0 6 -4
9 -8z m-364 -393 c15 -28 5 -23 -15 7 -9 15 -12 23 -6 20 6 -4 16 -16 21 -27z
m3815 -27 c-3 -3 -11 0 -18 7 -9 10 -8 11 6 5 10 -3 15 -9 12 -12z m-1795 -48
c0 -8 -19 -13 -24 -6 -3 5 1 9 9 9 8 0 15 -2 15 -3z m-1965 -32 c-3 -3 -11 0
-18 7 -9 10 -8 11 6 5 10 -3 15 -9 12 -12z m1965 -158 c0 -2 -7 -4 -15 -4 -8
0 -15 4 -15 10 0 5 7 7 15 4 8 -4 15 -8 15 -10z m-16 -44 c-6 -6 -10 -3 -10
10 0 13 4 16 10 10 7 -7 7 -13 0 -20z m2111 -350 c-3 -5 -2 -10 3 -10 6 0 13
-7 16 -16 5 -13 4 -14 -7 -6 -10 9 -14 8 -14 -3 0 -8 6 -15 14 -15 15 0 13
-21 -2 -32 -6 -4 -1 -8 10 -8 15 0 16 -3 7 -12 -7 -7 -12 -17 -12 -22 0 -6 5
-4 10 4 8 12 10 10 10 -8 0 -16 4 -21 13 -16 6 4 4 -1 -5 -12 -14 -16 -15 -22
-3 -38 10 -13 11 -25 4 -42 -7 -19 -5 -26 6 -30 8 -4 15 -10 15 -16 0 -5 -5
-6 -10 -3 -6 4 -9 -3 -6 -17 2 -13 -2 -30 -8 -38 -9 -13 -9 -13 5 -2 14 11 17
9 17 -13 0 -13 -4 -22 -9 -19 -5 3 -9 1 -9 -5 0 -5 10 -13 22 -17 l21 -6 -24
-14 c-21 -12 -19 -19 4 -15 5 1 6 -3 2 -9 -3 -5 0 -10 7 -10 10 0 10 -2 0 -9
-8 -4 -13 -11 -13 -15 3 -20 0 -26 -9 -21 -5 3 -10 1 -10 -4 0 -6 5 -11 11
-11 6 0 8 -7 5 -16 -4 -10 -2 -13 7 -9 6 4 3 -1 -7 -9 -11 -9 -15 -16 -10 -16
6 0 11 -7 11 -15 0 -11 -4 -12 -14 -3 -11 8 -12 7 -7 -6 3 -9 11 -16 18 -16 6
0 5 -4 -3 -9 -8 -5 -16 -17 -17 -25 -1 -9 1 -14 6 -11 4 3 7 -6 6 -20 0 -14
-5 -25 -10 -25 -5 0 -2 -8 5 -17 12 -14 12 -15 0 -9 -10 7 -12 3 -6 -14 6 -17
4 -21 -6 -14 -10 6 -10 3 1 -11 14 -17 13 -18 -3 -12 -11 4 -16 3 -12 -3 3 -6
0 -10 -7 -10 -9 0 -9 -3 2 -10 10 -7 11 -13 5 -17 -6 -5 -10 -18 -9 -31 1 -12
-2 -25 -7 -28 -4 -2 -6 5 -4 16 2 11 0 18 -4 16 -4 -3 -7 -25 -7 -50 1 -31 -2
-42 -10 -35 -17 14 -25 -1 -12 -24 9 -17 8 -19 -6 -14 -19 7 -31 -9 -15 -19 8
-5 9 -3 4 6 -6 9 -4 11 5 5 10 -6 7 -13 -11 -27 -13 -11 -18 -17 -10 -13 9 5
8 -1 -4 -19 -9 -14 -15 -32 -12 -39 3 -8 -1 -14 -8 -14 -7 0 -11 7 -8 16 4 14
3 14 -5 1 -8 -10 -7 -19 1 -29 10 -12 9 -14 -5 -8 -10 3 -20 2 -23 -3 -4 -6 0
-10 7 -11 10 0 10 -2 1 -6 -7 -2 -13 -11 -13 -18 0 -8 -4 -17 -10 -20 -6 -4
-7 1 -3 12 3 10 2 15 -2 10 -5 -4 -9 -17 -11 -30 -1 -12 -3 -24 -3 -26 -1 -2
-8 2 -16 9 -13 11 -14 10 -10 -3 4 -8 1 -18 -6 -23 -8 -5 -10 -3 -4 6 5 9 4
11 -3 6 -7 -4 -12 -14 -12 -22 0 -8 -7 -14 -15 -14 -18 0 -20 -16 -2 -24 6 -3
2 -3 -10 -1 -12 3 -25 0 -29 -6 -5 -8 -2 -10 7 -5 8 4 3 -3 -11 -16 -14 -13
-27 -27 -30 -33 -3 -5 -8 -9 -12 -8 -5 2 -8 -2 -8 -8 0 -5 -5 -7 -10 -4 -6 4
-8 11 -5 16 10 15 -2 10 -16 -8 -12 -15 -12 -16 1 -8 13 8 13 6 1 -8 -7 -9
-17 -15 -21 -12 -5 3 -10 0 -12 -5 -2 -6 -13 -12 -25 -12 -15 -2 -20 -8 -17
-21 3 -16 1 -17 -13 -5 -15 11 -16 11 -10 -5 6 -15 4 -16 -13 -7 -16 9 -18 7
-15 -10 2 -12 0 -18 -6 -14 -5 3 -17 0 -26 -8 -14 -11 -16 -11 -9 2 4 8 -1 5
-11 -6 -10 -12 -27 -20 -37 -18 -11 1 -26 -5 -34 -14 -12 -16 -13 -15 -7 3 5
16 4 17 -6 8 -9 -9 -16 -10 -26 -1 -10 8 -12 7 -8 -4 8 -20 -38 -41 -54 -25
-7 7 -11 7 -11 1 0 -14 -30 -14 -30 0 -1 6 -7 0 -15 -14 -9 -16 -14 -20 -15
-9 0 9 -7 16 -15 16 -8 0 -12 -4 -9 -9 3 -4 0 -8 -5 -8 -6 0 -11 4 -11 10 0 5
-7 7 -15 4 -8 -4 -12 -11 -8 -18 3 -6 -2 -3 -13 6 -16 14 -22 15 -37 3 -11 -8
-26 -11 -35 -8 -9 4 -13 2 -9 -4 5 -7 -1 -9 -15 -5 -21 5 -21 6 -2 13 15 7 13
8 -9 6 -16 -2 -33 -10 -38 -18 -7 -11 -9 -11 -9 0 0 8 -6 11 -16 7 -14 -5 -15
-4 -4 9 16 20 6 19 -14 -1 -12 -11 -16 -12 -16 -2 0 7 -11 13 -24 13 -13 0
-21 -4 -18 -10 3 -5 -5 -1 -18 10 -21 18 -23 18 -17 2 5 -14 3 -16 -11 -8 -9
5 -29 7 -44 5 -26 -2 -33 5 -29 29 1 5 -3 6 -9 2 -6 -3 -8 -10 -5 -15 3 -4 -4
-6 -15 -3 -11 3 -20 9 -20 14 0 5 -5 9 -11 9 -5 0 -7 -5 -4 -10 4 -6 -8 -2
-26 9 -26 16 -36 18 -47 8 -13 -10 -14 -8 -8 13 4 14 4 21 -1 15 -13 -17 -55
-14 -48 3 4 12 3 13 -10 2 -13 -11 -19 -8 -17 11 1 3 -5 6 -13 6 -7 0 -11 -7
-8 -16 3 -9 -6 -3 -21 13 -15 17 -26 23 -26 15 0 -11 -2 -11 -10 1 -7 11 -10
11 -10 2 0 -10 -3 -10 -14 0 -8 7 -11 18 -8 23 3 6 -1 4 -10 -3 -20 -16 -40 6
-34 39 2 13 -1 30 -6 37 -6 6 -6 12 -1 12 11 0 11 50 0 68 -5 6 -4 12 1 12 5
0 8 12 6 27 -1 15 2 34 7 43 9 13 10 13 5 -2 -3 -10 -1 -20 4 -23 6 -4 10 4
10 17 0 18 2 20 10 8 8 -13 10 -12 10 3 0 9 5 17 11 17 5 0 7 -5 3 -12 -4 -7
-3 -8 4 -4 7 4 12 14 12 23 0 10 6 14 20 10 11 -3 18 -1 14 4 -3 5 -3 9 0 9 2
0 12 3 22 7 13 5 15 3 9 -8 -8 -12 -6 -12 8 0 18 14 23 26 8 16 -5 -3 -13 0
-17 7 -4 7 -4 10 1 6 4 -4 17 -3 28 3 15 9 18 8 12 -2 -6 -8 -4 -10 4 -5 7 5
10 14 8 20 -3 7 1 13 9 13 7 0 10 -5 7 -11 -4 -6 0 -5 9 1 8 7 17 10 20 7 3
-3 16 7 27 23 18 22 24 25 31 13 7 -11 10 -12 10 -2 0 8 5 10 13 6 7 -5 6 0
-3 11 -8 10 -10 16 -5 13 16 -10 76 22 68 36 -4 6 1 5 11 -3 9 -8 16 -10 15
-5 -5 29 2 37 17 18 8 -10 13 -13 9 -6 -3 6 -1 12 5 12 6 0 8 5 4 12 -5 9 -2
8 9 -1 16 -12 17 -12 11 5 -4 10 -3 15 1 11 5 -4 15 3 23 15 l13 23 -5 -25 -5
-25 16 22 c8 13 22 23 30 23 8 0 11 5 7 11 -4 7 2 6 17 -2 22 -11 23 -11 10 4
-12 15 -11 17 3 17 11 0 14 4 10 13 -5 7 0 6 11 -3 10 -8 16 -10 12 -3 -9 15
28 37 49 29 7 -3 13 -1 11 4 -1 5 7 16 18 25 11 9 14 13 6 9 -10 -5 -12 -3 -7
5 5 8 12 9 20 2 8 -7 17 -6 26 1 12 8 11 8 -5 3 -14 -4 -17 -3 -10 4 6 6 21
12 34 14 15 2 29 15 36 33 8 16 14 24 14 17 1 -14 31 -6 31 9 0 5 -5 6 -12 2
-6 -4 -8 -3 -4 4 3 6 15 9 26 7 18 -4 25 6 21 29 -1 5 4 4 11 -1 10 -8 18 -8
32 3 11 8 15 14 10 14 -6 0 -15 -5 -22 -12 -7 -7 -12 -9 -12 -5 0 4 10 18 21
30 12 12 19 16 15 10 -13 -23 5 -14 26 12 11 14 27 24 36 23 11 -2 16 3 16 14
-1 10 2 15 7 12 5 -3 9 0 9 7 0 7 7 4 15 -7 14 -18 14 -18 8 4 -3 13 -1 22 6
22 7 0 9 4 6 10 -4 6 1 7 11 3 13 -5 15 -3 9 7 -6 10 -4 12 9 7 13 -5 17 -3
13 7 -4 10 1 13 18 12 18 -2 22 1 20 15 -2 10 1 22 7 25 7 5 8 2 3 -6 -5 -8
-3 -11 6 -8 8 3 13 10 12 16 -2 6 4 9 12 6 10 -4 18 3 25 20 11 29 23 36 13 9
-5 -15 -3 -14 10 2 8 11 13 23 11 27 -3 5 0 8 6 8 6 0 8 5 4 12 -4 7 -3 8 5 4
6 -4 8 -12 5 -18 -4 -7 -2 -8 4 -4 7 4 12 14 12 22 0 8 7 14 16 14 9 0 18 9
21 20 3 11 9 17 14 14 5 -3 14 -2 21 2 7 5 5 11 -8 21 -19 14 -19 15 1 13 32
-3 45 -1 45 10 0 5 -8 7 -17 4 -17 -5 -17 -5 0 6 9 6 22 8 27 5 6 -3 7 1 4 9
-4 11 0 16 11 16 9 0 14 4 11 9 -3 5 5 17 19 27 13 10 21 23 18 28 -3 6 0 5 8
-1 7 -7 18 -13 24 -13 5 0 3 5 -5 10 -13 9 -13 10 0 11 8 1 19 1 23 0 5 -1 6
3 2 8 -3 6 -13 8 -23 5 -9 -2 -2 3 16 11 17 8 32 18 32 21 0 3 -5 2 -12 -2 -7
-5 -8 -3 -4 5 5 7 14 10 22 7 7 -3 16 0 20 6 4 6 3 8 -4 4 -6 -4 -10 1 -9 13
0 11 5 17 9 15 4 -3 16 0 25 5 10 6 14 11 10 11 -12 0 2 20 14 20 6 0 7 -4 4
-10z m-3703 -38 c-7 -2 -17 -13 -23 -25 -9 -20 -9 -20 4 -4 8 9 22 17 31 17
10 0 14 5 10 12 -4 7 -3 8 5 4 8 -5 9 -12 2 -19 -6 -8 -4 -16 5 -25 10 -10 14
-10 14 -1 0 7 3 9 7 5 5 -4 -1 -14 -12 -22 -19 -15 -19 -15 6 -10 23 4 26 1
21 -16 -4 -18 -2 -20 18 -15 17 4 20 3 12 -5 -8 -8 -5 -17 11 -33 37 -37 57
-64 58 -83 0 -11 2 -12 6 -4 4 10 8 9 18 -5 10 -13 10 -23 3 -38 -9 -16 -8
-18 3 -7 18 17 29 15 29 -5 0 -9 3 -14 6 -10 10 10 42 -26 36 -41 -3 -10 -1
-13 6 -8 7 4 12 2 12 -4 0 -6 5 -8 10 -5 6 3 10 1 10 -5 0 -12 24 -40 35 -40
3 0 3 5 -1 12 -4 7 -3 8 4 4 6 -4 9 -13 5 -21 -3 -9 1 -15 10 -15 9 0 19 -5
23 -12 5 -7 2 -8 -7 -3 -8 5 -3 -4 10 -18 14 -15 29 -26 35 -25 6 0 19 -2 29
-7 15 -6 16 -10 5 -16 -11 -7 -10 -11 2 -18 8 -5 19 -7 25 -3 5 3 4 -1 -3 -10
-11 -14 -10 -16 13 -14 19 3 23 0 15 -9 -8 -10 -8 -15 1 -21 8 -4 9 -3 5 4 -4
7 -3 12 2 12 10 0 25 -38 23 -54 -1 -5 5 -4 13 4 16 12 21 5 17 -22 0 -5 6 -8
15 -8 9 0 12 5 8 12 -4 7 -3 8 5 4 9 -6 9 -11 -1 -24 -11 -13 -10 -15 5 -9 10
4 16 3 13 -2 -8 -12 16 -29 37 -26 10 2 17 -3 17 -11 0 -9 -4 -12 -10 -9 -5 3
-10 1 -10 -5 0 -7 8 -9 20 -5 15 5 20 2 20 -12 0 -14 2 -15 9 -4 7 11 10 9 15
-7 5 -13 13 -19 22 -15 10 4 12 0 8 -11 -7 -19 6 -21 26 -3 8 6 6 1 -5 -12
l-20 -24 24 13 c13 6 21 7 17 2 -3 -6 0 -17 8 -25 8 -8 12 -18 8 -23 -4 -5 1
-2 11 5 15 12 17 11 17 -3 0 -10 5 -14 10 -11 6 3 10 1 10 -5 0 -6 5 -8 13 -4
7 5 7 1 -3 -12 -8 -10 -10 -16 -6 -12 5 4 15 0 23 -10 14 -16 14 -16 9 3 -6
19 -5 19 8 3 7 -10 17 -18 22 -18 5 0 16 -9 24 -19 7 -11 17 -18 22 -15 4 3 8
-3 9 -13 0 -12 2 -13 6 -5 4 10 9 7 17 -10 8 -15 20 -23 38 -22 19 0 24 -4 20
-15 -3 -9 -1 -12 6 -7 7 4 12 2 12 -4 0 -6 4 -8 10 -5 5 3 10 -1 10 -9 0 -9 6
-15 13 -13 6 1 11 -4 9 -12 -2 -11 0 -12 10 -4 19 16 50 -9 42 -33 -5 -16 -4
-16 5 -4 9 13 12 13 23 1 11 -11 11 -13 -1 -6 -9 5 -12 4 -7 -3 5 -9 13 -9 26
-2 16 8 18 8 14 -5 -4 -10 0 -15 11 -15 10 0 13 -4 9 -12 -6 -9 -3 -9 9 0 14
12 16 11 13 -5 -3 -13 2 -19 17 -21 12 0 23 -6 25 -12 3 -8 8 -7 18 1 8 6 14
7 14 2 0 -5 7 -18 16 -29 8 -10 13 -13 9 -7 -4 9 -1 11 9 7 9 -3 13 -10 10
-15 -3 -5 -1 -9 5 -9 5 0 12 6 14 13 3 7 6 4 6 -6 1 -12 5 -16 14 -11 7 5 6 0
-3 -11 -8 -10 -10 -16 -5 -13 6 4 17 2 25 -4 12 -8 12 -9 -2 -4 -13 4 -18 0
-18 -12 0 -15 -2 -15 -10 -2 -9 13 -10 13 -10 0 0 -13 -1 -13 -11 0 -9 12 -10
11 -6 -8 3 -12 1 -20 -3 -17 -5 3 -12 0 -15 -5 -5 -8 -13 -6 -25 5 -17 15 -18
15 -16 -1 0 -9 -5 -19 -13 -22 -9 -3 -11 0 -6 8 5 9 4 11 -3 6 -7 -4 -12 -14
-12 -22 0 -8 -5 -14 -11 -14 -5 0 -7 5 -3 12 5 7 3 8 -7 2 -8 -5 -17 -9 -21
-9 -4 0 -16 -7 -26 -16 -26 -22 -46 -34 -39 -22 3 5 0 10 -8 10 -8 0 -11 -5
-8 -10 3 -5 0 -7 -8 -4 -8 2 -34 -7 -58 -20 -39 -23 -43 -24 -38 -7 7 17 6 17
-8 -1 -14 -17 -17 -18 -25 -5 -7 11 -10 11 -10 2 0 -7 -4 -10 -10 -7 -5 3 -7
0 -4 -9 6 -15 -11 -17 -34 -2 -8 4 -11 3 -10 -5 2 -6 -3 -14 -11 -17 -8 -3
-11 0 -7 7 4 6 3 11 -2 11 -6 0 -13 -7 -16 -16 -4 -9 -11 -12 -18 -7 -19 11
-78 11 -85 0 -4 -6 -1 -7 7 -2 9 6 11 4 6 -4 -5 -7 -15 -10 -23 -7 -8 3 -20 3
-26 -1 -15 -9 -106 -10 -101 -1 8 13 -11 9 -24 -4 -9 -9 -12 -9 -12 0 0 10 -5
10 -20 2 -14 -7 -20 -7 -20 0 0 5 5 10 10 10 6 0 10 5 10 12 0 6 -9 3 -20 -7
-15 -14 -20 -15 -20 -4 0 11 -2 12 -9 1 -6 -11 -11 -10 -25 3 -9 9 -16 12 -16
6 0 -6 -5 -11 -11 -11 -5 0 -7 6 -3 13 6 9 4 9 -8 -1 -13 -10 -18 -10 -24 -1
-5 8 -3 9 6 4 8 -5 11 -4 7 2 -3 5 -20 8 -38 5 -22 -3 -30 -1 -25 7 10 15 -7
14 -23 -2 -11 -10 -12 -7 -6 13 7 22 6 23 -9 11 -13 -11 -16 -11 -16 0 0 11
-2 11 -10 -1 -8 -13 -10 -13 -10 2 0 11 -6 15 -19 11 -12 -3 -24 3 -35 18 -11
16 -16 19 -17 9 0 -11 -2 -11 -6 -2 -2 6 -9 12 -14 12 -6 0 -7 -5 -3 -12 4 -7
3 -8 -4 -4 -6 4 -9 13 -5 21 4 11 -3 15 -26 15 -20 0 -31 5 -31 14 0 8 -9 18
-20 21 -11 3 -20 11 -20 18 0 8 3 8 12 -1 7 -7 16 -12 22 -12 5 0 1 6 -9 14
-11 8 -23 12 -27 10 -13 -9 -20 18 -7 28 11 8 10 9 -3 4 -10 -3 -20 -1 -23 5
-4 5 -11 7 -16 4 -5 -3 -6 0 -4 8 7 16 -26 55 -42 50 -7 -3 -10 3 -6 15 2 11
-1 23 -8 27 -7 5 -10 4 -6 -2 3 -5 0 -10 -7 -10 -8 0 -12 6 -9 14 3 7 0 13 -6
13 -9 0 -9 5 0 21 6 12 7 19 1 15 -5 -3 -18 4 -28 16 -11 12 -13 18 -6 14 6
-4 12 -2 12 3 0 6 -6 11 -12 11 -9 0 -8 4 2 10 13 9 13 10 0 10 -11 0 -15 9
-14 28 1 15 -5 35 -13 44 -8 9 -12 22 -8 27 3 6 0 11 -7 12 -10 0 -10 2 0 6
21 8 13 26 -9 20 -20 -5 -20 -4 -4 13 13 15 14 20 2 31 -7 8 -14 21 -14 29 -3
59 -9 90 -18 90 -5 0 -3 5 5 10 8 5 10 10 4 10 -7 0 -15 7 -18 16 -5 14 -4 15
9 4 13 -11 14 -10 9 5 -6 14 -4 16 6 10 9 -5 11 -4 6 4 -4 6 -11 9 -16 6 -4
-3 -10 2 -13 10 -4 9 -1 12 7 9 7 -3 13 2 13 10 0 8 -4 13 -9 10 -4 -3 -8 3
-8 13 0 11 -5 24 -10 31 -7 9 -7 9 2 2 7 -5 15 -10 19 -10 9 0 5 27 -6 37 -4
4 -5 2 -1 -4 5 -9 2 -11 -9 -6 -9 3 -12 9 -7 12 5 3 8 16 7 28 -1 16 2 20 10
13 7 -6 11 -3 11 10 0 10 -3 17 -7 14 -12 -7 -20 29 -9 40 8 8 9 6 5 -6 -4
-10 -3 -18 2 -18 13 0 12 33 -1 42 -8 6 -8 8 0 8 7 0 10 20 10 50 -1 29 3 50
9 50 5 0 3 5 -5 10 -13 9 -13 10 0 10 13 0 13 1 0 10 -13 9 -13 10 0 10 13 0
13 1 0 10 -13 9 -13 10 0 10 13 0 13 1 0 10 -8 5 -10 10 -4 10 5 0 9 14 8 30
-1 20 4 35 18 44 14 10 16 15 6 19 -10 4 -10 8 2 16 12 8 12 11 1 11 -11 0
-11 3 0 17 12 15 12 16 -1 8 -12 -7 -13 -6 -3 6 7 9 11 25 8 36 -2 13 3 24 11
27 9 3 12 10 9 16 -4 6 1 7 11 3 11 -4 13 -8 6 -11z m1582 -48 c3 -8 2 -12 -4
-9 -6 3 -10 10 -10 16 0 14 7 11 14 -7z m-2167 -149 c0 -8 -4 -12 -9 -9 -5 3
-6 10 -3 15 9 13 12 11 12 -6z m1258 -173 c-3 -3 -11 0 -18 7 -9 10 -8 11 6 5
10 -3 15 -9 12 -12z m56 -49 c12 -16 12 -17 -2 -6 -9 7 -20 9 -24 5 -5 -4 -5
-1 -1 6 9 16 11 15 27 -5z m184 -193 c3 -6 -1 -7 -9 -4 -18 7 -21 14 -7 14 6
0 13 -4 16 -10z m-1602 -112 c-6 -7 -9 -23 -8 -35 1 -12 -2 -20 -7 -17 -13 8
3 64 19 64 3 0 1 -6 -4 -12z m632 -118 c3 -5 1 -10 -4 -10 -6 0 -11 5 -11 10
0 6 2 10 4 10 3 0 8 -4 11 -10z m32 -132 c4 -28 -6 -18 -12 12 -2 12 -1 20 2
16 4 -4 8 -16 10 -28z m1043 12 c0 -5 -2 -10 -4 -10 -3 0 -8 5 -11 10 -3 6 -1
10 4 10 6 0 11 -4 11 -10z m1350 -15 c-7 -9 -15 -13 -19 -10 -3 3 1 10 9 15
21 14 24 12 10 -5z m-3060 -104 c0 -6 -4 -12 -8 -15 -5 -3 -9 1 -9 9 0 8 4 15
9 15 4 0 8 -4 8 -9z m795 -121 c3 -5 1 -10 -4 -10 -6 0 -11 5 -11 10 0 6 2 10
4 10 3 0 8 -4 11 -10z m1151 -142 c4 -6 3 -8 -4 -4 -6 3 -15 -2 -21 -11 -6
-10 -11 -13 -11 -7 0 9 19 34 26 34 2 0 6 -5 10 -12z m-106 -38 c0 -5 -5 -10
-11 -10 -5 0 -7 5 -4 10 3 6 8 10 11 10 2 0 4 -4 4 -10z m1685 -109 c-3 -6
-11 -11 -16 -11 -5 0 -4 6 3 14 14 16 24 13 13 -3z m-1825 -191 c0 -5 -5 -10
-11 -10 -5 0 -7 5 -4 10 3 6 8 10 11 10 2 0 4 -4 4 -10z m1597 -35 c0 -8 -4
-12 -9 -9 -5 3 -6 10 -3 15 9 13 12 11 12 -6z m554 -78 c-10 -9 -11 -8 -5 6 3
10 9 15 12 12 3 -3 0 -11 -7 -18z m-1271 9 c0 -3 -4 -8 -10 -11 -5 -3 -10 -1
-10 4 0 6 5 11 10 11 6 0 10 -2 10 -4z m164 -102 c3 -8 2 -12 -4 -9 -6 3 -10
10 -10 16 0 14 7 11 14 -7z"/>
<path d="M3951 4514 c0 -11 3 -14 6 -6 3 7 2 16 -1 19 -3 4 -6 -2 -5 -13z"/>
<path d="M3095 4499 c-4 -6 -5 -12 -2 -15 2 -3 7 2 10 11 7 17 1 20 -8 4z"/>
<path d="M4190 4346 c0 -2 7 -7 16 -10 8 -3 12 -2 9 4 -6 10 -25 14 -25 6z"/>
<path d="M4277 4239 c7 -7 15 -10 18 -7 3 3 -2 9 -12 12 -14 6 -15 5 -6 -5z"/>
<path d="M4373 4071 c0 -11 5 -18 9 -15 4 3 5 11 1 19 -7 21 -12 19 -10 -4z"/>
<path d="M3400 3741 c0 -6 4 -13 10 -16 6 -3 7 1 4 9 -7 18 -14 21 -14 7z"/>
<path d="M3970 3370 c-9 -6 -10 -10 -3 -10 6 0 15 5 18 10 8 12 4 12 -15 0z"/>
<path d="M1806 4312 c-3 -5 1 -9 9 -9 8 0 12 4 9 9 -3 4 -7 8 -9 8 -2 0 -6 -4
-9 -8z"/>
<path d="M2010 4205 c0 -7 30 -13 34 -7 3 4 -4 9 -15 9 -10 1 -19 0 -19 -2z"/>
<path d="M2283 3248 c-2 -18 0 -20 7 -8 12 18 13 30 2 30 -4 0 -9 -10 -9 -22z"/>
<path d="M1186 3101 c-4 -5 -2 -12 3 -15 5 -4 12 -2 15 3 4 5 2 12 -3 15 -5 4
-12 2 -15 -3z"/>
<path d="M1145 3040 c-3 -5 -1 -10 4 -10 6 0 11 5 11 10 0 6 -2 10 -4 10 -3 0
-8 -4 -11 -10z"/>
<path d="M3241 3563 c7 -12 15 -20 18 -17 3 2 -3 12 -13 22 -17 16 -18 16 -5
-5z"/>
<path d="M3430 3426 c0 -2 7 -7 16 -10 8 -3 12 -2 9 4 -6 10 -25 14 -25 6z"/>
<path d="M4202 2535 c-7 -8 -9 -15 -4 -15 5 0 15 7 22 15 16 19 -1 19 -18 0z"/>
<path d="M3415 1600 c-3 -5 -1 -10 4 -10 6 0 11 5 11 10 0 6 -2 10 -4 10 -3 0
-8 -4 -11 -10z"/>
<path d="M4460 1665 c0 -2 6 -8 13 -14 10 -8 14 -7 14 2 0 8 -6 14 -14 14 -7
0 -13 -1 -13 -2z"/>
<path d="M3785 1551 c-3 -5 -2 -12 3 -15 5 -3 9 1 9 9 0 17 -3 19 -12 6z"/>
<path d="M3506 608 c3 -5 10 -6 15 -3 13 9 11 12 -6 12 -8 0 -12 -4 -9 -9z"/>
<path d="M665 1920 c-3 -5 -1 -10 4 -10 6 0 11 5 11 10 0 6 -2 10 -4 10 -3 0
-8 -4 -11 -10z"/>
<path d="M1150 1600 c0 -5 5 -10 11 -10 5 0 7 5 4 10 -3 6 -8 10 -11 10 -2 0
-4 -4 -4 -10z"/>
<path d="M1850 1030 c0 -5 5 -10 11 -10 5 0 7 5 4 10 -3 6 -8 10 -11 10 -2 0
-4 -4 -4 -10z"/>
<path d="M2073 805 c0 -8 4 -12 9 -9 5 3 6 10 3 15 -9 13 -12 11 -12 -6z"/>
<path d="M1047 709 c7 -7 15 -10 18 -7 3 3 -2 9 -12 12 -14 6 -15 5 -6 -5z"/>
<path d="M1480 641 c0 -6 4 -13 10 -16 6 -3 7 1 4 9 -7 18 -14 21 -14 7z"/>
<path d="M2843 4855 c0 -7 6 -11 14 -8 7 3 13 6 13 8 0 2 -6 5 -13 8 -8 3 -14
-1 -14 -8z"/>
<path d="M1046 4837 c3 -10 9 -15 12 -12 3 3 0 11 -7 18 -10 9 -11 8 -5 -6z"/>
<path d="M2686 4815 c-3 -9 -11 -13 -17 -9 -8 5 -9 3 -4 -5 6 -10 11 -9 23 3
9 8 13 18 10 21 -3 3 -8 -1 -12 -10z"/>
<path d="M3112 4785 c4 -4 0 -14 -10 -21 -9 -7 -12 -14 -6 -14 6 0 17 6 23 14
9 11 9 16 -1 22 -7 4 -10 4 -6 -1z"/>
<path d="M1605 4660 c3 -5 8 -10 11 -10 2 0 4 5 4 10 0 6 -5 10 -11 10 -5 0
-7 -4 -4 -10z"/>
<path d="M2257 4360 c10 -11 19 -20 21 -20 1 0 -2 9 -8 20 -6 11 -15 20 -20
20 -6 0 -2 -9 7 -20z"/>
<path d="M106 3227 c3 -10 9 -15 12 -12 3 3 0 11 -7 18 -10 9 -11 8 -5 -6z"/>
<path d="M183 3005 c0 -8 4 -12 9 -9 5 3 6 10 3 15 -9 13 -12 11 -12 -6z"/>
<path d="M4810 2659 c0 -5 5 -7 10 -4 6 3 10 8 10 11 0 2 -4 4 -10 4 -5 0 -10
-5 -10 -11z"/>
<path d="M375 2500 c-3 -5 -1 -10 4 -10 6 0 11 5 11 10 0 6 -2 10 -4 10 -3 0
-8 -4 -11 -10z"/>
<path d="M203 2135 c0 -8 4 -12 9 -9 5 3 6 10 3 15 -9 13 -12 11 -12 -6z"/>
<path d="M2095 561 c-3 -5 -2 -12 3 -15 5 -3 9 1 9 9 0 17 -3 19 -12 6z"/>
<path d="M176 487 c3 -10 9 -15 12 -12 3 3 0 11 -7 18 -10 9 -11 8 -5 -6z"/>
<path d="M2850 345 c-7 -9 -8 -15 -2 -15 5 0 12 7 16 15 3 8 4 15 2 15 -2 0
-9 -7 -16 -15z"/>
<path d="M2853 250 c-1 -11 1 -22 5 -24 4 -2 8 7 8 20 1 13 -1 24 -5 24 -4 0
-7 -9 -8 -20z"/>
</g>
</svg>
