<svg id="Layer_1" data-name="Layer 1" xmlns="http://www.w3.org/2000/svg" viewBox="0 0 500 500"><title>lev_lovi</title><path d="M42.73,223.8c-2.75,2.31-5.95,4.95-9.61,7.95l-10.23,8.37q-4,3.36-9.06,7.83l-9,8a20.29,20.29,0,0,0-2.13-3.06,22,22,0,0,0-2.62-2.65c1.46-1,4.42-3.34,8.9-7s8.69-7.09,12.65-10.39q4.7-3.94,10.81-9.11T42.18,215q.7,1.08,5.58,7t9,10.89q2.93,3.48,7.09,8.34t8.7,10q-2.17,1.52-8.75,6.83T51.3,268.39q-4.75,4-11,9.25t-9.88,8.91a19.17,19.17,0,0,0-2.14-3.05,19.91,19.91,0,0,0-2.61-2.65q2.18-1.53,7.88-6.11t10.87-8.9l2.67-2.24,2.61-2.18,2.38-2,2.09-1.75,1.74-1.46L57.44,255l1.22-1,1-.83.81-.68.7-.58A19.81,19.81,0,0,0,64,249.18c-1.88-2.24-3.69-4.44-5.42-6.58s-3.3-4.1-4.72-5.88q-3.11-3.71-5.92-6.94Z"/><path d="M69.5,283.28l-2.38,3.13q-1.62,2.11-6,8.27t-5.61,7.73l1.33,1c1.76,1.34,4.16,3.08,7.18,5.19s5.93,4,8.73,5.79l-1.53,1.88-1.46,2q-1.11-1-4.41-3.65c-2.19-1.74-4.32-3.39-6.37-4.95L47.4,300.91q1.79-2,7.19-8.81t10.09-13q9.87-13,11.86-15.68t4.16-6.21q1.44,1.09,4.28,3.51T88.89,264q2.3,1.74,7.86,5.74t6.54,4.73l-1.78,2.08-1.45,2.15Q96,274.08,85.38,266l-1.51-1.15q-1.14,1.51-2.81,3.57l-3.15,3.89-6.34,8.31,5.06,3.86q1.32,1,5.38,3.81t5.8,4.14l-1.5,1.71L85.05,296q-5.25-4.86-10.49-8.86Z"/><path d="M101.52,307.74,96.71,318q-.17.35-3,7c-.76,1.77-1.57,3.59-2.45,5.46a21.3,21.3,0,0,0-6.58-3.11q1.33-2.31,5.16-10T97,302.49q2.61-5.55,6-12.79t5.16-12.1l3.43,1.95c1.23.58,3.43,1.55,6.58,2.93s5,2.19,5.61,2.47q7.88,3.72,10.59,9t-.12,11.27a14,14,0,0,1-10.3,8.36q-7,1.4-16.75-3.19Zm1.29-2.74,3.23,1.68q15.63,7.36,21-4,2.67-5.69.45-9.66c-1.49-2.66-4.67-5.13-9.56-7.44l-4.65-1.85c-1,2-2.31,4.75-4.1,8.25s-2.87,5.66-3.26,6.48Z"/><path d="M173.37,296.53l-.59,3.44q13.51,1.44,20.59,8.83a20.64,20.64,0,0,1,5.71,17.3,20.88,20.88,0,0,1-9.3,15.61q-8.62,5.93-21.89,4.51l-.3,4.92a12.13,12.13,0,0,0-1.78-.42c-.74-.13-1.37-.23-1.87-.28l-3.72-.1.82-4.86q-13.36-1.43-20.56-9.06a20.6,20.6,0,0,1-5.74-17.07A20.87,20.87,0,0,1,144,303.58q8.52-5.79,21.9-4.35l.21-3.48a6.48,6.48,0,0,0,1.46.38c.69.13,1.46.23,2.31.32a16,16,0,0,0,2,.1Zm-7.7,5.73q-9.55-1-16,4.3a19.7,19.7,0,0,0-7,13.64A19.33,19.33,0,0,0,147,335.06q5.25,6.44,14.36,7.41.49-4.52,1.11-9.63t1.19-9.7Zm6.78.72q-.34,3.24-1.06,9.22T170,323.82c-.4,3.71-.74,7.18-1,10.4l-.81,9A20.55,20.55,0,0,0,183.72,339a19.31,19.31,0,0,0,7.43-13.56,19.72,19.72,0,0,0-3.92-14.59Q182,304,172.45,303Z"/><path d="M242.32,347.62q-13.47,2.94-22.82-2.8T207.32,326.2q-2.76-12.66,3.48-22T230.15,292q13.4-2.94,22.77,2.89t12.19,18.69q2.72,12.44-3.56,21.83T242.32,347.62Zm-.64-3q10-2.21,14.16-9.85t1.49-19.62q-2.69-12.21-9.43-17.37t-17.1-2.88q-10.06,2.19-14.19,9.92t-1.47,19.86q2.6,11.85,9.46,17T241.68,344.66Z"/><path d="M280,302.39l5.16-2.72q10.53-5.21,17.7-3.67a12.79,12.79,0,0,1,9,7.36q7,14.06-12.54,23.68L290.69,331c-.72.36-1.41.71-2.05,1.06a14.42,14.42,0,0,0-1.88,1.23q-1-2.47-4.72-10.4t-7.19-14.91q-2.72-5.49-6.29-12.65t-6.26-11.56q1.35-.68,6.21-2.81c3.24-1.43,5.42-2.42,6.56-3s3.94-2,8.72-4.57,7.69-4.06,8.72-4.57l.84,2.2,1.25,2q-3.21,1.58-6.6,3.05-10.17,4.4-11.39,5l-2.48,1.22a30.81,30.81,0,0,0-2.72,1.6q1.11,2.91,2.65,6.29T280,302.39Zm1.48,2.48,3.27,7.14q2.44,5,4.1,8.12c1.1,2.12,2.23,4.11,3.37,6a25.84,25.84,0,0,0,5.18-1.8q6.39-3.15,8.55-7.93a11.25,11.25,0,0,0-.44-10.05q-5.46-11-19.38-4.16c-.41.2-1.17.65-2.29,1.34S281.89,304.64,281.44,304.87Z"/><path d="M339.38,242.24a11.75,11.75,0,0,0,2.64-1l2.34-1.57q-.14,2.54-.19,16.3,0,16,.09,26.4.15,14,.42,19L342,302.39l-2.69,1.73c.32-3.69.55-7.08.71-10.18.06-1.1.09-2.4.12-3.89q-1.58-1.23-10.4-7.59Q318,274,312.28,270.16q-9.5-6.51-12.06-7.66l4.39-1.92,3.81-2.34q8.37,6.6,10.62,8.32,3.34,2.54,9,6.71l11.44,8.37.64-.08c.05-1.45.07-4.66.05-9.66q-.08-10.69-.19-16Q339.78,247,339.38,242.24Z"/><path d="M379.78,227.91l.83,3.39q13-4.05,22.4-.1a20.58,20.58,0,0,1,12.14,13.58,20.88,20.88,0,0,1-2.3,18q-5.57,8.88-18.27,12.86l1.68,4.63a12.62,12.62,0,0,0-1.8.33c-.74.18-1.35.34-1.83.49l-3.45,1.4L388,277.72q-12.83,4-22.47-.1a20.62,20.62,0,0,1-12.07-13.37,20.84,20.84,0,0,1,2.16-18.14q5.5-8.7,18.35-12.73l-1.2-3.27a7.36,7.36,0,0,0,1.5-.23c.68-.16,1.43-.37,2.24-.63a17.6,17.6,0,0,0,1.86-.7C379,228.28,379.47,228.06,379.78,227.91ZM375,236.23q-9.18,2.88-13,10.33a19.67,19.67,0,0,0-1,15.31,19.35,19.35,0,0,0,9.91,11.9,20.56,20.56,0,0,0,16.13,1.06c-.9-2.89-1.85-6-2.82-9.27s-1.91-6.42-2.77-9.37Zm6.5-2q1,3.11,2.7,8.87t3.35,11.22q1.68,5.34,3.2,10t2.84,8.56a20.51,20.51,0,0,0,12.59-10.1,19.3,19.3,0,0,0,1.41-15.4,19.69,19.69,0,0,0-9.42-11.81Q390.7,231.32,381.51,234.2Z"/><path d="M431.75,244.07l.56,3.9q.38,2.63,1.69,10.09t1.58,9.41l1.65-.24c2.2-.32,5.11-.81,8.74-1.49s7-1.4,10.25-2.17l.27,2.41.43,2.47q-1.51.06-5.69.59t-8,1.08l-14.39,2.07q-.16-2.65-1.25-11.3t-2.19-16.3q-2.32-16.12-2.89-19.45c-.37-2.21-.87-4.66-1.51-7.32q1.8-.25,5.5-.59c2.47-.22,4.15-.4,5.05-.53q2.85-.4,9.6-1.58t8-1.35l.24,2.73.52,2.54q-6.09-.36-19.36,1.56l-1.87.27c.17,1.25.36,2.76.57,4.51s.38,3.42.56,5l1.49,10.34,6.3-.9q1.65-.24,6.49-1.17c3.23-.62,5.56-1,7-1.24l.16,2.27.48,2.23q-7.15.35-13.66,1.28Z"/><path d="M482.82,216.15l.33,23.86q.08,6.15.23,14.13t.67,13.14a19.59,19.59,0,0,0-3.72-.27,21.86,21.86,0,0,0-3.71.35c.14-1.76.21-5.47.24-11.1s0-11-.08-16.17l-.32-23.85-2.35,0a87,87,0,0,0-14.75,1.19l.12-2.28-.19-2.5q2.58,0,11.14,0c5.71,0,8.74,0,9.09,0q3.63,0,9-.2t11.28-.38l-.19,2.35a9.63,9.63,0,0,0,.26,2.42,50.47,50.47,0,0,0-6.41-.67c-2.46-.12-5-.16-7.77-.12Z"/></svg>