<svg id="Layer_1" data-name="Layer 1" xmlns="http://www.w3.org/2000/svg" viewBox="0 0 500 500"><defs><style>.cls-1{fill:#9d51f4;}</style></defs><title>lev_lovi</title><path d="M391.34,193c-.31-10.19,2.26-21.07,7.81-32.05s13.22-19.8,22.69-25.44a44.42,44.42,0,0,1,26.3-6.53,57.58,57.58,0,0,1,31.55,11.42C486.93,145.84,492,152,494.84,160c3.63,10.35,3.49,21.83-.28,34-3.86,12.47-11.24,22.25-21.78,27.81-7.22,3.87-15,5.42-23.35,6-13.88.76-27-.31-38.64-4.49-9-3.37-14.81-8.63-17.7-17.29A37.46,37.46,0,0,1,391.34,193Zm91.45-13.92A50.4,50.4,0,0,0,479.3,160a33.83,33.83,0,0,0-13.74-17c-9.7-6.1-20.19-7-31-3.25-13.68,4.59-21.92,17.58-26.19,32.88a74.19,74.19,0,0,0-2.5,21.9c.11,5.87,1.16,10.89,3.43,15.22,3.5,6.7,9.17,10.73,17.91,12.93a61.81,61.81,0,0,0,21.8,1.15c11.87-1.33,20.91-6,27.05-16.11C481.16,199.36,482.85,189.89,482.79,179.08Z"/><path d="M16.65,169.1c0,8.77-.1,17.86,0,27.21.12,8.19.51,16.59.78,25.33,0,.41,0,.81,0,1.22,0,2.61-.06,2.59-2.31,2.61-3.78,0-7.57.19-11.34.53a.34.34,0,0,1-.38-.36c.31-8.42.58-16.93.87-25.44,0-.43,0-.86,0-1.28.05-11.59.16-23.17.12-34.66,0-8.43-.24-16.79-.43-25.18-.07-3.14-.27-6.28-.49-9.43-.1-1.45.37-1.9,1.87-1.81,2.92.15,5.86.17,8.8,0l25.4-1c8-.3,16-.55,24-.85s15.72-.64,23.58-.89c3.16-.09,3.11-.17,3,1.58-.23,5-.42,11.29-.61,18.84-.12,5-.27,10.59-.26,16.71q0,11.48.28,25.52c.21,10.47.58,22,.89,34.65,0,1-.5,1.78-1.14,1.76a96.81,96.81,0,0,0-11,.18c-1.71.16-2.08-.79-2-3,.27-10.78.55-20.8.71-30q.22-13,.23-23.87,0-16.59-.09-28.39c0-3.07-.3-5.89-.42-8.48-13.74.36-27.46.9-41.2,2-6,.51-12.08,1.64-18.11,2.74a67.17,67.17,0,0,0-.75,8.31C16.61,151.9,16.65,160.34,16.65,169.1Z"/><path d="M201.13,188.48c0,6.92-.08,14.15,0,21.7.06,4.09.37,8.28.69,12.52.14,1.82-.27,2.39-1.75,2.32-3.48-.18-7-.27-10.45-.14-1.54.06-1.87-.71-1.81-2.46.18-5.65.3-11.11.45-16.39.14-5,.38-9.8.39-14.47,0-19.68.08-36.57,0-50.68,0-4.58-.45-8.88-.79-12.86-.1-1.06.34-1.46,1.87-1.33,2.45.19,4.91.4,7.36.46,7.81.22,15.62.13,23.42.59,6.52.4,13.06,1.26,19,4.44a19.27,19.27,0,0,1,10.3,14.39c1.1,6.06.82,11.84-1.44,17.07-2.81,6.51-8.27,9.82-15.09,11.45-8.87,2.1-18.14,1.11-27.49-.53-6.16-1.06-4.88-1.48-5,4C200.79,181.74,201,188.45,201.13,188.48Zm-.28-39.7c0,4.77,0,9.77,0,15,0,2.56.2,2.82,2.86,3.35a49.69,49.69,0,0,0,17.47.78c7.63-1.21,13.39-4.63,15.09-12.53,2.06-9.63-2.37-17.34-12.88-20.1-6.66-1.78-13.4-1.61-20.11-2.08-1.8-.12-2.51.42-2.47,1.95C200.92,139.47,200.85,144,200.85,148.78Z"/><path d="M129.91,209.59c0,3.74.38,4.25,3.05,4.24,6,0,12,.09,18,0,4.86-.07,9.71-.39,14.56-.58,2.15-.07,2.42.26,2.35,3.13,0,1.94-.18,3.93-.06,5.91.14,2.25-.72,2.47-2,2.43-6.56-.19-13.1-.43-19.66-.48q-13.35-.1-26.69.14c-2.87.06-3.18-.27-3.08-4.12.17-6.44.35-12.59.47-18.45q.24-13.31.39-24.63c.12-8.81.26-16.71.26-23.72q0-9.51-.28-16.82c-.15-4-.47-7.54-.78-10.55-.09-.83.88-.84,2-.83,5,0,10,.19,15,.2,10.45,0,20.89,0,31.34.09.54,0,1.08,0,1.62,0,1,0,1.41.22,1.39.87-.06,1.28-.05,2.61,0,4,0,.82-.56,1-1.68,1-7.67-.69-30.35-1.74-34-1.7-1.07,0-1.59.25-1.62,1q-.36,9.91-.83,24.94c0,1.33.52,1.84,1.91,1.85,10.44.06,20.89.49,31.32,1,1.42.08,1.4.56,1.34,1.62a48.16,48.16,0,0,0,0,6c.08,1.21-.16,1.7-1.41,1.5-4.74-.73-9.47-1.45-14.22-1.94-5.82-.61-11.66-.94-17.49-1.34-1.45-.09-1.49.73-1.48,1.84C129.65,171.39,129.88,200.39,129.91,209.59Z"/><path d="M313.89,122.28c4.43,0,8.67,0,12.91.09.36,0,1,1.36,1,2.07,0,3.43-.14,6.79-.38,10.05-.16,2.21.53,2.62,2,2.75,10.2.83,20,3.87,29.07,10.86a50.46,50.46,0,0,1,18.43,27c4.14,15.38,2,26.79-6.79,34.91-7.28,6.64-17,9.41-28.27,10.63-4.14.42-8.41.45-12.65.54-1.43,0-1.89.37-1.8,1.28.17,1.81.32,3.55.39,5.19.05,1.2-.38,1.32-2.36,1.29-3.17-.06-6.35-.06-9.52,0-1.46,0-2.32-.11-2.23-1.25.12-1.56,0-3.18.22-4.83.31-2.35.39-2.27-2.8-2.55-14.42-1.27-27.32-5.55-37.6-16.58a39.6,39.6,0,0,1-10.69-32.43c1.44-13,8.4-21.65,19.69-27.85a58.43,58.43,0,0,1,24.69-6.83c1.85-.12,3.71-.18,5.56-.17,1.06,0,1.5-.39,1.4-1.87-.22-3.16-.33-6.38-.45-9.65C313.73,124.13,313.83,123.28,313.89,122.28Zm.71,62.22V147.25c0-.52,0-1,0-1.55,0-1.76-.61-2.74-2.07-2.56-3.62.43-7.34.4-10.8,1.4-16.77,4.94-24.6,18.22-24.65,33.89a37.13,37.13,0,0,0,8.41,23.92c6.92,8.59,15.87,12.86,26.78,14.1,1.58.17,2.23-.13,2.22-1.48C314.41,206.69,314.55,184.88,314.6,184.5ZM326.74,203c.21.12.65,9.33.6,13.2,0,1,.42,1.34,1.78,1.4a44.17,44.17,0,0,0,14.54-1.77c18.6-5.1,25.83-23.3,17-45.85-6.16-15.41-17.18-23.79-30.79-25.73-2.5-.39-2.78.1-2.81,3.29-.11,11.49-.23,22-.28,31.62C326.71,187.83,326.74,195.78,326.74,203Z"/><path class="cls-1" d="M77.18,328.26c0,4.86,0,9.71,0,14.59,0,1.6.4,2.12,2.1,1.82,5.88-1.05,11.79-2.36,17.62-3.09,8.17-1,16-1,22.69,2.42,5.07,2.6,7.66,7.21,8.14,13.35a32,32,0,0,1-6.32,21.81,43,43,0,0,1-14,12.2c-8,4.55-16.19,6.58-24.44,8.19-5.76,1.13-11.52,2.29-17.27,3.32-1,.17-1.49-.06-1.46-1.08q.21-7.59.45-15.18c.11-3.55.33-7.12.35-10.66q.14-16.68.15-33.35c0-6.3,0-12.6-.16-18.88-.14-5.49-.48-10.93-.74-16.4-.09-1.88.24-2.2,2.14-2.42,5.21-.61,10.42-1.32,15.64-2.2,4.62-.78,9.24-1.56,13.84-2.78,8-2.14,16.06-4.72,24.09-7.37,1.29-.42,2-.48,1.81,1.25a28.84,28.84,0,0,0,0,5.57c.14,1.86.09,2.09-1.88,2.48-4.24.82-8.47,1.33-12.72,2.24-6.36,1.37-12.73,2.85-19.1,4.27-2.93.65-5.86,1.69-8.8,2.38-1.79.42-2.11,1.35-2.07,2.93C77.23,318.52,77.18,323.39,77.18,328.26Zm0,44.12v18.36c0,1.14,0,2.31,1.58,2,6.41-1.41,12.87-2,19.21-5.15,4.62-2.29,8.84-5.29,11.87-10a25.26,25.26,0,0,0,4.06-17.23c-.74-6.17-4.23-9.65-10.24-10.56A46.85,46.85,0,0,0,90,350c-3.46.5-7,1.21-10.42,1.68-2.21.31-2.39.43-2.4,2.66Q77.16,363.37,77.18,372.38Z"/><path class="cls-1" d="M414.1,235.85c0,.56.07,1,.07,1.47,0,2-.06,4.07,0,6.07.07,1.16-.25,1.71-1.48,1.91-4.85.79-9.71,1.61-14.57,2.69-5.71,1.26-11.42,2.79-17.14,4.31a1.72,1.72,0,0,0-1.46,1.94c.16,10.64.28,21.29.43,31.94,0,1.49,0,3,.1,4.47s.77,2.05,2.5,1.51q12.26-3.81,24.51-6.89c3.53-.89,7.07-1.61,10.83-2.4,0,.52,0,1.45,0,2.38s-.17,1.82-.15,2.72c.07,2.82.08,2.81-2.88,3.43-13.95,3-27.91,6.5-41.86,10.5-1.62.47-3.24,1-4.86,1.58-1.15.39-1.65,0-1.61-1.14q.29-7.54.54-15.09c.11-3.45.28-6.92.3-10.34.09-11.68.17-23.35.13-35,0-8.22-.22-16.38-.4-24.55-.06-2.92-.27-5.78-.44-8.66-.13-2.15,0-2.33,2.25-3,8.41-2.4,16.84-4.52,25.25-6.75,6.9-1.84,13.8-3.88,20.7-5.7,2.93-.77,2.95-.78,2.8,2.11a44.51,44.51,0,0,0,.07,4.48,1.72,1.72,0,0,1-1.66,2.07c-7.68,1.26-15.36,2.67-23,4.41-3.6.81-7.21,2-10.81,3.12a2.28,2.28,0,0,0-1.84,2.4c-.24,10.44-.57,20.91-.83,31.35-.06,2.36.14,2.48,2.41,1.83,6.5-1.87,13-3.57,19.47-5.36C405.59,238.55,409.71,237.14,414.1,235.85Z"/><path class="cls-1" d="M171.07,379.08c1.16-2.6,2.36-5.19,3.47-7.8,2.82-6.61,5.66-13.23,8.33-19.89a3.56,3.56,0,0,0-.35-3q-8.84-12.52-17.86-25-8.7-12.09-17.54-24.21c-2.47-3.4-5.11-6.65-7.68-10-.3-.4-.58-.83-1.07-1.52,1.11-.41,1.9-.73,2.69-1,4-1.29,8-2.55,12.05-4,.9-.32,1.35-.34,1.81.36q16.72,25.15,33.54,49.66a14.9,14.9,0,0,0,1.23,1.37,25.25,25.25,0,0,0,1.14-2.27q10.24-27.09,20.44-54.31c2-5.43,3.89-10.87,5.88-16.31a3.34,3.34,0,0,1,1.19-1.56c3.46-1.39,6.92-2.66,10.71-4.1a23.92,23.92,0,0,1-.74,2.34c-4,9.77-8.16,19.53-12.14,29.29q-8.05,19.71-15.92,39.37Q192.06,346.86,184,367.1c-1,2.6-2,5.2-3.11,7.78a3.84,3.84,0,0,1-1.54,1.76c-2.52,1-5,1.78-7.56,2.62C171.63,379.31,171.48,379.19,171.07,379.08Z"/><path class="cls-1" d="M470.13,231.6c0,8.59-.11,17.19,0,25.76.13,7.84.54,15.65.82,23.48,0,.59,0,1.2,0,1.8,0,1.09-.55,1.46-1.6,1.54-3.6.28-7.2.64-10.81,1.11-1.18.15-1.64-.28-1.6-1.41q.25-7.39.49-14.8c.12-3.49.3-7,.33-10.47q.13-16.05.17-32.08c0-6.67-.06-13.32-.17-20-.05-3.17-.3-6.31-.44-9.46-.07-1.39-.68-1.92-2.15-1.67-8.28,1.37-16.57,2.89-24.84,4.79-1.42.33-2,.19-1.94-1.32a43.27,43.27,0,0,0,0-5.22c-.1-1.45.34-2.15,1.89-2.36,4-.51,7.92-1.08,11.88-1.54,3.43-.4,6.85-.64,10.27-1.08q15.33-2,30.66-3c4.79-.31,9.59-.77,14.39-1.08,1.55-.09,2.19.37,2.05,2a51.18,51.18,0,0,0,0,5.4c0,1.16-.38,1.58-1.6,1.53-6-.26-12-.27-18-.16-2.4.05-4.81.17-7.2.22-1.32,0-2.05.49-2.11,1.92-.14,3.3-.46,6.61-.49,9.91C470.08,214.2,470.13,222.9,470.13,231.6Z"/><path class="cls-1" d="M.27,377.61q3-3.67,6.06-7.41a365,365,0,0,0,37.14-2.65q-2.44,4-4.89,8A353.74,353.74,0,0,1,.27,377.61Z"/><path class="cls-1" d="M282.31,333.9c.18-2.33.31-4.66.52-7s0-2.56-2.34-1.76c-13.58,4.65-25.83,5.28-36.12.11a21.91,21.91,0,0,1-12.12-15.72c-2.72-12.64.08-25.89,10.32-39.75a78.93,78.93,0,0,1,18.29-17.45A98.89,98.89,0,0,1,281.4,241.2c1.14-.46,1.66-1,1.54-2.18-.24-2.3-.41-4.63-.63-6.93-.14-1.48.14-2.22,2.06-2.79a103.17,103.17,0,0,0,10.59-4c1.48-.63,1.84-.31,1.73,1-.21,2.52-.38,5-.62,7.56-.13,1.34.29,1.71,1.67,1.23,7.73-2.68,15.31-4.24,22.56-4.05,11.64.29,20.72,4.52,25.14,15.08,2.36,5.65,2.63,12.27,1.52,19.38-1.39,8.86-5.39,17.23-11.47,25.14a83.24,83.24,0,0,1-24.35,21.41c-4.31,2.5-8.77,4.47-13.18,6.51-1.72.79-1.95,1.66-1.84,3,.22,2.61.36,5.25.57,7.86.13,1.53-.65,2.15-2.07,2.64-3.41,1.18-6.83,2.47-10.25,3.81C282.48,336.64,282.3,336.54,282.31,333.9Zm.84-75.87c0-3.18,0-6.36,0-9.54,0-2.6-.14-2.91-2.77-1.54a85.64,85.64,0,0,0-12.46,7.3C253,265.52,245.67,281.06,245.83,296c.14,11.76,4.78,19.81,14,23.77,6.19,2.67,13.35,2.58,21.37-.16a2.35,2.35,0,0,0,1.89-2.57c.09-11.49.29-23,.39-34.51C283.55,274.31,283.26,258,283.15,258Zm12.37,41.08c.14-.05.48,8.59.39,13,0,1.64.58,2,2.11,1.22,1.78-.89,3.57-1.72,5.34-2.66a52.93,52.93,0,0,0,16.63-14c11.37-14.3,15.3-28.51,11.87-42.12-4-15.77-18.35-19.27-33.92-14.24-1.77.57-2.11,1.55-2.12,3.07-.06,8.84-.24,17.72-.28,26.56C295.48,279.68,295.53,289.39,295.52,299.11Z"/></svg>