<svg id="Layer_1" data-name="Layer 1" xmlns="http://www.w3.org/2000/svg" viewBox="0 0 500 500"><defs><style>.cls-1{fill:#231f20;}</style></defs><title>lev_lovi</title><path class="cls-1" d="M.13,326.07V204.75H50.24V326.07H44.31V207.71H6.06V326.07Z"/><path class="cls-1" d="M76.68,323.11c.86,1,1.72,2,2.58,3H43.58V204.75H79.26c-.86,1-1.72,2-2.58,3H49.54v41.88H73.33l-2.16,3H49.54v70.55Z"/><path class="cls-1" d="M87.94,280.42A37.46,37.46,0,0,1,82,280V327h-6V205.69a38.31,38.31,0,1,1,11.89,74.73Zm0-73.65a27.69,27.69,0,0,0-5.93.61v69.47a27.69,27.69,0,0,0,5.93.61c17.89,0,32.38-15.82,32.38-35.35S105.83,206.77,87.94,206.77Z"/><path class="cls-1" d="M300.49,265.41A62.54,62.54,0,1,1,238,202.87,62.53,62.53,0,0,1,300.49,265.41ZM278,225.4c-23.25-23.26-60-24.21-82.13-2.1s-21.17,58.87,2.09,82.14,60.05,24.19,82.14,2.1S301.23,248.66,278,225.4Z"/><path class="cls-1" d="M214.27,247.9a38.32,38.32,0,0,1-56.15,33.91v44.26h-5.93V281.81a38.32,38.32,0,1,1,0-67.81v-9.25h5.93V214a38.31,38.31,0,0,1,56.15,33.9Zm-62.44,29.75a3.75,3.75,0,0,0,.36-.24v-59l-.36-.25a30.22,30.22,0,0,0-17.48-5.59c-17.86,0-32.35,15.82-32.35,35.34s14.49,35.35,32.35,35.35A30.16,30.16,0,0,0,151.83,277.65Zm56.51-29.75c0-19.52-14.49-35.34-32.38-35.34a30.22,30.22,0,0,0-17.48,5.59,2,2,0,0,0-.36.28v58.95a1.61,1.61,0,0,0,.36.27,30.16,30.16,0,0,0,17.48,5.6C193.85,283.25,208.34,267.41,208.34,247.9Z"/><path class="cls-1" d="M445.21,247.9a38.32,38.32,0,0,1-56.15,33.91v44.26h-5.93V281.81a38.32,38.32,0,1,1,0-67.81v-9.25h5.93V214a38.31,38.31,0,0,1,56.15,33.9Zm-62.44,29.75a3.75,3.75,0,0,0,.36-.24v-59l-.36-.25a30.22,30.22,0,0,0-17.48-5.59c-17.86,0-32.35,15.82-32.35,35.34s14.49,35.35,32.35,35.35A30.16,30.16,0,0,0,382.77,277.65Zm56.51-29.75c0-19.52-14.49-35.34-32.38-35.34a30.24,30.24,0,0,0-17.48,5.59,2,2,0,0,0-.36.28v58.95a1.61,1.61,0,0,0,.36.27,30.18,30.18,0,0,0,17.48,5.6C424.79,283.25,439.28,267.41,439.28,247.9Z"/><path class="cls-1" d="M312.7,288.71a38.31,38.31,0,0,1-50.2,36.42V203.81h40.57l-2.58,2.54h-32v44.52a37.37,37.37,0,0,1,5.93-.47A38.3,38.3,0,0,1,312.7,288.71Zm-5.93,0c0-19.53-14.49-35.35-32.38-35.35a28.27,28.27,0,0,0-5.93.61v69.47a27.62,27.62,0,0,0,5.93.61C292.28,324.05,306.77,308.21,306.77,288.71Z"/><path class="cls-1" d="M361.54,204.75,314.39,326.07H309.3L327,280.59l-30.92-75.84H302l28.07,67.92,26.4-67.92Z"/><path class="cls-1" d="M420.13,207.71v70.55h21.63l2.16,3H420.13v41.88h27.14c.86,1,1.72,2,2.58,3H414.17V204.75h35.68c-.86,1-1.72,2-2.58,3Z"/><path class="cls-1" d="M497.38,204.75c.86,1,1.72,2,2.58,3H477.85V326.07h-6V207.71H447.27l2.58-3Z"/></svg>