<svg id="Layer_1" data-name="Layer 1" xmlns="http://www.w3.org/2000/svg" viewBox="0 0 512 512"><defs><style>.cls-1{fill:#04d5bb;}.cls-2{fill:#fff;}.cls-3{fill:#191919;}</style></defs><title>fffff</title><path class="cls-1" d="M284.23,25.54q-.89,14.2-1.78,28.42C354,16.84,410.32,10.58,451.52,30.41,491.09,49.29,510.89,88,510.87,142c0,52.77-19.92,101.25-59.8,149.87-41.89,51-98.84,92.54-169,128.92.59,12.65.4,30.17,1,42.82-3.54,1.05-46.1,4.31-55.87,10.48.78-13.39.64-10.84,1.44-24.23-70.77,39-127.12,55.12-169.06,44C20,483.56.21,452.13.22,399.91Q.15,318.63,59.28,233.35c41.39-59.5,97.45-110.93,168.27-150q-.65-13.4-1.31-26.78,3.54-.75,11.83-4.69t18.36-9.3c5.14-2.72,10.36-5.81,15.68-9.19S281.51,27.36,284.23,25.54Zm-55.6,81.1c-50.62,27.88-91.29,67.65-122,117.18Q62.94,294.44,63,362.69q0,67,46.63,85.4c31.06,12.4,70.75,4.41,119-22.15,0-23.9.22-49.53.61-76.86s.78-53.26,1.19-77.8Q229.53,189,228.63,106.64Zm53.82-28.76q0,25.73-.59,73.57t-1.21,93q0,44.26.6,82.21c.36,25.33,0,49.18.42,70.88,47.82-24.78,88.18-58.64,119.47-102.59s47-86.81,46.95-131.14c0-43.77-14.38-75.9-43-94.41C373.92,49.55,333.1,51.65,282.45,77.88Z"/><path class="cls-2" d="M282.13,496.94c-2.9-1.71-6.36-3.6-10.47-5.74-6.49-3.36-11.27-5.75-15.05-7.51l-.07,0-.08,0c-6.39-2.51-12.3-5-18.55-7.7-2.66-1.14-5.36-2.29-8.12-3.45.32-5.51.47-11.06.62-16.44.16-5.92.33-12,.72-18l.11-1.66-1.48-.74c-67.92-34.13-124.49-83.5-168.13-146.75C22.56,232,2.74,176.91,2.72,125.12c0-26.39,4.8-47.35,14.34-62.29,9.43-14.75,23.79-24.07,42.7-27.7a99.69,99.69,0,0,1,19.1-1.77c36.38,0,83.24,16.65,147.47,52.38l3.92,2.19L230,83.44c-.23-5-.47-10-.72-15-.11-2.24-.22-4.47-.32-6.72,2.15,1.48,4.77,3.13,7.77,5,5.64,3.47,11.86,7,18.5,10.54a172.26,172.26,0,0,0,15.89,7.43,39.18,39.18,0,0,0,7.56,2.23c.43.08.82.16,1.2.25-.12,8.28-.11,17.62,0,25.36l0,1.51,1.36.68c78.36,39.2,130.29,74.41,168.38,114.16,40,41.43,58.68,83.23,58.65,131.56S488.11,446,449.81,468.31c-19.69,11.34-42.32,17.1-67.25,17.1-29.61,0-62.74-8.1-98.48-24.07l-3.71-1.66S281.81,490,282.13,496.94ZM280,135.35c0,17.93-.26,44.09-.61,69.67q-.21,15.38-.42,30.43c-.29,19.84-.55,38.57-.77,57.3,0,30.56.21,56.46.61,79.22l.17,11.21c.32,20.3.62,39.47,1,57.36l0,1.58,1.44.65c24,10.81,46.56,16.29,67.07,16.29h0a100.52,100.52,0,0,0,54-15.07c31.48-19.7,48.12-52.41,48.11-94.59,0-40.68-14.23-79.27-43.56-118-30.34-40-70.72-72.17-123.46-98.33l-3.62-1.8ZM135,73.59a81.21,81.21,0,0,0-29.25,5.12c-30,11.44-45.23,40.44-45.26,86.19,0,44.72,15.8,92.14,47,140.92,32.05,49.83,72.41,87.24,120,111.21l3.63,1.82V414.8c0-22.93.2-47.62.6-73.38V341c.4-25.78.77-50.13,1.2-73.21l-1.83-162.6-1.28-.7C192.1,83.68,161.08,73.59,135,73.59Z"/><path class="cls-3" d="M78.86,35.86c18.49,0,39.64,4.41,64.66,13.49,23.69,8.59,50.38,21.21,81.6,38.58L233,92.29l-.42-9c-.23-4.94-.47-9.82-.71-14.7,0-.7-.06-1.4-.1-2.11,1.16.74,2.4,1.51,3.73,2.33,5.68,3.5,11.95,7.07,18.64,10.62A174,174,0,0,0,270.24,87a41.15,41.15,0,0,0,7.15,2.19c-.09,7.77-.06,16.25.07,23.37l.05,3,2.71,1.35c37.66,18.84,68.85,36.61,95.38,54.33,28.91,19.31,52.56,38.72,72.33,59.34,39.56,40.93,58,82.18,57.94,129.82,0,47.31-19.83,83.87-57.29,105.7-19.33,11.12-41.54,16.77-66,16.77-29.25,0-62-8-97.46-23.85l-7.42-3.32.38,8.12.62,12.91q.38,7.88.74,15.75c-2-1.11-4.19-2.28-6.61-3.54-6.53-3.38-11.34-5.78-15.14-7.56l-.15-.06-.15-.06c-6.36-2.49-12.25-5-18.49-7.67l-6.5-2.77c.26-5,.4-9.92.53-14.75.16-5.9.33-12,.72-17.94l.21-3.31-3-1.48a444.2,444.2,0,0,1-94.26-63.6,451.7,451.7,0,0,1-72.93-82.33C24.92,231,5.24,176.39,5.22,125.12c0-25.91,4.67-46.41,14-60.95,9.17-14.34,22.6-23,41.08-26.59a96.93,96.93,0,0,1,18.61-1.72M233.64,422.91V414.8c0-22.92.2-47.6.6-73.34l0-1.21c.39-25.51.77-49.6,1.18-72.46v-.14Q235,228,234.55,188c-.31-27.18-.62-54.37-.92-81.42l0-2.91L231,102.26c-38.11-21-69.53-31.17-96-31.17a83.79,83.79,0,0,0-30.13,5.28C73.8,88.22,58,118,58,164.9c0,45.21,15.93,93.08,47.43,142.28,32.29,50.2,73,87.91,121,112.08l7.25,3.65M348.5,461.56a102.92,102.92,0,0,0,55.3-15.46,100,100,0,0,0,37-40.15c8.14-16.15,12.26-35.18,12.26-56.54,0-41.26-14.4-80.34-44.07-119.48-30.57-40.32-71.25-72.73-124.34-99.06l-7.25-3.6,0,8.09c.05,17.87-.26,44-.61,69.63q-.19,15.25-.42,30.23c-.28,19.9-.55,38.7-.77,57.5v.06c0,30.5.21,56.42.61,79.23l.17,11.22c.32,20.3.62,39.47,1,57.37l.07,3.15,2.87,1.3c24.32,11,47.23,16.51,68.1,16.51M78.86,30.86a101.3,101.3,0,0,0-19.58,1.82Q.2,44,.22,125.13c0,52,19.8,107.58,59.35,165.15,41.95,60.8,98.33,112,169.07,147.56-.79,12.09-.67,24.17-1.45,36.26,9.77,4.08,18.6,8,28.36,11.85,4,1.87,9,4.38,15,7.47s10.75,5.79,14.34,8.12q-.89-19-1.79-37.92c37.13,16.59,70.3,24.29,99.5,24.29,26,0,48.82-6.1,68.51-17.44,39.84-23.22,59.79-61.7,59.8-110,0-50.24-19.77-92.35-59.35-133.29-41.17-43-97.52-78.88-169.06-114.67-.16-8.59-.16-18.72,0-27.18-2.78-1-5-.76-10.35-2.93a170.88,170.88,0,0,1-15.66-7.31q-10-5.34-18.36-10.47c-5.5-3.39-9.49-6-11.84-8.06.43,9.07.88,18,1.31,27-60.22-33.5-109.76-52.7-148.69-52.7ZM228.64,414.8c-48.3-24.33-87.86-61.91-119-110.33S63,209,63,164.91q0-67.34,43.66-83.86a78.26,78.26,0,0,1,28.35-5c26.06,0,57.28,10.55,93.62,30.55.6,53.51,1.22,107.58,1.81,161.06q-.63,34.83-1.2,73.68t-.6,73.42ZM348.5,456.56c-19.92,0-41.94-5.21-66-16.07-.47-21.13-.8-44-1.19-68.56s-.59-50.95-.61-79.15c.33-28.4.79-57.64,1.19-87.72s.65-53.34.61-69.71C333.12,160.48,374,192,405,233c28.67,37.83,43.07,75.49,43,116.45,0,41.12-15.62,72.88-46.94,92.46-15.51,9.67-33.06,14.7-52.65,14.7Z"/></svg>