<svg id="Layer_1" data-name="Layer 1" xmlns="http://www.w3.org/2000/svg" viewBox="0 0 512 512"><defs><style>.cls-1{fill:#04d5bb;}.cls-2{fill:#9a72ff;}</style></defs><title>fffff</title><path class="cls-1" d="M284.23,25.54q-.89,14.2-1.78,28.42C354,16.84,410.32,10.58,451.52,30.41,491.09,49.29,510.89,88,510.87,142c0,52.77-19.92,101.25-59.8,149.87-41.89,51-98.84,92.54-169,128.92.59,12.65.4,30.17,1,42.82-3.54,1.05-46.1,4.31-55.87,10.48.78-13.39.64-10.84,1.44-24.23-70.77,39-127.12,55.12-169.06,44C20,483.56.21,452.13.22,399.91Q.15,318.63,59.28,233.35c41.39-59.5,97.45-110.93,168.27-150q-.65-13.4-1.31-26.78,3.54-.75,11.83-4.69t18.36-9.3c5.14-2.72,10.36-5.81,15.68-9.19S281.51,27.36,284.23,25.54Zm-55.6,81.1c-50.62,27.88-91.29,67.65-122,117.18Q62.94,294.44,63,362.69q0,67,46.63,85.4c31.06,12.4,70.75,4.41,119-22.15,0-23.9.22-49.53.61-76.86s.78-53.26,1.19-77.8Q229.53,189,228.63,106.64Zm53.82-28.76q0,25.73-.59,73.57t-1.21,93q0,44.26.6,82.21c.36,25.33,0,49.18.42,70.88,47.82-24.78,88.18-58.64,119.47-102.59s47-86.81,46.95-131.14c0-43.77-14.38-75.9-43-94.41C373.92,49.55,333.1,51.65,282.45,77.88Z"/><path class="cls-2" d="M282.45,85.3c-.15,8.46-.15,18.59,0,27.18,71.54,35.79,127.89,71.7,169.06,114.67,39.58,40.94,59.38,83,59.35,133.29,0,48.33-19.95,86.81-59.8,110-41.83,24.09-97.84,24.5-168-6.85q.9,19,1.79,37.92c-3.59-2.33-8.36-5-14.34-8.12s-10.95-5.6-15-7.47c-9.76-3.81-18.59-7.77-28.36-11.85.78-12.09.66-24.17,1.45-36.26C157.9,402.3,101.52,351.08,59.57,290.28,20,232.71.24,177.11.22,125.13q-.09-81,59.06-92.45c41.39-8.13,97.45,11.48,168.27,50.88-.43-9.07-.88-18-1.31-27,2.35,2.07,6.34,4.67,11.84,8.06s11.66,6.91,18.36,10.47a170.88,170.88,0,0,0,15.66,7.31C277.49,84.54,279.67,84.29,282.45,85.3Zm-53.82,21.34c-50.64-27.87-91.31-37.39-122-25.59Q63,97.67,63,164.91C63,209,78.59,256,109.64,304.47s70.7,86,119,110.33q0-34.55.6-73.42t1.2-73.68C229.85,214.22,229.23,160.15,228.63,106.64Zm53.83,28.71q.06,24.56-.61,69.71c-.4,30.08-.86,59.32-1.19,87.72q0,42.3.61,79.15c.39,24.59.72,47.43,1.19,68.56,47.8,21.54,87.41,20.86,118.69,1.37s47-51.34,46.94-92.46c0-41-14.38-78.62-43-116.45C374,192,333.12,160.48,282.46,135.35Z"/></svg>