<?xml version="1.0" encoding="utf-8"?>
<!-- Generator: Adobe Illustrator 24.0.3, SVG Export Plug-In . SVG Version: 6.00 Build 0)  -->
<svg version="1.1" id="Layer_1" xmlns="http://www.w3.org/2000/svg" xmlns:xlink="http://www.w3.org/1999/xlink" x="0px" y="0px"
	 viewBox="0 0 512 512" style="enable-background:new 0 0 512 512;" xml:space="preserve">
<style type="text/css">
	.st0{fill:#04D5BB;}
	.st1{fill:#191919;}
</style>
<g>
	<path class="st0" d="M284.9,21.1c-0.6,9.5-1.2,19-1.8,28.4c71.6-37.2,128-43.4,169.2-23.6c39.6,18.9,59.4,57.6,59.4,111.7
		c0,52.8-19.9,101.4-59.9,150C410,338.8,353,380.4,282.7,416.8c0.6,12.7,0.4,30.2,1,42.9c-3.5,1.1-46.2,4.3-55.9,10.5
		c0.8-13.4,0.6-10.9,1.4-24.3C158.4,485,102,501.1,60,490c-39.6-10.3-59.4-41.8-59.4-94.1c-0.1-54.2,19.7-109.8,59.1-166.7
		c41.4-59.6,97.5-111,168.4-150.2c-0.4-8.9-0.9-17.9-1.3-26.8c2.4-0.5,6.3-2.1,11.8-4.7c5.5-2.6,11.7-5.7,18.4-9.3
		c5.1-2.7,10.4-5.8,15.7-9.2C278.1,25.6,282.2,23,284.9,21.1z M229.2,102.3c-50.7,27.9-91.4,67.7-122.1,117.3
		c-29.2,47.1-43.7,93.6-43.7,139c0,44.7,15.5,73.1,46.7,85.5c31.1,12.4,70.8,4.4,119.1-22.2c0-23.9,0.2-49.6,0.6-76.9
		c0.4-27.3,0.8-53.3,1.2-77.9C230.4,212.2,229.8,157.3,229.2,102.3z M283.1,73.5c0,17.2-0.2,41.7-0.6,73.6
		c-0.4,31.9-0.8,63-1.2,93.1c0,29.5,0.2,57,0.6,82.3c0.4,25.4,0,49.2,0.4,71c47.9-24.8,88.3-58.7,119.6-102.7
		c31.3-43.9,47-86.9,47-131.3c0-43.8-14.4-76-43.1-94.5C374.7,45.2,333.8,47.3,283.1,73.5z"/>
	<path class="st1" d="M283.1,81c-0.1,8.5-0.1,18.6,0,27.2C354.7,144,411.1,180,452.4,223c39.6,41,59.4,83.1,59.4,133.4
		c0,48.4-20,86.9-59.9,110.2c-41.9,24.1-97.9,24.5-168.2-6.9c0.6,12.7,1.2,25.3,1.8,38c-3.6-2.3-8.4-5-14.4-8.1
		c-6-3.1-11-5.6-15-7.5c-9.8-3.8-18.6-7.8-28.4-11.9c0.8-12.1,0.7-24.2,1.5-36.3C158.4,398.3,102,347,60,286.2
		C20.4,228.5,0.6,172.9,0.6,120.8c-0.1-54.1,19.7-85,59.1-92.5c41.4-8.1,97.5,11.5,168.4,50.9c-0.4-9.1-0.9-18-1.3-27.1
		c2.3,2.1,6.3,4.7,11.9,8.1c5.6,3.4,11.7,6.9,18.4,10.5c5.1,2.7,10.4,5.2,15.7,7.3C278.1,80.2,280.3,79.9,283.1,81z M229.2,102.3
		c-50.7-27.9-91.4-37.4-122.1-25.6c-29.1,11.1-43.7,39-43.7,83.9c0,44.1,15.6,91.2,46.7,139.7c31.2,48.5,70.8,86.1,119.1,110.4
		c0-23.1,0.2-47.6,0.6-73.5c0.4-25.9,0.8-50.5,1.2-73.8C230.4,210,229.8,155.9,229.2,102.3z M283.1,131.1c0,16.4-0.2,39.6-0.6,69.8
		c-0.4,30.1-0.9,59.4-1.2,87.8c0,28.2,0.2,54.7,0.6,79.2c0.4,24.6,0.7,47.5,1.2,68.6c47.9,21.6,87.5,20.9,118.8,1.4
		c31.3-19.6,47-51.4,47-92.6c0-41-14.4-78.7-43.1-116.6C374.7,187.8,333.8,156.2,283.1,131.1z"/>
</g>
</svg>
