<svg xmlns="http://www.w3.org/2000/svg" viewBox="0 0 40.32 40.32"><defs><style>.cls-1{fill:#cedef5;}.cls-2{fill:#fff;}</style></defs><g id="Layer_2" data-name="Layer 2"><g id="Layer_1-2" data-name="Layer 1"><circle class="cls-1" cx="20.16" cy="20.16" r="20.16"/><path class="cls-2" d="M25.91,30.82H14.51a5,5,0,0,1-5-5V14.39a5,5,0,0,1,5-5h11.4a5,5,0,0,1,5,5v11.4A5,5,0,0,1,25.91,30.82ZM14.51,11a3.36,3.36,0,0,0-3.36,3.35v11.4a3.36,3.36,0,0,0,3.36,3.35h11.4a3.35,3.35,0,0,0,3.35-3.35V14.39A3.35,3.35,0,0,0,25.91,11Zm11.61,2.09a1,1,0,1,0,1.05,1A1,1,0,0,0,26.12,13.13ZM20.21,25.54a5.45,5.45,0,1,1,5.45-5.45A5.45,5.45,0,0,1,20.21,25.54Zm0-9.22A3.77,3.77,0,1,0,24,20.09,3.77,3.77,0,0,0,20.21,16.32Z"/></g></g></svg>