<svg id="Layer_1" data-name="Layer 1" xmlns="http://www.w3.org/2000/svg" viewBox="0 0 500 500"><defs><style>.cls-1{fill:#191919;}</style></defs><title>lev_lovi</title><path class="cls-1" d="M99.26,173.77q0,7.33-.1,17T99,208.83q0,7.14.26,16.34t.47,16.45a27.12,27.12,0,0,0-5.07-.44,29.08,29.08,0,0,0-5.07.41q.31-3.61.52-15.41t.21-22.34q0-8.37,0-19.29t-.68-17.94q1.77.21,12.26.33t19.28.11c4.14,0,9.11,0,14.94-.11s11.87-.17,18.15-.31q-.31,3.63-.52,15.15t-.21,22.09q0,8.48.05,19.6t.68,18.15a27.12,27.12,0,0,0-5.07-.44,29.08,29.08,0,0,0-5.07.41q.32-3.61.52-13.59t.21-19.18V179a27,27,0,0,0-.31-5.27q-6,0-11.63-.11l-10.29-.2q-6.61,0-12.46.1Z"/><path class="cls-1" d="M179.46,204.16v5.38q0,3.63.31,14t.31,13h2.27q4.56,0,12.1-.31t14.27-.93c0,1.1-.07,2.2-.1,3.31s.06,2.27.1,3.41q-2.07-.21-7.81-.31t-11-.11H170.05q.3-3.61.52-15.51t.2-22.45q0-22.23-.1-26.83t-.62-10.19q2.47,0,7.55.27t6.92.27q3.93,0,13.29-.27t11-.27c-.07,1.24-.14,2.49-.2,3.73s.13,2.35.2,3.53q-8.16-1.65-26.47-1.66h-2.58q0,2.59-.11,6.21c-.07,2.41-.14,4.69-.2,6.82v14.27h8.68q2.28,0,9-.31t9.72-.31l-.21,3.1.21,3.11q-9.72-.93-18.72-.94Z"/><path class="cls-1" d="M232.19,207.68V223.1q0,.51.37,10.35.15,3.93.15,8.17a26,26,0,0,0-5-.44,27.86,27.86,0,0,0-5,.41q.32-3.61.52-15.4t.2-22.33q0-8.38-.05-19.29t-.67-17.94l5.38.42q2.79,0,9.82-.21t8.37-.21q11.9,0,18.3,4.94t6.42,14q0,10.5-7.86,16.31t-22.54,5.81Zm0-4.14,5,.21q23.58,0,23.58-17.16,0-8.58-5.07-12.2t-16.13-3.62l-6.82.41q0,4.55-.26,12.58c-.17,5.36-.26,8.65-.26,9.89Z"/><path class="cls-1" d="M326.07,166.63c-.1,1.59-.21,3.17-.31,4.76q18.56,0,29.23,9Q365.27,189,365.26,203a28.45,28.45,0,0,1-10.34,22.54q-10.86,9.3-29.06,9.3.17,3.36.31,6.72a18.39,18.39,0,0,0-2.48-.31c-1-.06-1.9-.1-2.58-.1l-5.07.41q.21-3.36.41-6.72-18.34,0-29.23-9.3A28.13,28.13,0,0,1,277,203.23q0-14.05,10.21-22.74,10.72-9.11,29.1-9.1c-.08-1.59-.15-3.17-.23-4.76a9.14,9.14,0,0,0,2,.31c1,.07,2,.11,3.17.11a22.88,22.88,0,0,0,2.71-.16C324.89,166.79,325.59,166.7,326.07,166.63Zm-9.62,8.89q-13.12,0-21.09,8.17-7.55,7.76-7.55,19.54a26.41,26.41,0,0,0,8.07,19.55q8.06,8,20.57,8,0-6.21.11-13.24c.06-4.68.14-9.13.21-13.34Q316.61,189.85,316.45,175.52Zm9.31,0q0,4.46-.1,12.67t-.21,16q0,7.67.1,14.27t.21,12.31q12.4,0,20.52-8a26.36,26.36,0,0,0,8.12-19.49A26.93,26.93,0,0,0,347,184Q338.89,175.52,325.76,175.52Z"/><path class="cls-1" d="M413.85,243q-18.83,0-29.62-10.39t-10.81-28.38q0-17.69,11.06-28.33t29.37-10.65q18.72,0,29.52,10.49t10.8,28.49q0,17.37-11.11,28.07T413.85,243Zm0-4.13q14.06,0,21.77-9t7.7-25.75q0-17.06-7.5-25.9t-22-8.84q-14.07,0-21.82,9.1t-7.75,26.06q0,16.54,7.65,25.43T413.85,238.91Z"/><path class="cls-1" d="M64,286.56l11-.29c14.45,0,23.18,2.86,26.91,8.6,3.07,4.88,2.33,11.57-2.74,20.08Q82,344.64,32,344.63l-21-.57c-1.83,0-3.6,0-5.3.07a47,47,0,0,0-5.49.5Q5,339.6,19.5,323T46.57,291.7Q56.49,280.08,69.32,265t20.5-24.89c1.53,0,4.84.15,10,.45s8.67.44,10.59.44c1.76,0,6.87-.14,15.28-.44s13.46-.45,15.22-.45l-3.07,4.44c-.8,1.48-1.59,3-2.38,4.45q-5.62,0-11.25-.35c-11.15-.7-17.36-1-18.79-1H101a45.07,45.07,0,0,0-5.27.43q-5.17,5.88-11,12.91T64,286.56ZM60.06,292q-6.16,7.44-12.36,14.87Q39.33,317.31,34,324.1T24.51,337a51.92,51.92,0,0,0,11.12,1.29A66.66,66.66,0,0,0,64.76,332a48.09,48.09,0,0,0,20.16-17.44q14.83-23.31-14.15-23.3c-.86,0-2.61.12-5.28.35S61,292,60.06,292Z"/><path class="cls-1" d="M218,240.06a13.71,13.71,0,0,0,4.11.61l5.73-.61c-1.9,2.77-7.37,11.86-18.46,27.25a564.27,564.27,0,0,1-35.72,44.47c-13.92,15.78-24.5,26.54-29.86,32.28l-7.63-.58-8.14.58c7.14-5.93,13.37-11.42,18.82-16.49q2.91-2.73,6.64-6.46c-.22-2.29-1.48-9.55-2.51-21.8a295.79,295.79,0,0,1-.82-35.85c.46-12.8,1.28-20.59,1.05-23.37l6.93.58,7.09-.61c-1.62,12.23-2,20-2.1,23.23-.14,4.78-.15,11.16.31,19.14.25,8,2.49,25.64,2.62,25.64,2.31-2.39,8.25-9,15.36-17.4,10.13-12,16.9-21.07,21.27-27.1C209.92,253.44,214.81,245.6,218,240.06Z"/><path class="cls-1" d="M281.1,240.09c0,2.2,0,4.4,0,6.6,14.12,0,25.68,4.16,36.1,12.48A59.34,59.34,0,0,1,338,290.57c3.38,12.62,1.28,23-7.66,31.26-9.32,8.6-24.52,12.91-44.11,12.91.35,3.1.69,6.21,1,9.32a35.32,35.32,0,0,0-4.14-.44c-1.72-.09-3.15-.14-4.29-.14l-8.4.58q.33-4.67.63-9.32c-19.76,0-35.32-4.31-45.21-12.91-9.38-8.12-12.12-18.45-9.55-31a55.48,55.48,0,0,1,18.78-31.54c10-8.41,21.21-12.62,35.18-12.62q-.15-3.3-.28-6.6a8.15,8.15,0,0,0,2.27.43c1.07.1,2.24.15,3.54.15a20.49,20.49,0,0,0,3-.22Q280.32,240.24,281.1,240.09Zm-10.59,12.34c-10.26,0-18.6,3.77-26,11.32a48.24,48.24,0,0,0-13.27,27.1c-1.57,10.71.89,19.75,8.34,27.11s18.2,11,31.41,11q-.06-8.61,0-18.35t.16-18.5Q270.82,272.29,270.51,252.43Zm10.94,0q.35,6.17.85,17.56t.94,22.16q.58,10.61,1.23,19.78T285.74,329c13.09,0,23.62-3.71,30.62-11.12s9-16.41,6.73-27a52.1,52.1,0,0,0-14.75-26.67C300.34,256.35,291.71,252.43,281.45,252.43Z"/><path class="cls-1" d="M366.55,292.15c.93,2.48,1.86,5,2.78,7.45,1.26,3.35,3.81,9.8,7.71,19.36s6.34,15.59,7.27,18.07H388q7.39,0,19.46-.43c8-.29,15.52-.72,22.45-1.29q1.14,2.29,2.26,4.59l2.67,4.73q-3.6-.28-13.2-.43t-18.36-.14h-33q-1.11-5-6.16-21.52t-9.86-31.13q-10.09-30.84-12.3-37.22t-5.31-14.13c1.84,0,4.67.12,8.52.37s6.46.38,7.85.38c2.91,0,7.8-.12,14.61-.38s10.82-.37,12-.37q1.26,2.58,2.51,5.18l2.82,4.89c-7.15-1.53-17.64-2.29-31.67-2.29h-3c.9,2.39,1.93,5.25,3.1,8.6s2.27,6.5,3.29,9.46l7.38,19.79h11.74c2.05,0,6.05-.14,12-.43s10.2-.43,12.89-.43l1.95,4.3,2.51,4.31c-9.47-.86-18.29-1.29-26.6-1.29Z"/><path class="cls-1" d="M427.77,247.26l33.14,45.19q8.54,11.63,19.71,26.75T500,344.09a63,63,0,0,0-8.85-.61,47.71,47.71,0,0,0-8,.58q-2.91-5-13.56-21t-20.73-30.62L417.8,247.26h-3.68c-9.65,0-17,.63-22.09,1.87l-2.19-4.31q-1.45-2.35-2.9-4.73c2.6,0,8.27.1,17.05.29s13.45.29,14,.29q5.52,0,13.58-.15t16.76-.43l3.46,4.45a61.6,61.6,0,0,0,4.28,4.59,94.15,94.15,0,0,0-11.27-1.44c-4.08-.28-8.24-.43-12.51-.43Z"/></svg>