<svg id="Layer_1" data-name="Layer 1" xmlns="http://www.w3.org/2000/svg" xmlns:xlink="http://www.w3.org/1999/xlink" viewBox="0 0 500 500"><defs><style>.cls-1{fill:url(#linear-gradient);}.cls-2{fill:url(#linear-gradient-2);}.cls-3{fill:url(#linear-gradient-3);}.cls-4{fill:url(#linear-gradient-4);}.cls-5{fill:url(#linear-gradient-5);}.cls-6{fill:url(#linear-gradient-6);}.cls-7{fill:url(#linear-gradient-7);}.cls-8{fill:url(#linear-gradient-8);}.cls-9{fill:url(#linear-gradient-9);}.cls-10{fill:url(#linear-gradient-10);}</style><linearGradient id="linear-gradient" x1="57.52" y1="-15.25" x2="82.13" y2="436.74" gradientUnits="userSpaceOnUse"><stop offset="0.38"/><stop offset="0.42" stop-color="#000706"/><stop offset="0.48" stop-color="#001916"/><stop offset="0.55" stop-color="#013831"/><stop offset="0.63" stop-color="#026256"/><stop offset="0.72" stop-color="#039885"/><stop offset="0.8" stop-color="#04d5bb"/></linearGradient><linearGradient id="linear-gradient-2" x1="129.5" y1="-19.17" x2="154.1" y2="432.82" xlink:href="#linear-gradient"/><linearGradient id="linear-gradient-3" x1="226.76" y1="-24.47" x2="251.37" y2="427.53" xlink:href="#linear-gradient"/><linearGradient id="linear-gradient-4" x1="339.72" y1="-30.62" x2="364.32" y2="421.38" xlink:href="#linear-gradient"/><linearGradient id="linear-gradient-5" x1="426.28" y1="-35.33" x2="450.89" y2="416.67" xlink:href="#linear-gradient"/><linearGradient id="linear-gradient-6" x1="418.07" y1="-34.88" x2="442.68" y2="417.11" xlink:href="#linear-gradient"/><linearGradient id="linear-gradient-7" x1="365.24" y1="-32.01" x2="389.85" y2="419.99" xlink:href="#linear-gradient"/><linearGradient id="linear-gradient-8" x1="206.15" y1="-23.34" x2="230.76" y2="428.65" xlink:href="#linear-gradient"/><linearGradient id="linear-gradient-9" x1="96.7" y1="-17.39" x2="121.31" y2="434.61" xlink:href="#linear-gradient"/><linearGradient id="linear-gradient-10" x1="47.14" y1="-14.69" x2="71.75" y2="437.31" xlink:href="#linear-gradient"/></defs><title>lev_lovi</title><path class="cls-1" d="M15.26,223.81q10.81,3.09,25,7.31L66.73,239q10.49,3,24.15,6.5l24.39,6.23a41.33,41.33,0,0,0-2.78,7.27,43.73,43.73,0,0,0-1.52,7.63q-5.2-2-22.46-7.24T55.73,249.7q-12.33-3.52-28.41-8T.64,235.1q1.07-2.5,5.65-17.89t8.27-28.33q2.61-9.12,6.13-22T27.87,140q5.19,2,22.08,7.14t32.4,9.59q12.48,3.59,28.86,8.18t27,6.65a41.2,41.2,0,0,0-2.78,7.27,43.45,43.45,0,0,0-1.52,7.62q-5.21-2-19.79-6.48T86,171.62l-7-2-6.84-2-6.24-1.78-5.48-1.57L55.86,163l-4-1.13-3.2-.91-2.59-.74L44,159.62l-1.82-.52a41.36,41.36,0,0,0-7.89-1.77q-2.52,8.83-5.05,17.07t-4.63,15q-2.79,9.75-5.09,18.37T15.26,223.81Z"/><path class="cls-2" d="M123.31,104l4.85,6.65q3.26,4.47,13,17t12.12,15.84l2.82-2.05q5.63-4.11,14.67-11.28t16.82-14l2.85,4.19,3.2,4.12q-2.74,1.61-9.93,6.65T170,140.86L145.4,158.74q-2.88-4.76-13.34-19.65t-20-28q-20-27.5-24.31-33.1T77.84,66q3.07-2.23,9.58-6.47t8.81-5.9q4.86-3.54,16.19-12.31T125.8,31.06l3.11,4.8L132.34,40q-11.59,5.31-34.23,21.8l-3.2,2.33c1.56,2.13,3.37,4.72,5.47,7.76l5.89,8.63,12.85,17.65,10.74-7.82q2.82-2.06,10.85-8.49t11.74-9.14l2.55,4,3,3.65q-12.85,7.6-24,15.71Z"/><path class="cls-3" d="M214.58,66.8l3.91,23.26q.13.8,3.18,15.53,1.22,5.89,2.3,12.3a39.23,39.23,0,0,0-7.61.59,42.61,42.61,0,0,0-7.38,1.89q-.45-5.55-3.13-23.39t-5.34-33.75q-2.13-12.63-5-29.09T190,7.24l8.22-.74q4.22-.7,14.78-2.8t12.58-2.43q17.94-3,28.87,2.81t13.22,19.49q2.67,15.82-7.72,26.59T227.38,64.65Zm-1.05-6.24,7.55-1q35.56-6,31.22-31.87-2.18-13-10.74-17.13T216.3,9.23l-10.19,2.36c.77,4.56,1.69,10.91,2.8,19s1.8,13.13,2.11,15Z"/><path class="cls-4" d="M378.91,33.91,375,40.08Q400,53.64,407.74,73.54q7.51,19-2.76,37.94-10,18.36-30.37,22.75-21.41,4.58-45.86-8.73l-4.5,9.25a26.17,26.17,0,0,0-3.11-2.22c-1.34-.85-2.47-1.53-3.4-2l-7.11-3.15,5.47-8.74q-24.68-13.41-32.5-33.87-7.38-19.32,2.53-37.53,10.29-18.9,30.36-23.11,21.09-4.39,45.77,9l3.17-6.56A14.15,14.15,0,0,0,368,28.49q1.85,1.19,4.19,2.46a35.91,35.91,0,0,0,3.75,1.77C377.22,33.26,378.22,33.66,378.91,33.91Zm-19.43,4.93q-17.64-9.6-34.32-4.44-15.81,4.91-24.43,20.74a40.41,40.41,0,0,0-3.45,32.17q5,16.6,21.84,25.75,4.54-8.34,9.82-17.72t10-17.78ZM372,45.64q-3.25,6-9.4,17l-12,21.32Q345,94.2,340.35,103.17t-8.72,16.69q16.68,9.08,33.45,4.23a40.32,40.32,0,0,0,25.16-20.26q8.31-15.28,4.05-31.3Q389.66,55.24,372,45.64Z"/><path class="cls-5" d="M381.63,213.49q-7.65-27.77,3.3-47.92t37.48-27.48q26.08-7.18,46.29,4.81t27.64,39q7.61,27.62-3.48,47.82t-37.64,27.51q-25.62,7.06-45.93-5T381.63,213.49Zm6.1-1.68q5.72,20.74,22.12,28.45t41.11.9q25.17-6.93,35.17-21.58t4.11-36q-5.72-20.76-22.29-28.49t-41.59-.86Q402,161,391.94,175.86T387.73,211.81Z"/><path class="cls-6" d="M445.59,304.25l-4.24,11.43q-9.11,22.77-22.39,30.4-11.25,6.41-24.33,1.17-30.4-12.17-13.53-54.32L389,274.8c.62-1.57,1.2-3.07,1.72-4.51a28.25,28.25,0,0,0,1.21-4.54q5,2.5,21.83,9.59t32,13.14q11.9,4.77,27.43,10.9t25.88,9.25q-1.19,2.92-5.76,13t-6,13.77q-1.35,3.38-7.19,19.28T472.93,374l-4.37-2.26-4.73-1.38q2.76-6.9,6-14,9.66-21,10.72-23.66,1.23-3.09,2.14-5.36a60.73,60.73,0,0,0,2-6.28q-5.79-3-12.9-6.1T445.59,304.25Zm-5.76-1.79-15.05-6.54q-10.69-4.28-17.71-6.92t-13.55-4.57A55.19,55.19,0,0,0,388,294.48q-5.52,13.81-2.22,24.25t14.72,15q23.86,9.56,35.92-20.56c.35-.88.92-2.64,1.69-5.28S439.44,303.44,439.83,302.46Z"/><path class="cls-7" d="M364.77,477.32a25.37,25.37,0,0,0-5.17,2.84l-4.38,3.94q-.47-5.33-4.36-33.78-4.68-33.15-7.85-54.58-4.39-28.9-6.4-39.12l5.27-3,5.06-4.36q.63,11.58,1.49,21.25c.21,2.31.51,5,.88,8.1q3.63,2.09,23.72,12.66,26.79,14,39.66,20.38,21.56,10.69,27.18,12.35l-8.5,5.24-7.23,6Q405,424,399.77,421.09q-7.68-4.26-20.67-11.24t-26.1-14l-1.31.35q.48,4.5,2.72,20,3.27,22.13,5,33.09Q362.56,467.64,364.77,477.32Z"/><path class="cls-8" d="M218,497.82l1.26-7.19q-28.23-3.08-43-18.54-14.19-14.76-11.85-36.15,2.27-20.76,19.47-32.57Q201.94,391,229.61,394l.65-10.27a27,27,0,0,0,3.72.89c1.56.27,2.87.46,3.91.58l7.78.22-1.75,10.15q27.91,3.06,42.92,19,14.16,15.09,11.91,35.69-2.34,21.38-19.33,32.9-17.84,12.06-45.77,9l-.45,7.27a13.62,13.62,0,0,0-3-.8c-1.45-.27-3.05-.5-4.82-.69a37.4,37.4,0,0,0-4.15-.22C219.77,497.78,218.69,497.79,218,497.82Zm2-13.48q.73-6.76,2.26-19.25t3-24.26q1.27-11.64,2.22-21.72t1.73-18.76q-18.87-2.06-32.55,8.78a40.34,40.34,0,0,0-15.59,28.3q-1.89,17.29,8.12,30.49Q199.92,482.16,219.9,484.34Zm14.16,1.55q20,2.19,33.44-8.92,12.76-10.53,14.73-28.47a40.37,40.37,0,0,0-9-31.06q-10.93-13.47-30-15.54-1,9.44-2.36,20.12t-2.53,20.25Z"/><path class="cls-9" d="M130.11,399.33l5.58-6q3.75-4.07,14.14-16t13.17-15l-2.55-2.36q-5.12-4.72-13.93-12.21t-17-13.76l3.55-3.61,3.43-3.95q2.1,2.38,8.45,8.45t12.27,11.55L179.54,367q-4.11,3.75-16.68,16.91t-23.53,25q-23.09,25-27.74,30.29t-9.88,12.1c-1.86-1.71-4.59-4.43-8.21-8.13S87.39,437,86,435.7q-4.41-4.08-15.22-13.48T58.11,411.1l4.11-4,3.43-4.19q7.47,10.35,28.05,29.34l2.91,2.68c1.78-1.94,4-4.22,6.55-6.87s5-5.13,7.32-7.46l14.81-16.05-9.77-9q-2.56-2.35-10.44-9t-11.25-9.74l3.45-3.28,3-3.7q10,11.13,20.08,20.47Z"/><path class="cls-10" d="M21.57,321.71l46.56-17.83q12-4.59,27.53-10.63T121,282.47a40.71,40.71,0,0,0,2.14,7.48,43.65,43.65,0,0,0,3.36,7q-5.34,1.55-21.93,7.56T72.86,316.3L26.32,334.13l1.76,4.58q6.9,18,13,28.08l-4.54,1.4-4.76,2.16q-1.93-5-8-21.83t-6.49-17.84q-2.73-7.11-6.88-17.53T1.45,291.3L6.2,290a21.9,21.9,0,0,0,4.56-2.25,106.18,106.18,0,0,0,3.3,13.05q2.31,7.33,5.36,15.31Z"/></svg>