<svg id="Layer_1" data-name="Layer 1" xmlns="http://www.w3.org/2000/svg" viewBox="0 0 500 500"><defs><style>.cls-1{fill:#191919;}</style></defs><title>lev_lovi</title><path class="cls-1" d="M405.45,344.41c-15.87-7.23-28.31-13.52-36.95-23s-12.44-20.63-11.22-35c1.2-14,7-25.3,17.27-32s23.19-7.56,38.54.51c15.67,8.33,27.4,22.6,35.47,38.89S460,326,458.88,339.19c-1.1,12.92-6.39,17.87-16.11,17.56S420.69,351.44,405.45,344.41Zm.41-4.76c11.83,5.51,21.14,8.4,28,6.61s10.83-8.24,11.89-20.79a72.76,72.76,0,0,0-6.67-37.28c-5.56-11.78-14.3-22.18-26.42-28.58-11.8-6.17-21.4-5.51-28.66-.12s-11.52,15.33-12.64,28.7c-1.11,13.09,1.35,23.48,7.35,31.8S393.85,334.11,405.86,339.65Z"/><path class="cls-1" d="M117.8,138.87v7.57q0,5.12.41,19.72t.4,18.4c1,.12,2,.26,3,.41,4,.6,9.24,1.43,15.84,2.9s12.81,3.15,18.67,4.83c0,1.5-.09,3-.13,4.5s.09,3.17.13,4.75a94.06,94.06,0,0,0-10.21-4,139.27,139.27,0,0,0-14.42-4.05,126.63,126.63,0,0,0-26-3.11q.39-5.13.68-22c.17-11.24.28-21.84.27-31.82q0-31.53-.14-38.06t-.81-14.51a73.9,73.9,0,0,1,9.88,1.52c4.44,1,7.45,1.78,9.07,2.14,3.42.8,9.23,2.1,17.4,4.73s13,4.76,14.41,5.37l-.27,5,.27,5a104.49,104.49,0,0,0-34.65-13.6c-1.13-.23-2.26-.44-3.38-.64,0,2.43,0,5.33-.14,8.71s-.18,6.57-.27,9.57v20.1q5.69.85,11.37,2.22c2,.48,5.91,1.28,11.78,2.88a121.11,121.11,0,0,1,12.72,4.17l-.27,4.17.27,4.38a114.57,114.57,0,0,0-24.5-9.09Q123.49,139.71,117.8,138.87Z"/><path class="cls-1" d="M187.93,169.48v20.84q0,.7.48,14.24c.14,3.61.19,7.33.19,11.15a45.14,45.14,0,0,0-6.49-3.9,36.5,36.5,0,0,0-6.5-2.58q.4-4.74.68-20.66t.27-30.26q0-11.4-.07-26.28c-.06-9.93-.33-18.22-.88-24.89,2.35,1.43,4.69,2.9,7,4.4s6.73,3.7,12.86,7.22,9.8,5.78,11,6.51c10.38,6.59,18.37,14.13,24,22.16s8.39,16,8.39,23.91c0,9.16-3.42,14-10.29,14.78s-16.7-2.92-29.5-10.38Q193.48,172.52,187.93,169.48Zm0-5.59c2.16,1.28,4.33,2.59,6.49,3.92,20.58,11.87,30.87,11.25,30.86-3.95a33.82,33.82,0,0,0-6.63-20.45c-4.41-6-11.46-12.26-21.11-18.14q-4.47-2.43-8.94-4.74c0,4.09-.11,9.68-.33,16.8s-.34,11.51-.34,13.19Z"/><path class="cls-1" d="M103.43,310c3.47.41,6.95.64,10.42.72,14,.63,24.42,1.6,31.27,5.75,5.77,3.48,8.67,9,8.67,17,0,18.19-13,32.79-38.85,32.35A114.74,114.74,0,0,1,98,363.4c-1.45-.27-2.82-.55-4.13-.8a33.27,33.27,0,0,0-4-.54q.41-4.62.67-20.19t.28-29.51q0-11-.08-25.27t-.87-23.73c1.8.48,5.86,1.74,12.18,3A88,88,0,0,0,114.94,268a108.82,108.82,0,0,0,17.59-1,176.6,176.6,0,0,0,17.6-3.32c-.14,1.43-.27,2.86-.41,4.29.14,1.37.28,2.73.41,4.1a94.93,94.93,0,0,1-13,2,143.38,143.38,0,0,1-22.2.13c-1.89-.08-3.54-.19-4.94-.31s-3.27-.16-5.62-.2q-.54,5.47-.74,12.08T103.43,310Zm.41,5.2q-.2,7-.41,14,0,9.84.14,16.28c.08,4.28.3,8.39.67,12.3a34.61,34.61,0,0,0,9.75,2.1c8.47.39,15.13-2.13,20-6.61a23,23,0,0,0,7.25-17.47c0-14.91-9.25-19.66-27.75-20.34-.81-.05-2.39,0-4.74,0A40.05,40.05,0,0,1,103.84,315.23Z"/><path class="cls-1" d="M236.34,222.91a28,28,0,0,0,5-2.34l6.61-4.46c-1.53,3.52-6.09,14.8-13.67,33.72q-13.14,33-21.52,54c-7.48,18.89-12.45,31.47-14.89,38.08q-3.1,1.25-6.21,2.42-3.1,1.71-6.22,3.35,5.28-10.71,9.48-19.91c1-2.18,2.12-4.76,3.38-7.72-1-1.69-4.43-6.84-10.28-15.74-7.85-11.81-13.73-20.81-17.6-26.6-6.5-9.69-10.79-15.75-12.86-17.74,2.84-.67,5.68-1.42,8.53-2.22q4-1.68,8-3.52c5.23,9.51,8.57,15.36,10,17.81,2.17,3.57,5.12,8.28,8.86,14.06s11.93,18.37,11.92,18.35c1.26-2.9,4.39-10.73,8.46-20.84,5.78-14.46,10-25.4,12.85-32.65C230.8,238.76,234.18,229.4,236.34,222.91Z"/><path class="cls-1" d="M310.8,175.78c-.13,2.14-.27,4.29-.4,6.43,16.18-8.4,28.94-9.82,38.27-5.33,9,4.28,13.44,13,13.43,25.26,0,12-4.51,22.92-13.53,33.93-9.48,11.54-22.38,20.94-38.26,29.18.14,2.86.09,6.83.23,9.69-.81.24-10.44,1-12.65,2.37.18-3,.15-2.45.33-5.48-16,8.83-28.78,12.47-38.27,10-9-2.34-13.44-9.45-13.44-21.27q0-18.4,13.37-37.7a111.54,111.54,0,0,1,38.09-34q-.15-3-.29-6.07a13.82,13.82,0,0,0,2.67-1.06q1.88-.89,4.16-2.1c1.16-.62,2.34-1.32,3.55-2.08S310.19,176.19,310.8,175.78Zm-12.58,18.36a74.55,74.55,0,0,0-27.61,26.52q-9.9,16-9.88,31.43c0,10.12,3.5,16.54,10.55,19.34s16,1,26.94-5q0-8.12.13-17.4t.27-17.61Q298.43,212.77,298.22,194.14Zm12.18-6.51q0,5.82-.14,16.65T310,225.33q0,10,.14,18.61c.08,5.73,0,11.13.09,16a74.9,74.9,0,0,0,27-23.22c7.08-9.93,10.64-19.65,10.63-29.69s-3.25-17.18-9.74-21.36C331.1,181.21,321.86,181.69,310.4,187.63Z"/><path class="cls-1" d="M380.45,192.69l.06,7q0,4.74.55,18.23t.55,17q1.49-.17,3-.3c4-.35,9.25-.8,15.84-.82a158,158,0,0,1,18.68,1.06c0,1.44-.06,2.87-.1,4.31s.12,3,.17,4.49a67.44,67.44,0,0,0-10.23-2,101.89,101.89,0,0,0-14.42-.86,136.46,136.46,0,0,0-26,2.9q.36-4.81.51-20.44t0-29.44q-.22-29.1-.42-35.1t-.92-13.18a88.14,88.14,0,0,1,9.87-1.34c4.42-.36,7.44-.46,9.07-.57a146.19,146.19,0,0,1,17.39-.3A96.52,96.52,0,0,1,418.51,145c-.08,1.61-.16,3.22-.23,4.83.1,1.56.2,3.12.31,4.68-7.16-2.92-18.73-5.48-34.69-4.06-1.13.1-2.26.21-3.38.34,0,2.26,0,5-.07,8.14s-.13,6.16-.2,9l.15,18.68q5.69-.67,11.37-.85c2-.05,5.9-.3,11.77-.18a82.8,82.8,0,0,1,12.73,1.21c-.08,1.34-.16,2.67-.23,4l.3,4.11a81.55,81.55,0,0,0-24.52-3.06Q386.14,192,380.45,192.69Z"/><path class="cls-1" d="M468.79,175.18l.35,42.65q.09,11,.27,25.3t1.08,24.18a52.27,52.27,0,0,0-6.68-5.49,39.83,39.83,0,0,0-6.66-3.85q.36-4.47.52-19.4t0-28.73l-.34-42.63c-1.4-.89-2.81-1.73-4.21-2.55-11.08-6.39-19.89-8.93-26.48-9.73l.24-4c-.1-1.52-.21-3-.31-4.55a111,111,0,0,1,20,8.22,144.81,144.81,0,0,1,16.32,10,177.86,177.86,0,0,1,16.21,12.75A225.67,225.67,0,0,1,499.44,198c-.13,1.24-.26,2.48-.38,3.72a25.44,25.44,0,0,0,.44,4.81A157.81,157.81,0,0,0,488,192.58a149.33,149.33,0,0,0-14-13.27Q471.39,177.17,468.79,175.18Z"/><path class="cls-1" d="M310.4,189.31c0,1.91,0,4.2,0,6.15,16.19,8.1,29,16.23,38.27,25.95,9,9.27,13.44,18.8,13.43,30.17,0,10.95-4.51,19.66-13.53,24.91-9.47,5.45-22.15,5.55-38-1.55.13,2.86.27,5.72.4,8.59-.81-.53-1.89-1.14-3.24-1.84s-2.48-1.27-3.39-1.69c-2.21-.87-4.21-1.76-6.42-2.69.18-2.73.15-5.47.33-8.2A101.58,101.58,0,0,1,260,235.7c-8.95-13-13.43-25.61-13.44-37.38q0-18.34,13.37-20.93c9.37-1.84,22.06,2.6,38.09,11.52-.1-2-.2-4.06-.29-6.12a21.52,21.52,0,0,0,2.68,1.83q1.88,1.15,4.15,2.37c1.15.61,2.35,1.16,3.55,1.65A21.07,21.07,0,0,0,310.4,189.31Zm-12.18,4.83c-11.47-6.31-20.67-8.47-27.61-5.8-6.59,2.51-9.88,8.82-9.89,19,0,10,3.53,20.62,10.56,31.6s16,19.46,26.94,25c0-5.21,0-10.76.13-16.62s.18-11.42.28-16.68C298.49,218.49,298.35,206.25,298.22,194.14Zm12.18,6.49c0,3.71,0,9-.14,15.78s-.19,13.43-.27,19.86,0,12.36.14,17.92.16,10.73.27,15.52c10.82,4.87,19.79,4.72,26.87.31s10.62-11.63,10.62-20.93-3.25-17.8-9.74-26.36C331.12,213.46,321.87,206.32,310.4,200.63Z"/><path class="cls-1" d="M12.82,135.93q0,11-.14,25.59t-.26,27.27q0,10.68.33,24.07t.61,23.91a63.53,63.53,0,0,0-6.63,7A101.11,101.11,0,0,0,.1,252.72q.41-6,.67-24.07t.27-34q0-12.6-.06-28.94c0-10.88-.35-19.52-.88-25.91,1.54-1.62,6.89-8.4,16-17.51a155.6,155.6,0,0,1,25.25-20.47A120.28,120.28,0,0,1,60.94,91.6,104.37,104.37,0,0,1,84.69,85q-.39,5.25-.67,21.85t-.28,31.77q0,12.18.07,28.14t.88,25.91a24.54,24.54,0,0,0-6.63.86,30.29,30.29,0,0,0-6.63,2.57q.41-5.37.67-19.89c.19-9.67.26-18.94.27-27.82v-43a40.58,40.58,0,0,0-.4-7.52,116.79,116.79,0,0,0-15.23,5.34,114.9,114.9,0,0,0-13.46,6.92A128.9,128.9,0,0,0,27,122.19,182.87,182.87,0,0,0,12.82,135.93Z"/></svg>