<svg id="Layer_1" data-name="Layer 1" xmlns="http://www.w3.org/2000/svg" viewBox="0 0 500 500"><title>lev_lovi</title><path d="M14.46,181.07q0,11-.15,25.53c-.1,9.67-.22,18.7-.31,27.08q0,10.71.38,24.5t.68,24.64a41.89,41.89,0,0,0-7.41-.43,46.68,46.68,0,0,0-7.42.7C.52,279.47.77,271.75,1,260s.3-23,.3-33.51q0-12.57-.07-28.93t-1-26.92c1.7.21,7.69.43,17.93.06a376.15,376.15,0,0,0,40.56-4q12.77-2,26.56-5-.47,5.52-.76,22.88t-.3,33.18c0,8.48,0,18.28.07,29.38s.36,20.12,1,27a43.42,43.42,0,0,0-7.42.76,48.2,48.2,0,0,0-7.42,1.93c.69-.25.72-15.46.76-16.58.42-7.94.14-15.89.18-23.79q.08-24.25.18-48.51c0-4.13.56-9.11-.51-13C65.19,176.74,19.3,181.61,14.46,181.07Z"/><path d="M111.56,212.15v8.06c0,3.63.15,10.57.46,20.83s.46,16.74.45,19.43l3.33-.82c4.44-1.11,10.34-2.77,17.71-5.1s14.3-4.8,20.88-7.39l-.15,5,.15,5.07c-2,.4-5.83,1.38-11.42,2.88s-11,2.93-16.12,4.29c-9.69,2.56-19.37,4.94-29,7.07.29-3.69.56-11.5.75-23.44s.29-23.18.31-33.73q0-33.34-.15-40.22c-.12-4.58-.41-9.61-.91-15.09,2.41-.53,6.1-1.21,11-2.12s8.34-1.63,10.14-2.09c3.85-1,10.3-2.78,19.44-5.61s14.49-4.6,16.12-5.08l-.3,5.7.3,5.2c-8,.71-20.88,3.72-38.74,8.19l-3.78.93c0,2.59-.36,16.42-.46,19.65v21.4q6.36-1.54,12.72-3.2c2.22-.59,6.59-1.89,13.16-4s11.29-3.69,14.22-4.56l-.3,4.75.3,4.56q-14.22,2.81-27.38,6.25Q117.92,210.61,111.56,212.15Z"/><path d="M182.78,196.88V220c0,.51.17,5.63.54,15.34.13,3.89.21,8,.21,12.19a41.15,41.15,0,0,0-7.26,1.69,47.93,47.93,0,0,0-7.26,2.92q.45-5.58.76-23.35t.3-33.59c0-8.38,0-18-.08-28.9s-.39-19.76-1-26.6c2.62-.61,5.24-1.24,7.87-1.87,2.74-.87,7.51-2.52,14.37-5s10.94-4,12.26-4.41c11.6-3.93,20.51-4.56,26.78-1.8s9.4,8.66,9.38,17.71c0,10.49-3.82,20-11.5,28.47s-18.66,15.2-33,20Q189,194.87,182.78,196.88Zm0-6.2,7.26-2.07c23-7.63,34.5-20.32,34.5-37.45,0-8.58-2.48-13.82-7.41-15.74s-12.81-1-23.61,2.57q-5,2-10,3.9,0,6.81-.37,19t-.38,15Z"/><path d="M315.94,89.79l-.45,7.28c18.11-5.91,32.35-5.68,42.78.36,10,5.75,15,15.79,15,29.84,0,13.65-5,26.21-15.13,38-10.59,12.32-24.76,21.22-42.52,27l.45,9.94a23.22,23.22,0,0,0-3.63.72c-1.53.39-2.76.76-3.78,1.09q-3.71,1.53-7.41,3.09l.6-10.28c-17.9,6-32.17,6.37-42.78.76q-15-7.92-15-28.24,0-21.09,14.94-39.35c10.48-12.75,24.68-22.29,42.58-28.3q-.16-3.51-.32-7a13.91,13.91,0,0,0,3-.54q2.08-.54,4.64-1.39a40.38,40.38,0,0,0,4-1.54C314.23,90.58,315.24,90.12,315.94,89.79Zm-14.07,18A61,61,0,0,0,271,130.6Q259.92,146.07,260,163.76c0,11.58,3.95,20,11.81,25.2s17.91,5.73,30.11,1.63c0-6.2.35-33.66.46-40Q302.11,129.19,301.87,107.78Zm13.62-4.5c0,4.44-.36,35.31-.45,43.1s.34,34.06.45,39.71a60.6,60.6,0,0,0,30-21.43c7.92-10.38,11.89-21.23,11.88-32.71s-3.61-20-10.89-25.66C338.63,100.15,328.29,99.1,315.49,103.28Z"/><path d="M440.79,173.13c-18.36,2.7-32.8.6-43.35-7.4S381.62,145,381.62,127c0-17.66,5.4-33.26,16.19-46.39a66.6,66.6,0,0,1,43-24.07c18.26-2.67,32.64,1.55,43.2,11.58s15.83,24.42,15.81,42.39c0,17.4-5.41,31.31-16.27,42.47S458.45,170.55,440.79,173.13Zm0-6.2c13.72-2,24.33-7.46,31.85-17s11.27-22.5,11.27-39.26c0-17-3.66-29.89-11-38.22s-18-11.8-32.15-9.74c-13.73,2-24.39,8.67-31.93,19.34s-11.34,24.61-11.35,41.56c0,16.55,3.71,28.38,11.2,35.7S426.86,169,440.79,166.93Z"/><path d="M16,353.68q6.06-.42,12.11-1c16.25-1.22,28.36.1,36.32,5.07,6.7,4.22,10.06,10.83,10.06,20,0,21.21-15,35.39-45.12,37.92q-9.83.45-19.65.4c-1.7.05-3.27.1-4.8.17a33.18,33.18,0,0,0-4.64.57q.47-5.42.79-23.34t.31-33.9c0-8.38,0-18-.07-28.93s-.4-19.89-1-26.92c2.11,0,6.81.17,14.15.21s12.32-.19,14.94-.38c2.4-.2,9.21-.84,20.44-2.56s18-3.1,20.44-3.5c-.16,1.63-.31,3.26-.47,4.89.16,1.58.31,3.15.47,4.73-4.92.83-10,1.48-15.1,1.93-15.31,1.31-23.89,1.47-25.78,1.64-2.19.17-4.11.31-5.74.41s-3.81.38-6.52.81q-.63,6.39-.87,14T16,353.68Zm.48,5.87L16,375.65c0,7.53.07,13.73.16,18.62s.37,9.55.79,14a47.38,47.38,0,0,0,11.32.71c9.85-.73,17.59-3.91,23.19-9.16s8.4-12,8.41-20c0-16.9-10.74-23.3-32.23-21.63-.94.07-2.76.34-5.5.75S17.47,359.5,16.43,359.55Z"/><path d="M175.92,270.69a26.46,26.46,0,0,0,5.82-1.2l7.67-3.15c-1.79,3.58-7.06,15.15-15.88,34.58q-15.27,34-25,55.69c-8.67,19.59-14.47,32.79-17.29,39.76l-7.22,1.3q-3.6,1.24-7.22,2.46,6.14-11.16,11-20.67c1.14-2.28,2.47-4.95,3.93-8-1.15-2.17-5.12-8.93-12-20.43-9.12-15.25-15.94-26.62-20.44-33.89C91.82,304.92,86.83,297.47,84.41,295c3.3-.44,6.61-.91,9.91-1.41q4.64-1.34,9.28-2.72c6.08,11.83,10,19.24,11.63,22.35q3.78,6.82,10.3,18.08c4.34,7.51,13.83,24,13.84,24,1.46-3,5.13-11.15,9.82-21.62,6.7-15,11.71-26.28,14.94-33.78C169.47,287.21,173.4,277.48,175.92,270.69Z"/><path d="M262.39,241.53c-.16,2.43-.32,4.87-.47,7.3q28.21-9.72,44.45-1.44c10.39,5.21,15.6,14.94,15.61,29,0,13.65-5.25,26.53-15.73,38.81Q289.75,334.5,262.07,344l.48,9.91a28.93,28.93,0,0,0-3.78.83c-1.57.45-2.88.85-3.93,1.21l-7.7,3.27.63-10.29q-27.9,9.65-44.46,1.24c-10.4-5.29-15.62-14.8-15.6-28.34,0-14.06,5.18-27.1,15.53-39.25q16.31-19.09,44.24-28.78c-.11-2.33-.23-4.67-.34-7a13.79,13.79,0,0,0,3.11-.61c1.46-.4,3.08-.9,4.83-1.51,1.34-.46,2.71-1,4.12-1.65S261.66,241.89,262.39,241.53Zm-14.62,18.38a65.6,65.6,0,0,0-32.08,23.27q-11.49,15.52-11.47,33.19c0,11.58,4.11,20,12.26,25.17s18.6,5.57,31.29,1.18c0-6.2.06-12.83.16-19.9s.21-13.77.31-20.12Q248,281.31,247.77,259.91ZM261.92,255q0,6.68-.16,19t-.32,24.07c0,7.65.07,14.77.16,21.35s.19,12.7.32,18.34a65.38,65.38,0,0,0,31.21-22.6c8.24-10.74,12.35-21.81,12.34-33.29s-3.77-19.77-11.32-25.12Q281.9,248.18,261.92,255Z"/><path d="M352.86,268.91V277q0,5.43.47,20.81c.32,10.25.45,16.72.47,19.41,1.15-.33,2.31-.64,3.46-1,4.63-1.27,10.76-3.07,18.4-5.29s14.87-4.35,21.69-6.43l-.15,5,.15,5.08c-2.11.24-6,.94-11.87,2.2s-11.38,2.59-16.74,4q-15.09,3.92-30.19,8.41c.33-3.71.57-11.54.79-23.5s.31-23.21.31-33.76q0-33.35-.16-40.21c-.11-4.58-.42-9.57-.94-15,2.51-.74,6.34-1.73,11.48-2.92s8.65-2,10.53-2.5c4-1.07,10.72-3,20.2-5.58s15.06-3.85,16.75-4.22c-.11,1.89-.21,3.78-.31,5.67.11,1.74.21,3.48.31,5.22-8.28.12-21.72,2.32-40.25,7.4l-3.93,1.09q0,3.88-.16,9.35c-.09,3.65-.19,7.1-.31,10.33v21.4q6.6-1.86,13.21-3.59c2.29-.6,6.86-2,13.67-3.92s11.73-3.21,14.78-3.88c-.1,1.57-.21,3.15-.31,4.72.1,1.53.21,3.06.31,4.58a218.65,218.65,0,0,0-28.45,5.48Q359.46,267.07,352.86,268.91Z"/><path d="M456.15,200.11V249q0,12.59.08,28.93t1,26.82a37.82,37.82,0,0,0-7.7.11,42.62,42.62,0,0,0-7.71,1.52q.46-5.49.79-22.82t.31-33.15V201.53c-1.62.2-3.25.41-4.87.63-12.78,1.72-23,4.27-30.66,7.1.11-1.57.21-3.15.32-4.72-.11-1.68-.22-3.37-.32-5,3.58-.69,11.24-2.12,23.11-3.71s18.13-2,18.87-2.13c5.05-.54,11.27-1.18,18.71-1.76s15.25-1,23.42-1.21c-.15,1.6-.31,3.2-.46,4.8a19.39,19.39,0,0,0,.46,5,81.65,81.65,0,0,0-13.28-1.31,156.6,156.6,0,0,0-16.12.46Q459.14,199.83,456.15,200.11Z"/></svg>