<svg id="Layer_1" data-name="Layer 1" xmlns="http://www.w3.org/2000/svg" viewBox="0 0 500 500"><defs><style>.cls-1{fill:#2ecb9b;}</style></defs><title>lev_lovi</title><path d="M54.37,144.51q0,10.52-.13,24.5T54,195.13q0,10.22.33,23t.58,22.9a61.59,61.59,0,0,0-6.35,6.7,94.71,94.71,0,0,0-6.35,8.58q.39-5.73.65-23.05t.26-32.53q0-12.08-.07-27.71t-.84-24.82c1.47-1.55,6.59-8,15.36-16.76a148.56,148.56,0,0,1,24.17-19.61,116.15,116.15,0,0,1,18.73-9.82,99.83,99.83,0,0,1,22.75-6.31q-.4,5-.65,20.92t-.26,30.42q0,11.67.06,26.95t.85,24.81a23.25,23.25,0,0,0-6.35.83,28.72,28.72,0,0,0-6.36,2.46q.39-5.15.65-19t.26-26.64V115.21A38.57,38.57,0,0,0,111,108a109.58,109.58,0,0,0-27.47,11.74,124.77,124.77,0,0,0-15.63,11.6A172.81,172.81,0,0,0,54.37,144.51Z"/><path d="M154.9,147.32v7.26q0,4.88.39,18.88t.39,17.61c.95.12,1.9.26,2.85.4,3.8.57,8.85,1.36,15.17,2.77s12.26,3,17.88,4.63c0,1.44-.09,2.87-.13,4.31s.09,3,.13,4.55a92.54,92.54,0,0,0-9.78-3.82A135,135,0,0,0,168,200a120.76,120.76,0,0,0-24.88-3c.26-3.28.46-10.3.64-21.06s.26-20.92.26-30.47q0-30.19-.13-36.46c-.08-4.17-.35-8.8-.77-13.89a70.5,70.5,0,0,1,9.46,1.46c4.23.92,7.12,1.7,8.68,2,3.28.76,8.84,2,16.66,4.52s12.42,4.56,13.8,5.15c-.08,1.6-.17,3.2-.26,4.81.09,1.59.18,3.18.26,4.77a100.07,100.07,0,0,0-33.18-13c-1.08-.22-2.16-.42-3.24-.61,0,2.32,0,5.1-.13,8.34s-.18,6.3-.26,9.16v19.25c3.63.54,7.26,1.26,10.89,2.12,1.89.47,5.65,1.23,11.27,2.76a119.27,119.27,0,0,1,12.19,4c-.09,1.34-.18,2.67-.26,4,.08,1.4.17,2.8.26,4.2a109.68,109.68,0,0,0-23.46-8.71Q160.35,148.14,154.9,147.32Z"/><path d="M221,176.64v20q0,.67.47,13.64.18,5.19.18,10.67a44.69,44.69,0,0,0-6.22-3.73,36.47,36.47,0,0,0-6.22-2.47q.38-4.55.65-19.78t.25-29q0-10.92-.06-25.17t-.84-23.83c2.24,1.37,4.49,2.78,6.74,4.21s6.44,3.54,12.31,6.91,9.38,5.54,10.5,6.24c9.93,6.31,17.58,13.53,22.94,21.22s8,15.33,8,22.9c0,8.78-3.28,13.44-9.85,14.15s-16-2.79-28.26-9.94Q226.32,179.54,221,176.64Zm0-5.36q3.12,1.84,6.22,3.75c19.7,11.38,29.56,10.78,29.55-3.77a32.48,32.48,0,0,0-6.35-19.59c-4.23-5.79-11-11.74-20.22-17.37q-4.27-2.33-8.55-4.54,0,5.87-.32,16.09T221,158.47Z"/><path d="M338.69,197.07l-.39,5.5c15.5,7.76,27.73,15.54,36.65,24.86,8.57,8.87,12.86,18,12.86,28.89,0,10.48-4.32,18.81-13,23.85-9.07,5.22-21.22,5.31-36.42-1.49l.39,8.22c-.78-.5-1.81-1.09-3.11-1.76s-2.38-1.21-3.24-1.62c-2.12-.82-4.24-1.68-6.35-2.56q.25-3.94.51-7.86a97.4,97.4,0,0,1-36.64-32c-8.58-12.48-12.87-24.53-12.87-35.8q0-17.56,12.8-20c9-1.76,21.13,2.49,36.48,11q-.15-2.94-.28-5.9a20,20,0,0,0,2.56,1.79c1.2.74,2.52,1.5,4,2.27a37.3,37.3,0,0,0,3.4,1.58C337.21,196.51,338.09,196.85,338.69,197.07Zm-12.06,4.36c-11-6-19.78-8.23-26.44-5.67q-9.45,3.6-9.46,18.17c0,9.55,3.37,19.74,10.11,30.26s15.33,18.64,25.79,23.91q0-7.49.13-15.91t.26-16Zm11.67,6.1q0,5.33-.13,15.11t-.26,19q0,9.18.13,17.16t.26,14.86c10.37,4.67,18.95,4.52,25.73.3s10.17-11.13,10.17-20-3.11-17.05-9.33-25.25C358.13,219.81,349.27,213,338.3,207.53Z"/><path d="M448.73,290.23c-15.73,8.67-28.11,7.24-37.14.45s-13.54-18.29-13.54-32,4.62-23.91,13.86-32.55,21.52-14.53,36.82-22c15.63-7.71,28-14.69,37-16.5s13.54,2,13.55,14.85c0,12.22-4.65,28.68-13.94,46.47S463.85,281.81,448.73,290.23Zm0-4.58c11.75-6.51,20.84-17.49,27.28-30s9.65-25.44,9.66-37.41c0-12.29-3.13-18.07-9.4-18.84s-15.45,3.28-27.54,9.29c-11.76,5.77-20.87,11.17-27.35,19.19s-9.72,17.91-9.72,30.82c0,12.51,3.19,22,9.59,27.38S436.8,292.2,448.73,285.65Z"/><path class="cls-1" d="M77.88,288.5q5,.57,10,.68c13.4.61,23.37,1.53,29.94,5.51,5.54,3.33,8.3,8.61,8.3,16.32,0,17.42-12.4,31.39-37.2,31a109,109,0,0,1-16.2-2.38l-4-.77a31.91,31.91,0,0,0-3.82-.51q.39-4.43.65-19.34t.26-28.26q0-10.5-.07-24.2t-.84-22.72c1.73.46,5.62,1.66,11.66,2.88a83.19,83.19,0,0,0,12.32,1.59,104.52,104.52,0,0,0,16.85-.94c9.25-1.25,14.86-2.78,16.85-3.18l-.39,4.1.39,3.93a92.87,92.87,0,0,1-12.44,1.94,137.92,137.92,0,0,1-21.26.12c-1.82-.08-3.39-.18-4.73-.29s-3.13-.16-5.38-.2q-.53,5.25-.71,11.57T77.88,288.5Zm.39,5-.39,13.39q0,9.43.13,15.59t.65,11.78a33.24,33.24,0,0,0,9.33,2c8.12.37,14.5-2,19.12-6.33A22.07,22.07,0,0,0,114,313.18c0-14.28-8.85-18.82-26.57-19.48-.77,0-2.28,0-4.53,0A37.43,37.43,0,0,1,78.27,293.47Z"/><path class="cls-1" d="M209.75,205.65a27.08,27.08,0,0,0,4.8-2.25c2.11-1.41,4.22-2.84,6.33-4.27-1.47,3.37-5.84,14.18-13.09,32.29q-12.58,31.64-20.61,51.68c-7.17,18.08-11.92,30.14-14.26,36.46q-3,1.2-5.94,2.32-3,1.64-6,3.21,5.05-10.26,9.07-19.07,1.42-3.13,3.24-7.4c-1-1.61-4.23-6.54-9.85-15.07-7.52-11.3-13.13-19.93-16.85-25.46-6.22-9.29-10.33-15.09-12.31-17q4.08-1,8.17-2.13c2.54-1.07,5.09-2.2,7.64-3.37,5,9.11,8.21,14.71,9.59,17.05,2.08,3.42,4.9,7.94,8.49,13.47s11.42,17.59,11.42,17.57c1.21-2.78,4.2-10.27,8.09-20,5.53-13.85,9.63-24.32,12.31-31.27C204.44,220.82,207.68,211.86,209.75,205.65Z"/><path class="cls-1" d="M281,164.73l-.39,6.16c15.5-8,27.73-9.41,36.65-5.11,8.57,4.1,12.86,12.48,12.86,24.19,0,11.44-4.32,21.95-13,32.49-9.07,11.06-21.21,20.06-36.42,27.94l.39,8.23a24.89,24.89,0,0,0-3.11,1.23c-1.3.59-2.38,1.13-3.24,1.59-2.12,1.3-4.24,2.63-6.35,4l.51-8.71c-15.32,8.47-27.55,11.95-36.64,9.55q-12.87-3.36-12.87-20.38,0-17.61,12.8-36.1a106.85,106.85,0,0,1,36.48-32.52l-.28-5.81a13.08,13.08,0,0,0,2.56-1q1.8-.85,4-2c1.1-.59,2.25-1.26,3.4-2ZM269,182.31a71.48,71.48,0,0,0-26.44,25.4q-9.45,15.3-9.46,30.1,0,14.52,10.11,18.51c6.74,2.69,15.34,1,25.79-4.8q0-7.77.13-16.66t.26-16.87Zm11.67-6.24q0,5.58-.13,16t-.26,20.16q0,9.58.13,17.82t.26,15.29a71.1,71.1,0,0,0,25.73-22.17c6.78-9.51,10.17-18.81,10.17-28.42s-3.11-16.46-9.33-20.47C300.48,169.93,291.62,170.39,280.65,176.07Z"/><path class="cls-1" d="M355.62,186.24V193q0,4.54.39,17.46t.38,16.29c1-.1,1.91-.19,2.86-.26,3.8-.31,8.85-.7,15.16-.67A150.09,150.09,0,0,1,392.3,227l-.13,4.12.13,4.31a63.53,63.53,0,0,0-9.78-2,98,98,0,0,0-13.81-.94A130.53,130.53,0,0,0,343.83,235q.38-4.62.64-19.58t.26-28.18q0-27.89-.13-33.62T343.83,141a83.63,83.63,0,0,1,9.46-1.2c4.23-.31,7.13-.38,8.68-.48a140.64,140.64,0,0,1,16.66-.15,91.72,91.72,0,0,1,13.8,1.75c-.09,1.54-.17,3.08-.26,4.62.09,1.5.17,3,.26,4.48-6.83-2.84-17.89-5.39-33.18-4.16-1.08.09-2.16.19-3.24.31q0,3.24-.13,7.79t-.26,8.58v17.89c3.63-.4,7.26-.65,10.89-.73,1.89,0,5.65-.24,11.27-.07A78.56,78.56,0,0,1,390,180.86c-.09,1.28-.17,2.56-.26,3.84.09,1.31.17,2.62.26,3.94a78,78,0,0,0-23.46-3.12Q361.07,185.64,355.62,186.24Z"/><path class="cls-1" d="M440.77,170.94v40.84q0,10.51.06,24.23t.85,23.16a53.12,53.12,0,0,0-6.35-5.31,37.8,37.8,0,0,0-6.36-3.73q.4-4.29.66-18.58t.25-27.5V163.22c-1.34-.86-2.67-1.68-4-2.47-10.55-6.2-19-8.71-25.28-9.53.09-1.27.17-2.54.26-3.81-.09-1.45-.17-2.9-.26-4.35a105.36,105.36,0,0,1,19.05,8,137,137,0,0,1,15.56,9.76,169,169,0,0,1,15.42,12.33A213.32,213.32,0,0,1,469.93,193c-.13,1.19-.25,2.37-.38,3.56a25.33,25.33,0,0,0,.38,4.61,149.94,149.94,0,0,0-24.23-26.24Q443.23,172.86,440.77,170.94Z"/><path d="M55.19,312.34c-17.08,0-35-9.29-45.14-24.26C.11,273.44-2.63,250.32,3.4,231.87,8.17,217.26,18,202.78,32.57,188.82l5.12-4.48v9.41C23.87,206.94,14.49,220.5,10.07,234c-5.31,16.27-2.87,37.34,5.79,50.09,8.88,13.08,24.55,21.19,39.33,21.19h0v7Z"/></svg>