<svg id="Layer_1" data-name="Layer 1" xmlns="http://www.w3.org/2000/svg" xmlns:xlink="http://www.w3.org/1999/xlink" viewBox="0 0 500 500"><defs><style>.cls-1{fill:#595959;}.cls-2{fill:#1e1e1e;}.cls-3{fill:#35e5bb;}.cls-4{clip-path:url(#clip-path);}.cls-5{clip-path:url(#clip-path-2);}.cls-6{clip-path:url(#clip-path-3);}.cls-7{clip-path:url(#clip-path-4);}.cls-8{clip-path:url(#clip-path-5);}.cls-9{clip-path:url(#clip-path-6);}.cls-10{clip-path:url(#clip-path-7);}.cls-11{clip-path:url(#clip-path-8);}</style><clipPath id="clip-path"><path class="cls-1" d="M321,289.18l-63.29-37a24.18,24.18,0,0,0,4.16,1.93,25.6,25.6,0,0,0,4.52,1.16,29.93,29.93,0,0,0,4.9.39,38.55,38.55,0,0,0,5.26-.38l63.63,36.95a37.18,37.18,0,0,1-5.36.41,30,30,0,0,1-5-.38,26.72,26.72,0,0,1-4.6-1.17A24.58,24.58,0,0,1,321,289.18Z"/></clipPath><clipPath id="clip-path-2"><path class="cls-2" d="M310,293l-63.09-37.07-.82-.51-.81-.52-.79-.55c-.27-.19-.52-.38-.78-.58a30.93,30.93,0,0,1-5.11-4.9,28,28,0,0,1-3.66-5.83,30.73,30.73,0,0,1-2.23-6.75,39.08,39.08,0,0,1-.78-7.67,45.14,45.14,0,0,1,.66-8.15,39.69,39.69,0,0,1,2.11-7.54,39.13,39.13,0,0,1,3.56-6.93,43.34,43.34,0,0,1,5-6.31A45.55,45.55,0,0,1,249.8,194a48.13,48.13,0,0,1,7.65-4.46,57,57,0,0,1,8.72-3.23,71.93,71.93,0,0,1,9.8-2l63.88,35.35a71.69,71.69,0,0,0-10,2.08,57.92,57.92,0,0,0-8.89,3.34,51,51,0,0,0-7.8,4.58,47.3,47.3,0,0,0-6.71,5.85,44.8,44.8,0,0,0-5.12,6.48,39.39,39.39,0,0,0-3.65,7.1,40,40,0,0,0-2.18,7.72,45.28,45.28,0,0,0-.7,8.34,39.09,39.09,0,0,0,.77,7.83,30.64,30.64,0,0,0,2.24,6.9,28.37,28.37,0,0,0,3.71,5.95,30.77,30.77,0,0,0,5.18,5l.79.58c.27.19.53.38.81.56s.54.36.82.53S309.68,292.85,310,293Z"/></clipPath><clipPath id="clip-path-3"><path class="cls-2" d="M233.54,308.77l-63.17-37.4c0-.72.1-1.65.15-2.78s.09-2.47.13-4,.07-3.28.1-5.23.06-4.1.08-6.45,0-4.68.07-7,0-4.55,0-6.78,0-4.43,0-6.6,0-4.3,0-6.41c0-1.67,0-3.41,0-5.21s0-3.67,0-5.6,0-3.92-.06-6,0-4.18-.08-6.36-.05-4.26-.1-6.25-.11-3.88-.19-5.67-.16-3.49-.26-5.08-.22-3.09-.34-4.48l63.48,35.36c.13,1.42.24,3,.33,4.58s.19,3.36.26,5.19.12,3.77.17,5.8.07,4.17.08,6.4,0,4.39,0,6.49,0,4.14,0,6.12,0,3.88,0,5.72,0,3.62,0,5.33c0,2.15,0,4.34,0,6.56s0,4.46,0,6.75,0,4.59-.05,6.93,0,4.72-.09,7.13-.07,4.6-.1,6.59-.08,3.78-.13,5.35-.09,2.94-.15,4.1S233.6,308,233.54,308.77Z"/></clipPath><clipPath id="clip-path-4"><path class="cls-2" d="M165.51,308l-63.27-37.35c.06-.73.11-1.67.15-2.81s.1-2.48.13-4,.08-3.3.11-5.26.06-4.13.08-6.5.05-4.72.07-7,0-4.58,0-6.82,0-4.45,0-6.62,0-4.32,0-6.44q0-6.65-.08-12t-.08-9.37c0-2.68-.05-4.93-.08-6.73s-.05-3.17-.08-4.09,0-1.87-.1-2.83-.1-2-.16-3-.15-2-.23-3.11-.18-2.14-.28-3.25l63.59,35.32c.1,1.13.19,2.24.27,3.32s.16,2.14.22,3.18.12,2.05.16,3,.08,2,.09,2.9,0,2.34.07,4.18,0,4.15,0,6.89,0,5.94.05,9.58,0,7.74,0,12.28q0,3.24,0,6.58t0,6.77c0,2.29,0,4.62-.06,7s-.05,4.75-.09,7.18-.07,4.65-.11,6.65-.08,3.79-.12,5.38-.1,2.95-.15,4.11S165.57,307.23,165.51,308Z"/></clipPath><clipPath id="clip-path-5"><path class="cls-2" d="M165.28,216.1l-63.59-35.32,1.58-.2,2-.2,2.31-.22,2.66-.21,2.63-.21,2.18-.19c.65-.05,1.22-.11,1.72-.16l1.27-.15,2.6-.37,3.35-.52c1.24-.19,2.61-.41,4.1-.66l4.86-.79,4.72-.78,3.62-.58,2.54-.4,1.45-.21,64.41,35-1.48.22-2.58.41-3.7.61-4.8.81-5,.84-4.18.68-3.42.55-2.65.39-1.29.15-1.75.18-2.22.19-2.68.22-2.71.24-2.35.22-2,.22Z"/></clipPath><clipPath id="clip-path-6"><path class="cls-2" d="M64.06,218.14.75,182.73c.33,0,.86,0,1.6-.09s1.69-.15,2.85-.27l4.08-.46,5.31-.64,5.78-.72,5.55-.7,5.31-.7,5.06-.67L40,178l4-.56,4.36-.62,4.73-.7,4.93-.74,5-.76,5.12-.78,5.21-.81L138,207.94l-5.3.85-5.21.82-5.12.8-5,.77-4.81.73-4.45.65-4.08.59-3.73.52-5.16.71-5.4.73-5.66.74-5.89.76-5.41.67-4.16.48c-1.17.13-2.14.23-2.89.29S64.4,218.15,64.06,218.14Z"/></clipPath><clipPath id="clip-path-7"><path class="cls-2" d="M64.38,310.14l-63-37.46c.05-.73.1-1.66.15-2.8s.09-2.47.13-4,.07-3.28.1-5.23.05-4.09.07-6.45,0-4.67,0-7,0-4.56,0-6.79v-6.61c0-2.18,0-4.32,0-6.44,0-1.67,0-3.41,0-5.21s0-3.66-.05-5.59,0-3.92-.07-6,0-4.18-.06-6.37S1.6,200,1.55,198s-.11-3.88-.19-5.68-.17-3.48-.27-5.08-.22-3.09-.34-4.48l63.31,35.41c.13,1.43.24,3,.34,4.59s.18,3.36.25,5.2.13,3.77.17,5.8.08,4.17.09,6.4,0,4.42,0,6.52,0,4.14,0,6.12,0,3.87,0,5.71,0,3.62,0,5.33c0,2.17,0,4.36,0,6.59s0,4.48,0,6.76,0,4.6,0,6.95,0,4.72-.07,7.13-.07,4.6-.1,6.59-.08,3.77-.13,5.35-.09,2.94-.14,4.1S64.43,309.39,64.38,310.14Z"/></clipPath><clipPath id="clip-path-8"><path class="cls-3" d="M339.57,213.85l-63.89-35.22.4.06.52,0h.63l.74,0,.83-.05.87-.08.92-.1,1-.12.75-.11.76-.14.76-.16.78-.19.74-.18.63-.17.54-.14.44-.13,64.11,35.14-.45.13-.55.15-.65.17-.75.2-.79.19-.78.17-.77.14-.76.12-1,.12-.93.11-.89.09-.84.05-.76,0h-.64c-.2,0-.37,0-.53,0Z"/></clipPath></defs><title>lev_lovi</title><path d="M216.88,316.45a21.51,21.51,0,0,0,4.89.56l6.45-.56q-2.25,3.82-13.34,25.11-12.82,24.85-21,41-11,21.81-14.53,29.74l-6.06-.53-6.07.53q5.16-8.2,9.25-15.2,1.45-2.5,3.3-5.94-1.45-3.18-10-20.09-11.49-22.46-17.18-33Q143,320.3,140,316.48l8.33.53,7.79-.56q7.67,16.91,9.78,21.4,3.17,6.61,8.65,17.64c3.66,7.36,11.64,23.63,11.64,23.63,1.23-2.2,4.28-8.28,8.25-16q8.46-16.65,12.55-25Q213.72,324.11,216.88,316.45Z"/><path d="M289.55,316.48l-.4,6.08q23.72,0,37.36,11.5,13.11,11,13.12,28.93a36.36,36.36,0,0,1-13.22,28.81q-13.87,11.88-37.12,11.89l.39,8.59a21.58,21.58,0,0,0-3.17-.4c-1.32-.09-2.42-.13-3.3-.13l-6.48.53.53-8.59q-23.44,0-37.36-11.89a36,36,0,0,1-13.11-28.55q0-18,13.05-29.06,13.71-11.62,37.18-11.63l-.29-6.08a11.63,11.63,0,0,0,2.62.4c1.22.09,2.57.13,4,.13a29.44,29.44,0,0,0,3.47-.2C288.05,316.68,288.94,316.57,289.55,316.48Zm-12.29,11.37q-16.78,0-26.95,10.43-9.65,9.92-9.65,25a33.74,33.74,0,0,0,10.31,25q10.3,10.17,26.29,10.17,0-7.92.13-16.91t.27-17.05Zm11.89,0q0,5.67-.13,16.18t-.26,20.41q0,9.78.13,18.24t.26,15.72q15.86,0,26.23-10.24a33.69,33.69,0,0,0,10.37-24.91q0-14.52-9.51-24.57Q305.94,327.85,289.15,327.85Z"/><path d="M365.58,364.44v6.88q0,4.62.4,17.83t.39,16.65h2.91q5.81,0,15.46-.39T403,404.22l-.13,4.22.13,4.36c-1.76-.17-5.08-.31-10-.39s-9.58-.13-14.07-.13H353.56q.39-4.63.66-19.83t.26-28.68q0-28.42-.13-34.3t-.79-13q3.17,0,9.64.35t8.85.34q5,0,17-.34t14.07-.35l-.26,4.77.26,4.51q-10.44-2.12-33.82-2.11H366q0,3.3-.14,7.92t-.26,8.73V358.5h11.1q2.9,0,11.49-.4t12.42-.39l-.26,4,.26,4q-12.42-1.19-23.91-1.19Z"/><path d="M452.38,323.09v41.63q0,10.71.07,24.66t.86,22.93a34.66,34.66,0,0,0-6.47-.56,36.62,36.62,0,0,0-6.48.53q.39-4.63.66-19.36t.26-28.21V323.09h-4.09q-16.12,0-25.77,1.72l.27-4-.27-4.36q4.5,0,19.43.27t15.85.26q6.35,0,15.73-.13t19.68-.4l-.39,4.1a18.41,18.41,0,0,0,.39,4.23A87.8,87.8,0,0,0,471,323.48q-6.42-.39-13.54-.39Z"/><path d="M82.45,359.29,92.63,359q20.48,0,30.52,7.93,8.44,6.74,8.45,18.5,0,27.35-37.92,27.34l-16.51-.52c-1.42,0-2.76,0-4,.06a25.27,25.27,0,0,0-3.89.46q.39-4.62.66-19.89T70.16,364q0-10.69-.06-24.65t-.86-22.93q2.64,0,11.89.41t12.55.42q3,0,17.18-.42t17.17-.41l-.39,4.09.39,4.1q-6.21,0-12.68-.32-19.29-1-21.67-1H88.86a49.28,49.28,0,0,0-5.49.4q-.53,5.42-.72,11.89T82.45,359.29Zm.4,5-.4,13.7q0,9.62.13,15.88t.66,11.92A45.26,45.26,0,0,0,92.76,407q12.4,0,19.49-5.79t7.06-16.08q0-21.47-27.08-21.47c-.79,0-2.34.11-4.63.33S83.73,364.31,82.85,364.31Z"/><path class="cls-2" d="M486.84,260.25c.13-1.93.22-3.91.22-6a81.92,81.92,0,0,0-.52-9.71,55.45,55.45,0,0,0-1.6-8.31,36.62,36.62,0,0,0-2.66-6.92,26.68,26.68,0,0,0-3.72-5.52c-.43-.49-.88-.95-1.34-1.39s-1-.87-1.44-1.27-1-.77-1.53-1.12-1.07-.68-1.63-1L408.3,183.81c.55.3,1.08.63,1.6,1s1,.71,1.51,1.11.95.8,1.41,1.23.9.9,1.33,1.38a26.25,26.25,0,0,1,3.68,5.41,35.74,35.74,0,0,1,2.63,6.77,53,53,0,0,1,1.6,8.13,80.25,80.25,0,0,1,.55,9.5c0,2-.07,3.94-.2,5.84,0,.55-.09,1.09-.14,1.63-.12,1.4-.28,2.76-.48,4.09-.07.49-.14,1-.22,1.48-.3,1.73-.65,3.41-1.08,5,0,.15-.09.3-.14.45-.4,1.45-.86,2.83-1.37,4.17-.33.88-.67,1.76-1.05,2.59l-.12.26c-.51,1.1-1.06,2.17-1.65,3.2l-.05.08c-.61,1.06-1.27,2.08-2,3.06l64.18,36.72.57-.82.55-.83c.18-.29.36-.57.53-.86s.25-.41.37-.62a.41.41,0,0,1,.05-.09l.09-.16c.25-.43.49-.86.71-1.3s.46-.89.68-1.34l.21-.48a.6.6,0,0,0,.06-.11l.06-.15.3-.64c.2-.47.4-.94.59-1.42.07-.19.12-.4.19-.59.52-1.37,1-2.78,1.41-4.25,0-.14.1-.26.13-.4s0-.06,0-.09a.38.38,0,0,0,0-.1c.43-1.61.78-3.29,1.08-5,0-.18.09-.34.12-.52s.07-.68.12-1c.11-.71.24-1.4.32-2.13s.12-1.36.18-2c0-.34.09-.65.12-1S486.82,260.47,486.84,260.25Z"/><path class="cls-2" d="M464.21,210.83h.61c1.54.09,3,.26,4.48.49.37,0,.73.13,1.09.19q1.8.33,3.51.81c.32.09.65.17,1,.27l.41.13c.91.3,1.8.62,2.66,1l.31.13c.9.39,1.78.81,2.64,1.28l-.07,0h0l0,0,0,0L416.4,180l0,0h0l0,0,0,0c-.49-.26-1-.51-1.48-.74-.32-.16-.66-.3-1-.45l-.31-.13-.21-.1c-.52-.21-1-.41-1.57-.6l-.84-.28-.22-.08-.17-.05-.38-.12c-.19-.06-.39-.08-.58-.14-1.11-.31-2.26-.58-3.43-.8-.22,0-.41-.11-.63-.15s-.31,0-.46,0-.5-.1-.76-.13c-1.18-.17-2.39-.28-3.64-.35l-.12,0c-.15,0-.31,0-.47,0-.93,0-1.86-.08-2.82-.07-.45,0-.92,0-1.38.06-.22,0-.43,0-.66,0l-.63.05c-1.64.1-3.31.23-5,.46-1.38.19-2.73.41-4.05.68l-.54.12c-.47.1-.93.22-1.39.33-.66.15-1.32.29-2,.46-.37.1-.72.22-1.08.33s-.51.12-.76.2-.48.18-.74.26-.77.22-1.15.35c-.58.21-1.14.45-1.71.67s-.87.33-1.3.51c-.18.07-.37.13-.55.21-.62.27-1.24.55-1.85.84-.44.21-.86.44-1.3.66l-.16.08-.09.05-.25.12c-.59.32-1.18.65-1.75,1s-1.15.69-1.71,1.05l-.15.1-.12.08c-.34.22-.68.44-1,.67s-.84.59-1.25.9-.82.62-1.22.94l-.15.12,0,0-.07.06-.94.76-1.06.94c-.36.31-.71.64-1.05,1l-.3.3-.15.14-.57.56c-.34.34-.67.69-1,1l-.4.43-.4.44-.39.45-.39.45-.56.66-.54.68-.54.68-.52.69c-.24.32-.46.64-.69,1l-.08.1-.1.15c-.29.41-.57.83-.84,1.24s-.54.84-.79,1.26-.51.83-.75,1.25h0v0c-.29.51-.58,1-.85,1.55s-.54,1-.79,1.58c-.14.28-.26.57-.39.86a2.39,2.39,0,0,0-.13.28c-.07.16-.15.31-.22.47-.23.54-.46,1.09-.68,1.64-.12.31-.2.65-.32,1s-.33.76-.46,1.16-.32,1.11-.49,1.67c-.13.41-.29.81-.41,1.23-.07.25-.11.52-.17.77-.27,1-.49,2-.7,3.09-.1.48-.23.94-.32,1.43,0,.18,0,.37-.07.55s-.09.41-.12.62c-.15,1-.22,1.95-.32,2.93-.05.49-.15,1-.18,1.45,0,.1,0,.2,0,.29-.13,1.81-.2,3.64-.19,5.53a64.1,64.1,0,0,0,.84,10.11,45.82,45.82,0,0,0,2.35,8.76,36.08,36.08,0,0,0,3.86,7.38,32.17,32.17,0,0,0,5.38,6c.37.33.75.64,1.14.95s.78.6,1.17.89.8.56,1.21.83.83.53,1.25.78l63.17,37.26-1.27-.79c-.41-.27-.82-.56-1.23-.85s-.8-.59-1.19-.91-.78-.63-1.16-1a32.84,32.84,0,0,1-5.45-6.14,36.38,36.38,0,0,1-3.91-7.55,46.37,46.37,0,0,1-2.36-8.94,64.64,64.64,0,0,1-.81-10.34c0-1.93.07-3.81.21-5.65.05-.61.14-1.19.2-1.78.13-1.23.27-2.45.47-3.64.11-.69.27-1.36.41-2,.21-1.06.44-2.11.71-3.14.18-.7.4-1.38.61-2.06.3-1,.62-2,1-2.89s.79-2.13,1.25-3.16c0-.1.09-.19.13-.29q1-2.1,2.1-4.1h0q1.17-2.06,2.53-4a.44.44,0,0,0,.08-.11c.91-1.28,1.88-2.54,2.92-3.76s2.11-2.37,3.23-3.46a.93.93,0,0,1,.14-.14q1.65-1.6,3.42-3l.12-.1q1.8-1.44,3.7-2.7l.12-.08c1.27-.83,2.59-1.6,3.94-2.32l.27-.14c1.22-.64,2.48-1.22,3.76-1.76.44-.19.89-.35,1.34-.53.95-.37,1.92-.73,2.91-1.05l1.52-.47c1-.31,2.05-.58,3.1-.83.47-.11.94-.23,1.42-.33,1.53-.33,3.08-.62,4.68-.84,1.77-.24,3.47-.39,5.14-.49l1.32-.06C461.4,210.78,462.83,210.77,464.21,210.83Z"/><polygon class="cls-2" points="339.72 305.57 276.15 268.32 276.57 260.25 340.18 297.32 339.72 305.57"/><path class="cls-2" d="M383.13,256.1c.1-1.17.16-2.36.16-3.57a39.82,39.82,0,0,0-.52-6.59,30.9,30.9,0,0,0-1.58-5.91,27.54,27.54,0,0,0-2.63-5.23,27.25,27.25,0,0,0-3.7-4.56c-.43-.43-.87-.84-1.33-1.23s-.91-.77-1.38-1.12-.95-.69-1.44-1-1-.62-1.5-.9L304.83,190.6c.5.28,1,.57,1.48.88s.95.64,1.42,1,.91.72,1.36,1.1.88.79,1.3,1.21a27.14,27.14,0,0,1,3.65,4.47,27.49,27.49,0,0,1,2.61,5.13,30.41,30.41,0,0,1,1.57,5.79,38.93,38.93,0,0,1,.54,6.44c0,1.18-.05,2.34-.15,3.49,0,.39-.1.76-.14,1.14-.09.76-.18,1.52-.31,2.26-.08.44-.19.88-.29,1.32-.14.66-.28,1.33-.46,2-.13.46-.29.91-.43,1.36-.2.62-.4,1.23-.63,1.84-.32.84-.66,1.66-1,2.48,0,.05-.05.1-.07.16q-.67,1.41-1.47,2.79a1.4,1.4,0,0,0-.1.16c-.54.92-1.12,1.82-1.74,2.71a.61.61,0,0,0-.07.1c-.65.91-1.33,1.8-2.06,2.69l25.71,14.6-25.71-14.6c-.75.9-1.52,1.75-2.32,2.55l0,0c-.79.79-1.6,1.54-2.43,2.24L305,246q-1.24,1-2.55,2l-.08,0c-.84.58-1.71,1.12-2.59,1.62l-.25.14c-.91.51-1.85,1-2.81,1.4h0c-.91.4-1.84.74-2.78,1.07l-.84.26c-.71.22-1.43.43-2.17.61l-.87.21c-1,.22-2,.42-3.05.56l63.82,36.88c.88-.12,1.75-.28,2.6-.46l.51-.13c.3-.06.59-.14.89-.22s.75-.17,1.11-.27l1.09-.35.55-.16a2.85,2.85,0,0,0,.31-.12l.48-.15c.8-.29,1.57-.6,2.34-.94h0c.43-.19.85-.39,1.27-.6s.85-.43,1.27-.65l.33-.19.11-.06.13-.08.67-.38,1.21-.76.78-.53.07-.05.09-.06c.31-.22.62-.44.92-.67s.61-.47.91-.71l.68-.56.06-.05,0,0,.12-.1c.27-.23.55-.47.82-.72l.8-.75c.25-.24.5-.48.74-.73l0,0,0,0,.78-.81.39-.44c.14-.14.27-.29.4-.44l.39-.45.38-.46h0l.4-.48.39-.49c.12-.17.25-.33.38-.49l.37-.5.57-.8.07-.09.08-.12c.24-.34.47-.68.69-1s.45-.68.66-1c.12-.2.24-.4.35-.6l.06-.09,0-.07.17-.29c.22-.39.44-.79.65-1.19s.42-.81.61-1.21a1.42,1.42,0,0,0,.08-.18c0-.05.05-.11.08-.16l.4-.88c.18-.41.36-.83.52-1.24l.14-.42c.06-.15.13-.29.19-.44.17-.48.3-1,.46-1.44s.26-.71.36-1.07c0-.11.05-.22.08-.33.19-.67.33-1.35.48-2,.08-.38.2-.75.27-1.13a1.66,1.66,0,0,1,0-.22c0-.08,0-.16,0-.24.12-.68.19-1.38.27-2.08,0-.35.11-.69.15-1Z"/><path class="cls-1" d="M321,289.18l-63.29-37a24.18,24.18,0,0,0,4.16,1.93,25.6,25.6,0,0,0,4.52,1.16,29.93,29.93,0,0,0,4.9.39,38.55,38.55,0,0,0,5.26-.38l63.63,36.95a37.18,37.18,0,0,1-5.36.41,30,30,0,0,1-5-.38,26.72,26.72,0,0,1-4.6-1.17A24.58,24.58,0,0,1,321,289.18Z"/><g class="cls-4"><path class="cls-1" d="M321,289.18l-63.29-37,.24.13.24.14.24.13.24.13,63.31,37-.25-.13-.24-.13-.24-.14-.25-.14"/><path class="cls-1" d="M322,289.72l-63.31-37c.36.19.73.37,1.11.55l1.13.49c.38.15.77.3,1.16.43s.79.26,1.19.38l63.39,37-1.21-.38c-.4-.14-.79-.29-1.18-.45s-.78-.32-1.16-.49-.75-.36-1.12-.56"/><path class="cls-2" d="M326.64,291.6l-63.39-37a25.82,25.82,0,0,0,3.07.7,28.66,28.66,0,0,0,3.24.35,32.28,32.28,0,0,0,3.41,0c1.16-.06,2.35-.17,3.57-.34l63.63,36.95c-1.24.18-2.46.3-3.64.36a33.51,33.51,0,0,1-3.47,0,29.23,29.23,0,0,1-3.3-.35,26.19,26.19,0,0,1-3.12-.7"/></g><path class="cls-2" d="M340.06,224.71,276.2,189.25l.53,34.29c0,1.26,0,2.54-.05,3.84s0,2.61,0,3.94,0,2.68,0,4.05,0,2.75,0,4.15,0,2.78,0,4.14,0,2.69,0,4v3.89c0,1.28,0,2.53,0,3.77l63.63,36.95v-3.85c0-1.3,0-2.63,0-4s0-2.71,0-4.1,0-2.81.05-4.24,0-2.84.06-4.24,0-2.78.05-4.14,0-2.7.05-4,0-2.63.05-3.93Z"/><polygon class="cls-2" points="339.85 219.66 275.97 184.31 275.68 178.63 339.57 213.84 339.85 219.66"/><path class="cls-2" d="M310,293l-63.09-37.07-.82-.51-.81-.52-.79-.55c-.27-.19-.52-.38-.78-.58a30.93,30.93,0,0,1-5.11-4.9,28,28,0,0,1-3.66-5.83,30.73,30.73,0,0,1-2.23-6.75,39.08,39.08,0,0,1-.78-7.67,45.14,45.14,0,0,1,.66-8.15,39.69,39.69,0,0,1,2.11-7.54,39.13,39.13,0,0,1,3.56-6.93,43.34,43.34,0,0,1,5-6.31A45.55,45.55,0,0,1,249.8,194a48.13,48.13,0,0,1,7.65-4.46,57,57,0,0,1,8.72-3.23,71.93,71.93,0,0,1,9.8-2l63.88,35.35a71.69,71.69,0,0,0-10,2.08,57.92,57.92,0,0,0-8.89,3.34,51,51,0,0,0-7.8,4.58,47.3,47.3,0,0,0-6.71,5.85,44.8,44.8,0,0,0-5.12,6.48,39.39,39.39,0,0,0-3.65,7.1,40,40,0,0,0-2.18,7.72,45.28,45.28,0,0,0-.7,8.34,39.09,39.09,0,0,0,.77,7.83,30.64,30.64,0,0,0,2.24,6.9,28.37,28.37,0,0,0,3.71,5.95,30.77,30.77,0,0,0,5.18,5l.79.58c.27.19.53.38.81.56s.54.36.82.53S309.68,292.85,310,293Z"/><g class="cls-5"><path class="cls-2" d="M308.31,292c-.28-.18-.54-.37-.81-.56l-.79-.58a30.44,30.44,0,0,1-5.18-5,28.05,28.05,0,0,1-3.71-5.94,31.15,31.15,0,0,1-2.24-6.9,39.09,39.09,0,0,1-.77-7.83c0-1.45.05-2.87.16-4.27s.3-2.76.54-4.1.55-2.66.92-4a38.36,38.36,0,0,1,1.28-3.79c.17-.44.35-.88.54-1.31s.39-.86.59-1.29.42-.84.64-1.26.45-.84.68-1.25l.63-1.07c.22-.35.44-.7.67-1s.46-.69.7-1,.48-.69.73-1,.51-.68.77-1l.8-1c.27-.33.55-.65.84-1s.58-.64.87-1l.07-.07.07-.08.07-.07.08-.08c.28-.3.58-.6.87-.9l.9-.87c.3-.28.61-.57.92-.84s.62-.56.94-.83l-63.3-35.72-.92.8-.9.82-.88.85c-.29.29-.57.58-.85.88l-.07.07a.46.46,0,0,0-.07.07l-.07.08L243,200c-.29.31-.58.62-.86.94s-.55.63-.81.95-.53.64-.79,1-.51.65-.75,1-.48.66-.72,1-.46.67-.68,1-.44.68-.65,1-.41.69-.61,1l-.67,1.22c-.21.41-.42.82-.62,1.24s-.39.84-.58,1.26-.36.85-.53,1.27c-.47,1.21-.89,2.45-1.24,3.71a37.92,37.92,0,0,0-.88,3.86,40.29,40.29,0,0,0-.52,4q-.17,2.06-.15,4.17a39.08,39.08,0,0,0,.78,7.67,31.27,31.27,0,0,0,2.23,6.75,28,28,0,0,0,3.66,5.83,30.54,30.54,0,0,0,5.11,4.9c.26.2.51.39.78.58l.79.55.81.52.82.51L310,293q-.44-.24-.84-.51C308.85,292.33,308.58,292.15,308.31,292Z"/><path class="cls-2" d="M276,184.31c-1.57.21-3.1.47-4.59.76s-2.95.64-4.37,1-2.8.8-4.14,1.26-2.66,1-3.93,1.52c-.65.28-1.28.58-1.91.88s-1.25.61-1.86.94-1.21.66-1.8,1-1.17.71-1.74,1.07l-1.26.85c-.41.28-.82.57-1.22.87s-.8.61-1.2.92l-1.16.95,63.3,35.72c.39-.33.79-.65,1.19-1s.8-.64,1.22-.94.83-.61,1.25-.91l1.28-.86c.58-.38,1.18-.75,1.78-1.1s1.21-.71,1.83-1,1.26-.66,1.9-1,1.29-.61,1.95-.9c1.3-.56,2.63-1.09,4-1.57s2.78-.91,4.23-1.31,2.93-.74,4.45-1.05,3.08-.57,4.68-.79Z"/></g><path class="cls-2" d="M276.39,230.51a18.37,18.37,0,0,0-1.08-4,12.27,12.27,0,0,0-1.81-3.11,10,10,0,0,0-2.53-2.25l-.15-.09-.14-.09-.15-.08-.15-.09-64.15-35.31.15.08.15.08.14.09.14.09a9.92,9.92,0,0,1,2.5,2.2,12,12,0,0,1,1.79,3.05,18.25,18.25,0,0,1,1.08,3.88,29.84,29.84,0,0,1,.37,4.72,28,28,0,0,1-.39,4.86s0,0,0,.06a20.93,20.93,0,0,1-1.2,4.28v0a19.14,19.14,0,0,1-2,3.79h0A19.61,19.61,0,0,1,206,216l0,0a23,23,0,0,1-3.63,2.71l-.1.06a31,31,0,0,1-4.2,2.07q-.65.27-1.32.51l-1.13.4c-.56.19-1.15.36-1.74.52-.39.11-.76.23-1.16.33-.67.17-1.38.32-2.08.47l-1,.23c-1.08.21-2.2.4-3.36.56l-5.57.52,63.53,36.3,5.68-.56c1.18-.17,2.32-.36,3.42-.58l.15,0c.32-.06.6-.14.91-.21.72-.15,1.44-.31,2.13-.49l.28-.07c.31-.08.59-.18.89-.27.61-.17,1.21-.35,1.79-.54l.38-.12c.27-.09.51-.2.77-.29s.72-.25,1.06-.39c.18-.07.34-.15.51-.23l.47-.18,1.15-.53.2-.1.21-.11.7-.35,1.05-.6.23-.14.22-.14.55-.34.65-.44.62-.44,0,0,0,0,.53-.41c.2-.15.39-.31.58-.47l.47-.41.16-.15,0,0,0,0,.24-.22c.15-.14.3-.28.44-.43l.43-.44.38-.42.05-.06,0,0,.29-.34.36-.44.34-.45.34-.47,0,0v0l.3-.44.31-.5.3-.5.21-.39a.59.59,0,0,0,0-.08,1.09,1.09,0,0,0,.08-.15c.11-.21.22-.42.32-.63s.2-.42.29-.64.15-.35.22-.53l0,0s0,0,0,0l0-.08c.15-.38.26-.78.39-1.17s.22-.61.31-.93v0c.12-.44.21-.89.3-1.34s.15-.6.21-.9v0c.1-.53.15-1.08.21-1.62,0-.26.08-.5.1-.77h0c.07-.82.1-1.67.1-2.53A29.84,29.84,0,0,0,276.39,230.51Z"/><path class="cls-2" d="M233.54,308.77l-63.17-37.4c0-.72.1-1.65.15-2.78s.09-2.47.13-4,.07-3.28.1-5.23.06-4.1.08-6.45,0-4.68.07-7,0-4.55,0-6.78,0-4.43,0-6.6,0-4.3,0-6.41c0-1.67,0-3.41,0-5.21s0-3.67,0-5.6,0-3.92-.06-6,0-4.18-.08-6.36-.05-4.26-.1-6.25-.11-3.88-.19-5.67-.16-3.49-.26-5.08-.22-3.09-.34-4.48l63.48,35.36c.13,1.42.24,3,.33,4.58s.19,3.36.26,5.19.12,3.77.17,5.8.07,4.17.08,6.4,0,4.39,0,6.49,0,4.14,0,6.12,0,3.88,0,5.72,0,3.62,0,5.33c0,2.15,0,4.34,0,6.56s0,4.46,0,6.75,0,4.59-.05,6.93,0,4.72-.09,7.13-.07,4.6-.1,6.59-.08,3.78-.13,5.35-.09,2.94-.15,4.1S233.6,308,233.54,308.77Z"/><g class="cls-6"><path class="cls-2" d="M233.54,308.77l-63.17-37.4c0-.72.1-1.65.15-2.78s.09-2.47.13-4,.07-3.28.1-5.23.06-4.1.08-6.45,0-4.68.07-7,0-4.55,0-6.78,0-4.43,0-6.6,0-4.3,0-6.41c0-1.67,0-3.41,0-5.21s0-3.67,0-5.6,0-3.92-.06-6,0-4.18-.08-6.36-.05-4.26-.1-6.25-.11-3.88-.19-5.67-.16-3.49-.26-5.08-.22-3.09-.34-4.48l63.48,35.36c.13,1.42.24,3,.33,4.58s.19,3.36.26,5.19.12,3.77.17,5.8.07,4.17.08,6.4,0,4.39,0,6.49,0,4.14,0,6.12,0,3.88,0,5.72,0,3.62,0,5.33c0,2.15,0,4.34,0,6.56s0,4.46,0,6.75,0,4.59-.05,6.93,0,4.72-.09,7.13-.07,4.6-.1,6.59-.08,3.78-.13,5.35-.09,2.94-.15,4.1-.1,2.11-.16,2.85"/></g><path class="cls-2" d="M165.51,308l-63.27-37.35c.06-.73.11-1.67.15-2.81s.1-2.48.13-4,.08-3.3.11-5.26.06-4.13.08-6.5.05-4.72.07-7,0-4.58,0-6.82,0-4.45,0-6.62,0-4.32,0-6.44q0-6.65-.08-12t-.08-9.37c0-2.68-.05-4.93-.08-6.73s-.05-3.17-.08-4.09,0-1.87-.1-2.83-.1-2-.16-3-.15-2-.23-3.11-.18-2.14-.28-3.25l63.59,35.32c.1,1.13.19,2.24.27,3.32s.16,2.14.22,3.18.12,2.05.16,3,.08,2,.09,2.9,0,2.34.07,4.18,0,4.15,0,6.89,0,5.94.05,9.58,0,7.74,0,12.28q0,3.24,0,6.58t0,6.77c0,2.29,0,4.62-.06,7s-.05,4.75-.09,7.18-.07,4.65-.11,6.65-.08,3.79-.12,5.38-.1,2.95-.15,4.11S165.57,307.23,165.51,308Z"/><g class="cls-7"><path class="cls-2" d="M165.51,308l-63.27-37.35c.06-.73.11-1.67.15-2.81s.1-2.48.13-4,.08-3.3.11-5.26.06-4.13.08-6.5.05-4.72.07-7,0-4.58,0-6.82,0-4.45,0-6.62,0-4.32,0-6.44q0-6.65-.08-12t-.08-9.37c0-2.68-.05-4.93-.08-6.73s-.05-3.17-.08-4.09,0-1.87-.1-2.83-.1-2-.16-3-.15-2-.23-3.11-.18-2.14-.28-3.25l63.59,35.32c.1,1.13.19,2.24.27,3.32s.16,2.14.22,3.18.12,2.05.16,3,.08,2,.09,2.9,0,2.34.07,4.18,0,4.15,0,6.89,0,5.94.05,9.58,0,7.74,0,12.28q0,3.24,0,6.58t0,6.77c0,2.29,0,4.62-.06,7s-.05,4.75-.09,7.18-.07,4.65-.11,6.65-.08,3.79-.12,5.38-.1,2.95-.15,4.11-.11,2.12-.17,2.87"/></g><path class="cls-2" d="M127.28,222.33c0-.7,0-1.31-.07-1.84s-.06-1-.11-1.37a5.94,5.94,0,0,0-.15-.9L62.5,183a6.82,6.82,0,0,1,.16.88c0,.37.08.81.11,1.34s.06,1.12.07,1.79,0,1.43,0,2.26v14.84l0,4.45,0,5.06,0,5.56,0,5.67v5.55c0,1.86,0,3.75,0,5.66s0,3.84,0,5.78,0,3.91-.07,5.89-.07,3.81-.1,5.47-.08,3.18-.12,4.54-.1,2.55-.15,3.59-.1,1.92-.15,2.64l64.14,37c0-.73.11-1.63.17-2.7s.1-2.28.15-3.67.1-2.93.14-4.64.09-3.57.12-5.59.07-4,.1-6,.06-4,.08-5.91,0-3.88,0-5.79,0-3.8,0-5.67V224.63C127.3,223.78,127.29,223,127.28,222.33Z"/><path class="cls-2" d="M414.14,250.17a34.76,34.76,0,0,1-2.25,2.82h0a31.41,31.41,0,0,1-2.42,2.47.6.6,0,0,1-.08.08,33.87,33.87,0,0,1-2.62,2.17l-.08,0a29.85,29.85,0,0,1-2.82,1.86l-.13.07c-1,.55-1.93,1.06-2.94,1.52l-.2.09c-1,.44-2,.83-3,1.19l-.79.25c-.81.26-1.65.49-2.5.7l-.94.23c-1.11.25-2.24.47-3.41.63a43.89,43.89,0,0,1-5,.4q-.65,0-1.26,0a31.81,31.81,0,0,1-4-.26c-.2,0-.4,0-.6-.06a25.38,25.38,0,0,1-4.47-1.08h0a21.68,21.68,0,0,1-4.12-1.88h0l63.35,37.14.22.13.24.13a1.71,1.71,0,0,0,.23.13l.23.12c.34.18.69.36,1,.52s.72.32,1.08.46.73.28,1.11.41h.05c.36.12.72.24,1.09.34a26.19,26.19,0,0,0,3.26.73l.21,0,.12,0c.15,0,.33,0,.48,0,.88.11,1.76.22,2.69.26.44,0,.91,0,1.36,0,.23,0,.43,0,.66,0s.42-.05.62-.05c.37,0,.72,0,1.09,0,1.28-.08,2.6-.21,4-.41,1-.14,1.91-.31,2.84-.51l.64-.16.95-.23c.38-.1.76-.17,1.13-.28s.95-.3,1.42-.45l.56-.16.25-.1c.12,0,.25-.07.37-.12.84-.3,1.67-.63,2.48-1l.25-.12.2-.09c.28-.13.56-.25.83-.39l1.24-.64.92-.53.09-.05.06,0,.15-.09c.4-.24.79-.48,1.18-.74l.87-.59.67-.49.08-.05.11-.09c.28-.21.56-.42.84-.65s.55-.44.81-.67l.74-.65.18-.17,0,0,0-.05.45-.42.7-.68.68-.72.64-.71v0l0,0,.66-.78c.22-.26.43-.53.64-.8l.63-.82.08-.12.09-.12a.44.44,0,0,0,.08-.11l.09-.12Z"/><path class="cls-2" d="M357.76,217.53c1.67-.07,3.3-.09,4.86,0h.43a46.24,46.24,0,0,1,4.85.5l1.19.2a39.35,39.35,0,0,1,3.92.9l.72.19.32.1c1,.31,1.94.66,2.87,1l.24.1q1.44.62,2.79,1.35l0,0h0l-64.53-35.23,0,0,0,0,0,0,0,0q-.72-.39-1.47-.75c-.36-.17-.74-.33-1.11-.49l-.24-.11-.17-.07c-.52-.21-1-.41-1.57-.6l-1.08-.36-.2-.07-.11,0L309,184c-.15,0-.32-.06-.47-.11-1.24-.35-2.53-.65-3.86-.89-.21,0-.41-.11-.62-.14s-.37,0-.55-.06-.61-.12-.94-.16c-1.23-.16-2.51-.28-3.82-.34h-.43c-1.09,0-2.19-.08-3.33-.06-.47,0-1,.05-1.44.06-.23,0-.45,0-.69,0s-.46.06-.69.07c-1.79.1-3.63.26-5.53.51h0l64.08,35.27c1.95-.27,3.82-.44,5.65-.55Z"/><path class="cls-2" d="M267,212.67c1.19,0,2.33,0,3.43.14.44,0,.9.07,1.33.13a26.16,26.16,0,0,1,3.94.79.61.61,0,0,1,.13,0,19.29,19.29,0,0,1,3.86,1.59l-64.32-35.16,0,0h-.05l0,0-.86-.44c-.3-.13-.6-.27-.9-.39s-.62-.25-.94-.36l-1-.32h0l-.11,0a24.08,24.08,0,0,0-3.14-.72l-.74-.07c-.16,0-.29-.07-.46-.09s-.57,0-.84,0c-.54,0-1-.13-1.59-.16s-1.19,0-1.78,0c-.3,0-.55,0-.86,0s-.38,0-.56,0-.51,0-.79,0c-1.39.07-2.83.21-4.34.41l-1.14.17-1.95.31-2.76.45-3.56.59-3.66.59-3.06.49-2.47.38-1.88.27-6.06.32,63.48,35.36,6.19-.35,1.9-.28,2.52-.4,3.12-.51,3.73-.63,3.63-.6c1.07-.19,2-.34,2.81-.47l2-.33,1.16-.18c1.84-.25,3.56-.38,5.22-.44C266,212.67,266.51,212.67,267,212.67Z"/><path class="cls-2" d="M145.42,257c-1.24.3-2.5.6-3.79.89s-2.59.57-3.91.85l-4,.83c-1.37.27-2.75.54-4.16.8l-4,.73-3.58.62c-1.13.19-2.19.37-3.18.52l-2.76.42-2.55.36L177,300.13l2.6-.38c.87-.13,1.81-.27,2.82-.44l3.23-.54,3.66-.65,4.07-.76c1.43-.28,2.84-.55,4.23-.84s2.77-.56,4.12-.86,2.68-.58,4-.89,2.6-.6,3.87-.91Z"/><path class="cls-2" d="M143.18,213.89c-.55.07-1.19.17-1.92.29l-2.45.4-3,.53-3.51.65-3.44.63-2.83.51-2.21.37c-.63.11-1.16.19-1.59.25l-9.74,1.34L176.16,255l9.92-1.42c.44-.06,1-.14,1.63-.25L190,253l2.88-.53,3.51-.66,3.57-.68,3-.55,2.5-.42,2-.3Z"/><path class="cls-2" d="M165.28,216.1l-63.59-35.32,1.58-.2,2-.2,2.31-.22,2.66-.21,2.63-.21,2.18-.19c.65-.05,1.22-.11,1.72-.16l1.27-.15,2.6-.37,3.35-.52c1.24-.19,2.61-.41,4.1-.66l4.86-.79,4.72-.78,3.62-.58,2.54-.4,1.45-.21,64.41,35-1.48.22-2.58.41-3.7.61-4.8.81-5,.84-4.18.68-3.42.55-2.65.39-1.29.15-1.75.18-2.22.19-2.68.22-2.71.24-2.35.22-2,.22Z"/><g class="cls-8"><path class="cls-2" d="M165.28,216.1l-63.59-35.32,1.58-.2,2-.2,2.31-.22,2.66-.21,2.63-.21,2.18-.19c.65-.05,1.22-.11,1.72-.16l1.27-.15,2.6-.37,3.35-.52c1.24-.19,2.61-.41,4.1-.66l4.86-.79,4.72-.78,3.62-.58,2.54-.4,1.45-.21,64.41,35-1.48.22-2.58.41-3.7.61-4.8.81-5,.84-4.18.68-3.42.55-2.65.39-1.29.15-1.75.18-2.22.19-2.68.22-2.71.24-2.35.22-2,.22-1.61.21"/></g><path class="cls-2" d="M64.06,218.14.75,182.73c.33,0,.86,0,1.6-.09s1.69-.15,2.85-.27l4.08-.46,5.31-.64,5.78-.72,5.55-.7,5.31-.7,5.06-.67L40,178l4-.56,4.36-.62,4.73-.7,4.93-.74,5-.76,5.12-.78,5.21-.81L138,207.94l-5.3.85-5.21.82-5.12.8-5,.77-4.81.73-4.45.65-4.08.59-3.73.52-5.16.71-5.4.73-5.66.74-5.89.76-5.41.67-4.16.48c-1.17.13-2.14.23-2.89.29S64.4,218.15,64.06,218.14Z"/><g class="cls-9"><path class="cls-2" d="M64.06,218.14.75,182.73c.33,0,.86,0,1.6-.09s1.69-.15,2.85-.27l4.08-.46,5.31-.64,5.78-.72,5.55-.7,5.31-.7,5.06-.67L40,178l4-.56,4.36-.62,4.73-.7,4.93-.74,5-.76,5.12-.78,5.21-.81L138,207.94l-5.3.85-5.21.82-5.12.8-5,.77-4.81.73-4.45.65-4.08.59-3.73.52-5.16.71-5.4.73-5.66.74-5.89.76-5.41.67-4.16.48c-1.17.13-2.14.23-2.89.29s-1.3.1-1.64.09"/></g><path class="cls-2" d="M64.38,310.14l-63-37.46c.05-.73.1-1.66.15-2.8s.09-2.47.13-4,.07-3.28.1-5.23.05-4.09.07-6.45,0-4.67,0-7,0-4.56,0-6.79v-6.61c0-2.18,0-4.32,0-6.44,0-1.67,0-3.41,0-5.21s0-3.66-.05-5.59,0-3.92-.07-6,0-4.18-.06-6.37S1.6,200,1.55,198s-.11-3.88-.19-5.68-.17-3.48-.27-5.08-.22-3.09-.34-4.48l63.31,35.41c.13,1.43.24,3,.34,4.59s.18,3.36.25,5.2.13,3.77.17,5.8.08,4.17.09,6.4,0,4.42,0,6.52,0,4.14,0,6.12,0,3.87,0,5.71,0,3.62,0,5.33c0,2.17,0,4.36,0,6.59s0,4.48,0,6.76,0,4.6,0,6.95,0,4.72-.07,7.13-.07,4.6-.1,6.59-.08,3.77-.13,5.35-.09,2.94-.14,4.1S64.43,309.39,64.38,310.14Z"/><g class="cls-10"><path class="cls-2" d="M64.38,310.14l-63-37.46c.05-.73.1-1.66.15-2.8s.09-2.47.13-4,.07-3.28.1-5.23.05-4.09.07-6.45,0-4.67,0-7,0-4.56,0-6.79v-6.61c0-2.18,0-4.32,0-6.44,0-1.67,0-3.41,0-5.21s0-3.66-.05-5.59,0-3.92-.07-6,0-4.18-.06-6.37S1.6,200,1.55,198s-.11-3.88-.19-5.68-.17-3.48-.27-5.08-.22-3.09-.34-4.48l63.31,35.41c.13,1.43.24,3,.34,4.59s.18,3.36.25,5.2.13,3.77.17,5.8.08,4.17.09,6.4,0,4.42,0,6.52,0,4.14,0,6.12,0,3.87,0,5.71,0,3.62,0,5.33c0,2.17,0,4.36,0,6.59s0,4.48,0,6.76,0,4.6,0,6.95,0,4.72-.07,7.13-.07,4.6-.1,6.59-.08,3.77-.13,5.35-.09,2.94-.14,4.1-.11,2.11-.16,2.86"/></g><path class="cls-3" d="M339.57,213.85l-63.89-35.22.4.06.52,0h.63l.74,0,.83-.05.87-.08.92-.1,1-.12.75-.11.76-.14.76-.16.78-.19.74-.18.63-.17.54-.14.44-.13,64.11,35.14-.45.13-.55.15-.65.17-.75.2-.79.19-.78.17-.77.14-.76.12-1,.12-.93.11-.89.09-.84.05-.76,0h-.64c-.2,0-.37,0-.53,0Z"/><g class="cls-11"><path class="cls-3" d="M339.57,213.85l-63.89-35.22.4.06.52,0h.63l.74,0,.83-.05.87-.08.92-.1,1-.12.75-.11.76-.14.76-.16.78-.19.74-.18.63-.17.54-.14.44-.13,64.11,35.14-.45.13-.55.15-.65.17-.75.2-.79.19-.78.17-.77.14-.76.12-1,.12-.93.11-.89.09-.84.05-.76,0h-.64c-.2,0-.37,0-.53,0l-.41-.05"/></g><path class="cls-3" d="M487.14,219.59a33,33,0,0,1,5.37,6.25,36.45,36.45,0,0,1,3.82,7.59,46,46,0,0,1,2.28,8.94,68.33,68.33,0,0,1,0,20.46,54.81,54.81,0,0,1-2.37,9.38,50.65,50.65,0,0,1-3.94,8.6,52.86,52.86,0,0,1-5.51,7.81A52.18,52.18,0,0,1,480,295.3a49.52,49.52,0,0,1-7.78,5.2,52.4,52.4,0,0,1-8.78,3.73,64.56,64.56,0,0,1-19.94,2.95,44.52,44.52,0,0,1-9-1.05,34.65,34.65,0,0,1-7.91-2.8,32.23,32.23,0,0,1-6.78-4.56,32.84,32.84,0,0,1-5.45-6.14,35.88,35.88,0,0,1-3.9-7.55,45.66,45.66,0,0,1-2.37-8.94,69.51,69.51,0,0,1-.06-20.77,55.78,55.78,0,0,1,2.36-9.59,51.21,51.21,0,0,1,9.49-16.61,50.41,50.41,0,0,1,6.86-6.7,49.07,49.07,0,0,1,7.91-5.2,52.34,52.34,0,0,1,8.93-3.69,63.06,63.06,0,0,1,10-2.2,60.65,60.65,0,0,1,10.13-.59,42.63,42.63,0,0,1,9,1.17,34.35,34.35,0,0,1,7.84,2.93A32,32,0,0,1,487.14,219.59Zm-8.82,67.3a39.7,39.7,0,0,0,3.82-6.61,46.87,46.87,0,0,0,2.73-7.64,60.86,60.86,0,0,0,1.64-8.67,80.81,80.81,0,0,0,.55-9.69,81.92,81.92,0,0,0-.52-9.71,55.45,55.45,0,0,0-1.6-8.31,36.62,36.62,0,0,0-2.66-6.92,26.68,26.68,0,0,0-3.72-5.52,22.39,22.39,0,0,0-4.76-4.07,23,23,0,0,0-5.77-2.59,28.78,28.78,0,0,0-6.77-1.09,44.61,44.61,0,0,0-15.38,2.15,36,36,0,0,0-6.7,3,33.18,33.18,0,0,0-5.79,4.3,36.22,36.22,0,0,0-4.89,5.59,40.48,40.48,0,0,0-3.88,6.75,48,48,0,0,0-2.76,7.79,63.31,63.31,0,0,0-1.65,8.84,84.14,84.14,0,0,0-.52,9.88,75.89,75.89,0,0,0,.58,9.48,52.08,52.08,0,0,0,1.67,8.13,35.78,35.78,0,0,0,2.77,6.8,26.86,26.86,0,0,0,3.84,5.45,22.71,22.71,0,0,0,4.86,4,23.05,23.05,0,0,0,5.8,2.54,28.54,28.54,0,0,0,6.73,1.05,41.72,41.72,0,0,0,7.66-.44,42.62,42.62,0,0,0,7.54-1.79,35.1,35.1,0,0,0,6.63-3,33.49,33.49,0,0,0,5.73-4.25,36,36,0,0,0,4.82-5.49"/><path class="cls-3" d="M384,224.53a28.42,28.42,0,0,1,5.09,4.94,27.74,27.74,0,0,1,3.63,6,32,32,0,0,1,2.16,7,42.13,42.13,0,0,1,.71,8.06,43.35,43.35,0,0,1-.74,8A40.2,40.2,0,0,1,389,273.13a46,46,0,0,1-5.13,6.5,47.89,47.89,0,0,1-6.66,5.92,50.25,50.25,0,0,1-7.72,4.66,56.89,56.89,0,0,1-8.76,3.4,69.51,69.51,0,0,1-9.82,2.14l.36,8.13a4.91,4.91,0,0,0-.57,0q-.31,0-.66,0l-.75,0-.84,0-.84.07-.77.07-.7.08-.63.09-5.77,1.35.46-8.25a67.23,67.23,0,0,1-9.93.74,47.62,47.62,0,0,1-8.9-.83,36.9,36.9,0,0,1-7.84-2.41,33.24,33.24,0,0,1-6.8-4,30.77,30.77,0,0,1-5.18-5,28.37,28.37,0,0,1-3.71-5.95,30.64,30.64,0,0,1-2.24-6.9,39.09,39.09,0,0,1-.77-7.83,45.28,45.28,0,0,1,.7-8.34,40,40,0,0,1,2.18-7.72,39.39,39.39,0,0,1,3.65-7.1,44.8,44.8,0,0,1,5.12-6.48,47.3,47.3,0,0,1,6.71-5.85,51,51,0,0,1,7.8-4.58,57.92,57.92,0,0,1,8.89-3.34,71.69,71.69,0,0,1,10-2.08l-.28-5.81.41.05c.16,0,.33,0,.53,0h.64l.76,0,.84-.05.89-.09.93-.11,1-.12.76-.12.77-.14.78-.17.79-.19.75-.2.65-.17.55-.15.45-.13-.35,5.89a70,70,0,0,1,10-.71,49.08,49.08,0,0,1,8.9.84,36.83,36.83,0,0,1,7.75,2.36A31.13,31.13,0,0,1,384,224.53Zm-43.73,51.58c0-1.43,0-2.84.06-4.24s0-2.78.05-4.14,0-2.7.05-4,0-2.63.05-3.93l-.41-35.06a42.14,42.14,0,0,0-7.15,1.62,36.49,36.49,0,0,0-6.42,2.78,35.41,35.41,0,0,0-5.67,3.93,37.78,37.78,0,0,0-4.93,5.09,40.55,40.55,0,0,0-3.78,5.61,37,37,0,0,0-2.69,6.08,39.06,39.06,0,0,0-1.61,6.54,44.45,44.45,0,0,0-.51,7,38.26,38.26,0,0,0,.6,6.75,29.58,29.58,0,0,0,1.76,6,26.95,26.95,0,0,0,7,9.84,25.5,25.5,0,0,0,4.95,3.54,24.75,24.75,0,0,0,5.57,2.23,28.09,28.09,0,0,0,6.19.92,37.4,37.4,0,0,0,6.83-.38v-3.85c0-1.3,0-2.63,0-4s0-2.71,0-4.1,0-2.81.05-4.24m33.82,1.48a43,43,0,0,0,4-5.72,38.71,38.71,0,0,0,2.88-6.08,36.53,36.53,0,0,0,1.73-6.45,39.12,39.12,0,0,0,.58-6.81,39.82,39.82,0,0,0-.52-6.59,31.65,31.65,0,0,0-1.58-5.91,27.54,27.54,0,0,0-2.63-5.23,27.25,27.25,0,0,0-3.7-4.56,25.38,25.38,0,0,0-4.95-3.85,23.92,23.92,0,0,0-5.67-2.46,28.44,28.44,0,0,0-6.4-1.05,37.28,37.28,0,0,0-7.14.35v3c0,1.1,0,2.3,0,3.6s0,2.68,0,4.17,0,3.07,0,4.76,0,3.35-.06,5,0,3.3-.05,4.94,0,3.25-.05,4.85,0,3.21-.06,4.79,0,3.09,0,4.59,0,3,0,4.43,0,2.88,0,4.27,0,2.77.06,4.12,0,2.66.07,4,0,2.56.06,3.81,0,2.47.06,3.67,0,2.37.06,3.52a38.63,38.63,0,0,0,6.75-1.59,35.07,35.07,0,0,0,11.66-6.57,39.84,39.84,0,0,0,4.9-5"/><path class="cls-3" d="M281.22,216.3a15.6,15.6,0,0,1,3.21,2.89,16,16,0,0,1,2.28,3.65,20.46,20.46,0,0,1,1.36,4.41,28,28,0,0,1,.45,5.16,32.91,32.91,0,0,1-.56,6.14,27.92,27.92,0,0,1-1.67,5.58,27.42,27.42,0,0,1-2.79,5,29.69,29.69,0,0,1-3.92,4.46,31.91,31.91,0,0,1-4.94,3.81,39.82,39.82,0,0,1-5.93,3.07,52,52,0,0,1-6.92,2.32,69.39,69.39,0,0,1-7.9,1.58l-9.69,1.38,0,18.84c0,.11,0,.46,0,1s0,1.39.09,2.44.09,2.33.15,3.85.13,3.27.2,5.26c0,.79,0,1.6.07,2.41s0,1.63.05,2.46,0,1.67,0,2.51,0,1.7,0,2.56c-.42,0-.85,0-1.3,0l-1.37,0c-.48,0-1,.06-1.46.11s-1,.12-1.54.19-1,.16-1.51.26-1,.19-1.45.3-.94.23-1.39.36-.89.27-1.32.42c.06-.74.11-1.69.16-2.85s.1-2.52.15-4.1.09-3.36.13-5.35.07-4.19.1-6.59.07-4.78.09-7.13,0-4.65.05-6.93,0-4.53,0-6.75,0-4.41,0-6.56c0-1.71,0-3.49,0-5.33s0-3.75,0-5.72,0-4,0-6.12,0-4.26,0-6.49,0-4.37-.08-6.4-.1-4-.17-5.8-.16-3.56-.26-5.19-.2-3.16-.33-4.58l6.19-.35,1.9-.28,2.52-.4,3.12-.51,3.73-.63,3.63-.6,2.81-.47,2-.33,1.17-.18a51.38,51.38,0,0,1,6.41-.5,33.41,33.41,0,0,1,5.62.36,23.87,23.87,0,0,1,4.83,1.22A18.14,18.14,0,0,1,281.22,216.3Zm-31.35,43.85a50.48,50.48,0,0,0,11.78-3,27.12,27.12,0,0,0,8.4-5.13,20,20,0,0,0,5-7.27,25.08,25.08,0,0,0,1.67-9.43,29.84,29.84,0,0,0-.36-4.82,18.37,18.37,0,0,0-1.08-4,12.27,12.27,0,0,0-1.81-3.11,10,10,0,0,0-2.53-2.25,13.85,13.85,0,0,0-3.32-1.48,22.18,22.18,0,0,0-4.17-.81,37.39,37.39,0,0,0-5.05-.13q-2.74.11-5.92.54l-7.82,1.6c0,.93,0,1.95,0,3.06s0,2.31,0,3.6,0,2.67-.09,4.14-.07,3-.12,4.68-.08,3.15-.11,4.49-.06,2.51-.09,3.52,0,1.87,0,2.57,0,1.23,0,1.61l0,12.14,5.68-.56"/><path class="cls-3" d="M176.34,229.09c0,.74,0,1.48,0,2.2l-.06,2.13-.06,2.07c0,.68,0,1.36-.06,2l0,17.5,9.92-1.42c.44-.06,1-.14,1.63-.25L190,253l2.88-.53,3.51-.66,3.57-.68,3-.55,2.5-.42,2-.3-.23,3.82.23,3.75c-1.83.08-3.66.17-5.47.29s-3.6.25-5.38.41-3.54.34-5.28.54-3.48.42-5.19.67l-9.92,1.41v6.58c0,.74,0,1.64,0,2.72s0,2.32.07,3.74.07,3,.12,4.77.11,3.68.17,5.78.12,4,.17,5.71.08,3.22.11,4.54.06,2.45.08,3.38,0,1.67,0,2.21l2.6-.38c.87-.13,1.81-.27,2.82-.44l3.23-.54,3.66-.65,4.07-.76,4.23-.83c1.39-.29,2.77-.57,4.12-.87s2.68-.58,4-.89,2.59-.6,3.86-.91l-.12,4,.12,4.13c-.39,0-.86.05-1.43.1l-1.95.19c-.74.07-1.56.16-2.48.27l-3,.37-3.22.41-3.16.43-3.1.43-3,.44L165.51,308c.06-.75.12-1.7.17-2.87s.1-2.53.15-4.11.08-3.38.12-5.38.08-4.22.11-6.65.07-4.82.09-7.18,0-4.69.06-7,0-4.55,0-6.77,0-4.42,0-6.58q0-6.81,0-12.28c0-3.64,0-6.83-.05-9.58s0-5,0-6.89,0-3.23-.07-4.18,0-1.91-.09-2.9-.09-2-.16-3-.13-2.1-.22-3.18-.17-2.19-.27-3.32l1.61-.21,2-.22,2.35-.22,2.71-.24,2.68-.22,2.22-.19,1.75-.18,1.29-.15,2.65-.39,3.42-.55,4.18-.68,5-.84,4.8-.81,3.7-.61,2.58-.41,1.48-.22-.23,4.6.23,4.31c-1.54-.13-3.33-.18-5.36-.15s-4.31.13-6.83.32-5.29.44-8.29.77-6.26.75-9.75,1.23l-3,.41c0,.53,0,1.09,0,1.68s0,1.19,0,1.83,0,1.3,0,2S176.36,228.35,176.34,229.09Z"/><path class="cls-3" d="M137.15,253.56v5.38c0,1.86,0,3.78,0,5.77s0,4.05,0,6.17,0,4.31,0,6.56,0,4.39.06,6.43.08,4,.15,5.81.13,3.55.22,5.16.2,3.13.31,4.53q-.65,0-1.32,0c-.46,0-.92,0-1.4,0s-1,.06-1.47.11-1,.11-1.54.19-1,.16-1.54.26-1,.19-1.47.3l-1.4.37c-.45.13-.89.26-1.32.41,0-.73.11-1.63.17-2.7s.1-2.28.15-3.67.1-2.93.14-4.64.09-3.57.12-5.59.07-4,.1-6,.06-4,.08-5.91,0-3.88,0-5.79,0-3.8,0-5.67V224.63c0-.85,0-1.61,0-2.3s0-1.31-.07-1.84-.06-1-.11-1.37a5.94,5.94,0,0,0-.15-.9l-3.4.47-3.34.44-3.28.42-3.24.39-3.14.37-3,.36-2.87.34-2.73.31-3.73.53-3.62.52-3.51.53-3.41.53-3.29.53-3.16.5-3,.48-2.91.47c0,1.51,0,3.07,0,4.7s0,3.31,0,5.06,0,3.55,0,5.41,0,3.78,0,5.76,0,3.94,0,5.86,0,3.79,0,5.64,0,3.65,0,5.43,0,3.52,0,5.24c0,1.46,0,3,0,4.54s0,3.17.06,4.83.07,3.38.11,5.15.09,3.58.15,5.45.11,3.68.17,5.45.1,3.48.15,5.14.09,3.28.14,4.85.09,3.08.13,4.55c-.44,0-.89,0-1.34,0s-.93,0-1.42,0-1,.06-1.48.11-1,.12-1.56.2-1.05.16-1.56.26-1,.2-1.5.31-1,.23-1.41.36-.9.28-1.33.42c.05-.75.11-1.7.16-2.86s.1-2.53.14-4.1.09-3.36.13-5.35.07-4.19.1-6.59,0-4.79.07-7.13,0-4.67,0-6.95,0-4.54,0-6.76,0-4.42,0-6.59c0-1.71,0-3.48,0-5.33s0-3.74,0-5.71,0-4,0-6.12,0-4.28,0-6.52,0-4.36-.09-6.4-.1-4-.17-5.8-.16-3.57-.25-5.2-.21-3.16-.34-4.59c.34,0,.88,0,1.64-.09s1.72-.16,2.89-.29l4.16-.48,5.41-.67,5.89-.76,5.66-.74,5.4-.73,5.16-.71,3.73-.52,4.08-.59,4.45-.65,4.81-.73,5-.77,5.12-.8,5.21-.82,5.3-.85c-.05.75-.11,1.7-.17,2.85s-.11,2.5-.16,4.05-.1,3.31-.14,5.27-.09,4.11-.13,6.46-.07,4.69-.1,7-.06,4.57-.08,6.82,0,4.47-.05,6.67S137.15,251.42,137.15,253.56Z"/></svg>