<svg id="Layer_1" data-name="Layer 1" xmlns="http://www.w3.org/2000/svg" viewBox="0 0 500 500"><defs><style>.cls-1{fill:#fff;stroke:#000;stroke-linecap:square;stroke-miterlimit:10;stroke-width:1.82px;}</style></defs><title>lev_lovi</title><path d="M12.31,157.06q0,9.28-.13,21.51t-.26,22.81q0,9,.33,20.66t.58,20.78a33.85,33.85,0,0,0-6.4-.55,35.74,35.74,0,0,0-6.4.52q.39-4.57.65-19.48t.26-28.23q0-10.59-.06-24.38T0,148q2.22.28,15.48.42t24.37.14q7.84,0,18.89-.13t22.93-.39q-.39,4.57-.65,19.15t-.26,27.91q0,10.71.06,24.77t.85,22.94a33.93,33.93,0,0,0-6.4-.55,35.93,35.93,0,0,0-6.41.52c.27-3,.48-8.78.66-17.19s.26-16.48.26-24.24V163.73a33.8,33.8,0,0,0-.39-6.67c-5.06,0-10,0-14.7-.13s-9.09-.17-13-.26q-8.37,0-15.75.13Z"/><path d="M113.67,195.48v6.8q0,4.58.39,17.64c.26,8.72.39,14.2.39,16.47h2.87c3.84,0,8.93-.13,15.3-.4s12.37-.65,18-1.17l-.13,4.18.13,4.31q-2.61-.26-9.86-.39t-13.92-.13H101.78q.39-4.57.65-19.61t.26-28.37q0-28.09-.13-33.92T101.78,148q3.12,0,9.54.35t8.75.34q5,0,16.79-.34t13.92-.35l-.26,4.72.26,4.46q-10.32-2.08-33.46-2.09h-3.26c0,2.18,0,4.8-.13,7.84s-.18,5.93-.26,8.63v18h11q2.86,0,11.36-.39t12.29-.39l-.26,3.92.26,3.92q-12.28-1.17-23.65-1.18Z"/><path d="M180.32,199.93v19.48q0,.66.46,13.08c.12,3.32.19,6.76.19,10.33a32.59,32.59,0,0,0-6.27-.55,34.44,34.44,0,0,0-6.28.52q.39-4.57.66-19.47t.26-28.23q0-10.58-.07-24.37t-.85-22.67l6.8.52q3.53,0,12.41-.26c5.93-.18,9.46-.26,10.59-.26q15,0,23.13,6.24t8.1,17.68q0,13.26-9.93,20.61T191,199.93Zm0-5.23,6.27.26q29.79,0,29.79-21.69,0-10.85-6.4-15.42t-20.39-4.58l-8.62.53q0,5.73-.33,15.89t-.32,12.51Z"/><path d="M299,148.05l-.39,6q23.44,0,36.95,11.37,13,10.84,13,28.62a35.93,35.93,0,0,1-13.07,28.48q-13.73,11.78-36.72,11.77l.39,8.49a22.77,22.77,0,0,0-3.13-.39c-1.31-.09-2.4-.13-3.27-.13l-6.4.52.52-8.49q-23.19,0-36.95-11.77a35.51,35.51,0,0,1-13-28.22q0-17.77,12.9-28.75,13.57-11.51,36.78-11.5l-.28-6a11.92,11.92,0,0,0,2.58.39c1.21.09,2.55.13,4,.13a28.77,28.77,0,0,0,3.43-.2C297.48,148.24,298.37,148.13,299,148.05Zm-12.15,11.24q-16.6,0-26.66,10.32-9.54,9.79-9.54,24.7A33.38,33.38,0,0,0,260.81,219q10.2,10.05,26,10.06,0-7.84.13-16.73t.26-16.86Zm11.76,0q0,5.61-.13,16t-.26,20.19q0,9.68.13,18t.26,15.55q15.68,0,25.94-10.13a33.3,33.3,0,0,0,10.26-24.63q0-14.38-9.41-24.31Q315.17,159.29,298.58,159.29Z"/><path d="M409.92,244.62q-23.79,0-37.45-13.13t-13.65-35.88q0-22.34,14-35.8t37.12-13.46q23.64,0,37.31,13.26t13.65,36q0,22-14.05,35.49T409.92,244.62Zm0-5.23q17.76,0,27.5-11.37t9.74-32.54q0-21.55-9.48-32.73t-27.76-11.17q-17.78,0-27.58,11.49T372.54,196q0,20.91,9.67,32.14T409.92,239.39Z"/><path class="cls-1" d="M103.8,253.25l10.07-.26q20.25,0,30.18,7.84,8.37,6.66,8.37,18.29,0,27.06-37.51,27.05l-16.33-.52q-2.1,0-4,.06a24.63,24.63,0,0,0-3.85.46q.39-4.57.65-19.67t.26-28.56q0-10.59-.07-24.38t-.84-22.69q2.61,0,11.75.41t12.42.41q3,0,17-.41t17-.41l-.39,4,.39,4.06q-6.15,0-12.55-.32-19.08-1-21.43-1h-4.77a49.94,49.94,0,0,0-5.42.39q-.52,5.37-.72,11.77T103.8,253.25Zm.4,5-.4,13.55q0,9.51.13,15.7t.66,11.79a44.75,44.75,0,0,0,9.41,1.17q12.27,0,19.27-5.73t7-15.9q0-21.23-26.79-21.23c-.78,0-2.3.11-4.57.33S105.07,258.21,104.2,258.21Z"/><path class="cls-1" d="M236.76,210.87a21,21,0,0,0,4.84.56l6.38-.56q-2.23,3.8-13.2,24.84Q222.11,260.29,214,276.24q-10.86,21.57-14.38,29.41l-6-.52-6,.52q5.1-8.1,9.15-15,1.44-2.47,3.27-5.88-1.44-3.14-9.93-19.86-11.37-22.22-17-32.67-9.41-17.52-12.42-21.3l8.24.52,7.71-.56q7.57,16.74,9.67,21.17,3.13,6.54,8.56,17.45c3.61,7.28,11.51,23.37,11.51,23.37,1.22-2.18,4.23-8.19,8.15-15.86q8.37-16.45,12.42-24.69Q233.62,218.45,236.76,210.87Z"/><path class="cls-1" d="M308.63,210.91l-.39,6q23.44,0,36.95,11.37,13,10.85,13,28.62a35.94,35.94,0,0,1-13.07,28.49q-13.71,11.76-36.72,11.76l.39,8.49a22.77,22.77,0,0,0-3.13-.39c-1.31-.09-2.4-.13-3.27-.13l-6.4.52.52-8.49q-23.19,0-37-11.76a35.55,35.55,0,0,1-13-28.23q0-17.78,12.91-28.75,13.56-11.5,36.77-11.5l-.28-6a11.92,11.92,0,0,0,2.58.39c1.21.09,2.55.13,4,.13a28.61,28.61,0,0,0,3.42-.2C307.15,211.1,308,211,308.63,210.91Zm-12.15,11.24q-16.59,0-26.66,10.32-9.54,9.79-9.54,24.7a33.38,33.38,0,0,0,10.19,24.7q10.2,10,26,10.06,0-7.85.13-16.73t.26-16.86Zm11.76,0q0,5.61-.13,16t-.26,20.19q0,9.68.13,18t.26,15.55q15.69,0,25.94-10.13a33.3,33.3,0,0,0,10.26-24.63q0-14.38-9.41-24.31Q324.85,222.15,308.24,222.15Z"/><path class="cls-1" d="M383.83,258.34v6.8q0,4.58.39,17.64c.26,8.72.39,14.2.39,16.47h2.88q5.75,0,15.29-.39t18-1.18l-.13,4.18.13,4.31q-2.61-.26-9.86-.39T397,305.65H371.94q.39-4.57.65-19.61t.26-28.37q0-28.1-.13-33.92t-.78-12.88q3.13,0,9.54.35c4.27.23,7.18.34,8.75.34q5,0,16.8-.34t13.91-.35l-.26,4.72.26,4.46Q410.62,218,387.49,218h-3.27c0,2.18,0,4.8-.13,7.84s-.18,5.93-.26,8.63v18h11q2.87,0,11.37-.39t12.28-.39l-.26,3.92.26,3.92q-12.29-1.17-23.65-1.18Z"/><path class="cls-1" d="M469.68,217.44v41.18q0,10.59.07,24.38t.85,22.68a33.93,33.93,0,0,0-6.4-.55,35.85,35.85,0,0,0-6.41.52q.39-4.57.66-19.15t.25-27.89V217.44h-4q-16,0-25.49,1.7l.26-3.92-.26-4.31q4.44,0,19.21.26t15.68.26q6.27,0,15.56-.13t19.47-.39L498.7,215a18,18,0,0,0,.39,4.18,86.39,86.39,0,0,0-11-1.31q-6.33-.39-13.39-.39Z"/><polygon class="cls-1" points="38.74 260.75 44.25 254.37 75.25 254.37 70.42 260.63 38.74 260.75"/></svg>